SofiaSans-Regular.ufo
<glyph name="exclam" format="2">
  <advance width="231"/>
  <unicode hex="0021"/>
  <outline>
    <contour>
      <point x="85" y="200" type="curve" smooth="yes"/>
      <point x="146" y="200" type="line" smooth="yes"/>
      <point x="152" y="200"/>
      <point x="156" y="203"/>
      <point x="156" y="210" type="curve" smooth="yes"/>
      <point x="162" y="645" type="line" smooth="yes"/>
      <point x="162" y="651"/>
      <point x="158" y="655"/>
      <point x="152" y="655" type="curve" smooth="yes"/>
      <point x="79" y="655" type="line" smooth="yes"/>
      <point x="73" y="655"/>
      <point x="69" y="651"/>
      <point x="69" y="645" type="curve" smooth="yes"/>
      <point x="75" y="210" type="line" smooth="yes"/>
      <point x="75" y="203"/>
      <point x="79" y="200"/>
    </contour>
    <contour>
      <point x="116" y="-12" type="curve" smooth="yes"/>
      <point x="156" y="-12"/>
      <point x="172" y="11"/>
      <point x="172" y="44" type="curve" smooth="yes"/>
      <point x="172" y="54" type="line" smooth="yes"/>
      <point x="172" y="87"/>
      <point x="156" y="110"/>
      <point x="116" y="110" type="curve" smooth="yes"/>
      <point x="76" y="110"/>
      <point x="60" y="87"/>
      <point x="60" y="54" type="curve" smooth="yes"/>
      <point x="60" y="44" type="line" smooth="yes"/>
      <point x="60" y="11"/>
      <point x="76" y="-12"/>
    </contour>
  </outline>
</glyph>
<glyph name="quotedbl" format="2">
  <advance width="325"/>
  <unicode hex="0022"/>
  <outline>
    <contour>
      <point x="200" y="429" type="curve" smooth="yes"/>
      <point x="265" y="429" type="line" smooth="yes"/>
      <point x="271" y="429"/>
      <point x="275" y="433"/>
      <point x="275" y="439" type="curve" smooth="yes"/>
      <point x="275" y="673" type="line" smooth="yes"/>
      <point x="275" y="679"/>
      <point x="271" y="683"/>
      <point x="265" y="683" type="curve" smooth="yes"/>
      <point x="200" y="683" type="line" smooth="yes"/>
      <point x="194" y="683"/>
      <point x="190" y="679"/>
      <point x="190" y="673" type="curve" smooth="yes"/>
      <point x="190" y="439" type="line" smooth="yes"/>
      <point x="190" y="433"/>
      <point x="194" y="429"/>
    </contour>
    <contour>
      <point x="60" y="429" type="curve" smooth="yes"/>
      <point x="125" y="429" type="line" smooth="yes"/>
      <point x="131" y="429"/>
      <point x="135" y="433"/>
      <point x="135" y="439" type="curve" smooth="yes"/>
      <point x="135" y="673" type="line" smooth="yes"/>
      <point x="135" y="679"/>
      <point x="131" y="683"/>
      <point x="125" y="683" type="curve" smooth="yes"/>
      <point x="60" y="683" type="line" smooth="yes"/>
      <point x="54" y="683"/>
      <point x="50" y="679"/>
      <point x="50" y="673" type="curve" smooth="yes"/>
      <point x="50" y="439" type="line" smooth="yes"/>
      <point x="50" y="433"/>
      <point x="54" y="429"/>
    </contour>
  </outline>
</glyph>
<glyph name="numbersign" format="2">
  <advance width="600"/>
  <unicode hex="0023"/>
  <outline>
    <contour>
      <point x="132" y="0" type="curve" smooth="yes"/>
      <point x="197" y="0" type="line" smooth="yes"/>
      <point x="203" y="0"/>
      <point x="207" y="4"/>
      <point x="207" y="10" type="curve" smooth="yes"/>
      <point x="207" y="125" type="line"/>
      <point x="393" y="125" type="line"/>
      <point x="393" y="10" type="line" smooth="yes"/>
      <point x="393" y="4"/>
      <point x="397" y="0"/>
      <point x="403" y="0" type="curve" smooth="yes"/>
      <point x="468" y="0" type="line" smooth="yes"/>
      <point x="474" y="0"/>
      <point x="478" y="4"/>
      <point x="478" y="10" type="curve" smooth="yes"/>
      <point x="478" y="125" type="line"/>
      <point x="560" y="125" type="line" smooth="yes"/>
      <point x="566" y="125"/>
      <point x="570" y="129"/>
      <point x="570" y="135" type="curve" smooth="yes"/>
      <point x="570" y="185" type="line" smooth="yes"/>
      <point x="570" y="191"/>
      <point x="566" y="195"/>
      <point x="560" y="195" type="curve" smooth="yes"/>
      <point x="478" y="195" type="line"/>
      <point x="478" y="418" type="line"/>
      <point x="560" y="418" type="line" smooth="yes"/>
      <point x="566" y="418"/>
      <point x="570" y="422"/>
      <point x="570" y="428" type="curve" smooth="yes"/>
      <point x="570" y="478" type="line" smooth="yes"/>
      <point x="570" y="484"/>
      <point x="566" y="488"/>
      <point x="560" y="488" type="curve" smooth="yes"/>
      <point x="478" y="488" type="line"/>
      <point x="478" y="603" type="line" smooth="yes"/>
      <point x="478" y="609"/>
      <point x="474" y="613"/>
      <point x="468" y="613" type="curve" smooth="yes"/>
      <point x="403" y="613" type="line" smooth="yes"/>
      <point x="397" y="613"/>
      <point x="393" y="609"/>
      <point x="393" y="603" type="curve" smooth="yes"/>
      <point x="393" y="488" type="line"/>
      <point x="207" y="488" type="line"/>
      <point x="207" y="603" type="line" smooth="yes"/>
      <point x="207" y="609"/>
      <point x="203" y="613"/>
      <point x="197" y="613" type="curve" smooth="yes"/>
      <point x="132" y="613" type="line" smooth="yes"/>
      <point x="126" y="613"/>
      <point x="122" y="609"/>
      <point x="122" y="603" type="curve" smooth="yes"/>
      <point x="122" y="488" type="line"/>
      <point x="40" y="488" type="line" smooth="yes"/>
      <point x="34" y="488"/>
      <point x="30" y="484"/>
      <point x="30" y="478" type="curve" smooth="yes"/>
      <point x="30" y="428" type="line" smooth="yes"/>
      <point x="30" y="422"/>
      <point x="34" y="418"/>
      <point x="40" y="418" type="curve" smooth="yes"/>
      <point x="122" y="418" type="line"/>
      <point x="122" y="195" type="line"/>
      <point x="40" y="195" type="line" smooth="yes"/>
      <point x="34" y="195"/>
      <point x="30" y="191"/>
      <point x="30" y="185" type="curve" smooth="yes"/>
      <point x="30" y="135" type="line" smooth="yes"/>
      <point x="30" y="129"/>
      <point x="34" y="125"/>
      <point x="40" y="125" type="curve" smooth="yes"/>
      <point x="122" y="125" type="line"/>
      <point x="122" y="10" type="line" smooth="yes"/>
      <point x="122" y="4"/>
      <point x="126" y="0"/>
    </contour>
    <contour>
      <point x="207" y="195" type="line"/>
      <point x="207" y="418" type="line"/>
      <point x="393" y="418" type="line"/>
      <point x="393" y="195" type="line"/>
    </contour>
  </outline>
</glyph>
<glyph name="dollar" format="2">
  <advance width="630"/>
  <unicode hex="0024"/>
  <outline>
    <contour>
      <point x="312" y="-12" type="curve" smooth="yes"/>
      <point x="442" y="-12"/>
      <point x="530" y="50"/>
      <point x="530" y="168" type="curve" smooth="yes"/>
      <point x="530" y="265"/>
      <point x="486" y="302"/>
      <point x="411" y="337" type="curve" smooth="yes"/>
      <point x="281" y="398" type="line" smooth="yes"/>
      <point x="222" y="425"/>
      <point x="195" y="454"/>
      <point x="196" y="506" type="curve" smooth="yes"/>
      <point x="197" y="564"/>
      <point x="239" y="592"/>
      <point x="312" y="592" type="curve" smooth="yes"/>
      <point x="395" y="592"/>
      <point x="439" y="554"/>
      <point x="439" y="477" type="curve" smooth="yes"/>
      <point x="439" y="471"/>
      <point x="443" y="467"/>
      <point x="449" y="467" type="curve" smooth="yes"/>
      <point x="513" y="467" type="line" smooth="yes"/>
      <point x="518" y="467"/>
      <point x="522" y="470"/>
      <point x="522" y="477" type="curve" smooth="yes"/>
      <point x="522" y="604"/>
      <point x="442" y="666"/>
      <point x="314" y="666" type="curve" smooth="yes"/>
      <point x="195" y="666"/>
      <point x="113" y="618"/>
      <point x="112" y="503" type="curve" smooth="yes"/>
      <point x="111" y="421"/>
      <point x="154" y="368"/>
      <point x="235" y="331" type="curve" smooth="yes"/>
      <point x="367" y="270" type="line" smooth="yes"/>
      <point x="425" y="243"/>
      <point x="445" y="217"/>
      <point x="445" y="165" type="curve" smooth="yes"/>
      <point x="445" y="90"/>
      <point x="406" y="62"/>
      <point x="315" y="62" type="curve" smooth="yes"/>
      <point x="221" y="62"/>
      <point x="185" y="107"/>
      <point x="185" y="181" type="curve" smooth="yes"/>
      <point x="185" y="188"/>
      <point x="182" y="192"/>
      <point x="176" y="192" type="curve" smooth="yes"/>
      <point x="112" y="192" type="line" smooth="yes"/>
      <point x="106" y="192"/>
      <point x="102" y="189"/>
      <point x="102" y="182" type="curve" smooth="yes"/>
      <point x="102" y="50"/>
      <point x="182" y="-12"/>
    </contour>
    <contour>
      <point x="291" y="-89" type="curve" smooth="yes"/>
      <point x="347" y="-89" type="line" smooth="yes"/>
      <point x="353" y="-89"/>
      <point x="357" y="-85"/>
      <point x="357" y="-79" type="curve" smooth="yes"/>
      <point x="357" y="9" type="line"/>
      <point x="281" y="4" type="line"/>
      <point x="281" y="-79" type="line" smooth="yes"/>
      <point x="281" y="-85"/>
      <point x="285" y="-89"/>
    </contour>
    <contour>
      <point x="281" y="649" type="line"/>
      <point x="357" y="644" type="line"/>
      <point x="357" y="732" type="line" smooth="yes"/>
      <point x="357" y="738"/>
      <point x="353" y="742"/>
      <point x="347" y="742" type="curve" smooth="yes"/>
      <point x="291" y="742" type="line" smooth="yes"/>
      <point x="285" y="742"/>
      <point x="281" y="738"/>
      <point x="281" y="732" type="curve" smooth="yes"/>
    </contour>
  </outline>
</glyph>
<glyph name="percent" format="2">
  <advance width="942"/>
  <unicode hex="0025"/>
  <outline>
    <contour>
      <point x="247" y="0" type="curve" smooth="yes"/>
      <point x="313" y="0" type="line" smooth="yes"/>
      <point x="318" y="0"/>
      <point x="322" y="3"/>
      <point x="325" y="7" type="curve" smooth="yes"/>
      <point x="516" y="335" type="line"/>
      <point x="702" y="645" type="line" smooth="yes"/>
      <point x="706" y="652"/>
      <point x="703" y="657"/>
      <point x="695" y="657" type="curve" smooth="yes"/>
      <point x="629" y="657" type="line" smooth="yes"/>
      <point x="624" y="657"/>
      <point x="620" y="654"/>
      <point x="617" y="650" type="curve" smooth="yes"/>
      <point x="437" y="341" type="line"/>
      <point x="240" y="12" type="line" smooth="yes"/>
      <point x="236" y="5"/>
      <point x="239" y="0"/>
    </contour>
    <contour>
      <point x="229" y="317" type="curve" smooth="yes"/>
      <point x="341" y="317"/>
      <point x="397" y="375"/>
      <point x="397" y="477" type="curve" smooth="yes"/>
      <point x="397" y="507" type="line" smooth="yes"/>
      <point x="397" y="609"/>
      <point x="342" y="667"/>
      <point x="229" y="667" type="curve" smooth="yes"/>
      <point x="117" y="667"/>
      <point x="60" y="609"/>
      <point x="60" y="507" type="curve" smooth="yes"/>
      <point x="60" y="477" type="line" smooth="yes"/>
      <point x="60" y="375"/>
      <point x="116" y="317"/>
    </contour>
    <contour>
      <point x="229" y="381" type="curve" smooth="yes"/>
      <point x="163" y="381"/>
      <point x="135" y="408"/>
      <point x="135" y="475" type="curve" smooth="yes"/>
      <point x="135" y="509" type="line" smooth="yes"/>
      <point x="135" y="576"/>
      <point x="164" y="603"/>
      <point x="229" y="603" type="curve" smooth="yes"/>
      <point x="294" y="603"/>
      <point x="322" y="577"/>
      <point x="322" y="509" type="curve" smooth="yes"/>
      <point x="322" y="475" type="line" smooth="yes"/>
      <point x="322" y="408"/>
      <point x="294" y="381"/>
    </contour>
    <contour>
      <point x="713" y="-12" type="curve" smooth="yes"/>
      <point x="825" y="-12"/>
      <point x="882" y="46"/>
      <point x="882" y="148" type="curve" smooth="yes"/>
      <point x="882" y="178" type="line" smooth="yes"/>
      <point x="882" y="280"/>
      <point x="826" y="338"/>
      <point x="713" y="338" type="curve" smooth="yes"/>
      <point x="601" y="338"/>
      <point x="545" y="280"/>
      <point x="545" y="178" type="curve" smooth="yes"/>
      <point x="545" y="148" type="line" smooth="yes"/>
      <point x="545" y="46"/>
      <point x="600" y="-12"/>
    </contour>
    <contour>
      <point x="713" y="52" type="curve" smooth="yes"/>
      <point x="648" y="52"/>
      <point x="620" y="78"/>
      <point x="620" y="146" type="curve" smooth="yes"/>
      <point x="620" y="180" type="line" smooth="yes"/>
      <point x="620" y="247"/>
      <point x="648" y="274"/>
      <point x="713" y="274" type="curve" smooth="yes"/>
      <point x="779" y="274"/>
      <point x="807" y="247"/>
      <point x="807" y="180" type="curve" smooth="yes"/>
      <point x="807" y="146" type="line" smooth="yes"/>
      <point x="807" y="79"/>
      <point x="778" y="52"/>
    </contour>
  </outline>
</glyph>
<glyph name="ampersand" format="2">
  <advance width="672"/>
  <unicode hex="0026"/>
  <outline>
    <contour>
      <point x="556" y="0" type="curve" smooth="yes"/>
      <point x="647" y="0" type="line" smooth="yes"/>
      <point x="656" y="0"/>
      <point x="658" y="7"/>
      <point x="652" y="13" type="curve" smooth="yes"/>
      <point x="252" y="398" type="line" smooth="yes"/>
      <point x="198" y="450"/>
      <point x="175" y="486"/>
      <point x="175" y="526" type="curve" smooth="yes"/>
      <point x="175" y="568"/>
      <point x="196" y="594"/>
      <point x="247" y="594" type="curve" smooth="yes"/>
      <point x="296" y="594"/>
      <point x="316" y="573"/>
      <point x="316" y="532" type="curve" smooth="yes"/>
      <point x="316" y="492"/>
      <point x="285" y="453"/>
      <point x="215" y="399" type="curve"/>
      <point x="268" y="350" type="line"/>
      <point x="355" y="418"/>
      <point x="398" y="470"/>
      <point x="398" y="532" type="curve" smooth="yes"/>
      <point x="398" y="618"/>
      <point x="342" y="667"/>
      <point x="252" y="667" type="curve" smooth="yes"/>
      <point x="152" y="667"/>
      <point x="93" y="623"/>
      <point x="93" y="525" type="curve" smooth="yes"/>
      <point x="93" y="468"/>
      <point x="123" y="413"/>
      <point x="187" y="351" type="curve" smooth="yes"/>
      <point x="543" y="5" type="line" smooth="yes"/>
      <point x="546" y="2"/>
      <point x="551" y="0"/>
    </contour>
    <contour>
      <point x="254" y="-12" type="curve" smooth="yes"/>
      <point x="468" y="-12"/>
      <point x="569" y="128"/>
      <point x="569" y="354" type="curve" smooth="yes"/>
      <point x="569" y="360"/>
      <point x="565" y="364"/>
      <point x="559" y="364" type="curve" smooth="yes"/>
      <point x="496" y="364" type="line" smooth="yes"/>
      <point x="490" y="364"/>
      <point x="486" y="360"/>
      <point x="486" y="354" type="curve" smooth="yes"/>
      <point x="486" y="176"/>
      <point x="431" y="63"/>
      <point x="263" y="63" type="curve" smooth="yes"/>
      <point x="177" y="63"/>
      <point x="132" y="108"/>
      <point x="132" y="166" type="curve" smooth="yes"/>
      <point x="132" y="229"/>
      <point x="157" y="264"/>
      <point x="244" y="332" type="curve"/>
      <point x="186" y="378" type="line"/>
      <point x="107" y="319"/>
      <point x="50" y="258"/>
      <point x="50" y="164" type="curve" smooth="yes"/>
      <point x="50" y="65"/>
      <point x="114" y="-12"/>
    </contour>
  </outline>
</glyph>
<glyph name="quotesingle" format="2">
  <advance width="185"/>
  <unicode hex="0027"/>
  <outline>
    <contour>
      <point x="60" y="429" type="curve" smooth="yes"/>
      <point x="125" y="429" type="line" smooth="yes"/>
      <point x="131" y="429"/>
      <point x="135" y="433"/>
      <point x="135" y="439" type="curve" smooth="yes"/>
      <point x="135" y="673" type="line" smooth="yes"/>
      <point x="135" y="679"/>
      <point x="131" y="683"/>
      <point x="125" y="683" type="curve" smooth="yes"/>
      <point x="60" y="683" type="line" smooth="yes"/>
      <point x="54" y="683"/>
      <point x="50" y="679"/>
      <point x="50" y="673" type="curve" smooth="yes"/>
      <point x="50" y="439" type="line" smooth="yes"/>
      <point x="50" y="433"/>
      <point x="54" y="429"/>
    </contour>
  </outline>
</glyph>
<glyph name="parenleft" format="2">
  <advance width="270"/>
  <unicode hex="0028"/>
  <outline>
    <contour>
      <point x="168" y="-140" type="curve" smooth="yes"/>
      <point x="173" y="-144"/>
      <point x="178" y="-144"/>
      <point x="182" y="-140" type="curve" smooth="yes"/>
      <point x="223" y="-99" type="line" smooth="yes"/>
      <point x="227" y="-95"/>
      <point x="227" y="-90"/>
      <point x="223" y="-85" type="curve" smooth="yes"/>
      <point x="181" y="-33"/>
      <point x="160" y="-15"/>
      <point x="160" y="54" type="curve" smooth="yes"/>
      <point x="160" y="502" type="line" smooth="yes"/>
      <point x="160" y="571"/>
      <point x="177" y="595"/>
      <point x="223" y="641" type="curve" smooth="yes"/>
      <point x="228" y="646"/>
      <point x="227" y="651"/>
      <point x="223" y="655" type="curve" smooth="yes"/>
      <point x="182" y="696" type="line" smooth="yes"/>
      <point x="178" y="700"/>
      <point x="172" y="700"/>
      <point x="168" y="696" type="curve" smooth="yes"/>
      <point x="103" y="631"/>
      <point x="75" y="593"/>
      <point x="75" y="502" type="curve" smooth="yes"/>
      <point x="75" y="54" type="line" smooth="yes"/>
      <point x="75" y="-37"/>
      <point x="96" y="-82"/>
    </contour>
  </outline>
</glyph>
<glyph name="parenright" format="2">
  <advance width="270"/>
  <unicode hex="0029"/>
  <outline>
    <contour>
      <point x="88" y="-140" type="line" smooth="yes"/>
      <point x="92" y="-144"/>
      <point x="97" y="-144"/>
      <point x="102" y="-140" type="curve" smooth="yes"/>
      <point x="174" y="-82"/>
      <point x="195" y="-37"/>
      <point x="195" y="54" type="curve" smooth="yes"/>
      <point x="195" y="502" type="line" smooth="yes"/>
      <point x="195" y="593"/>
      <point x="171" y="635"/>
      <point x="102" y="696" type="curve" smooth="yes"/>
      <point x="98" y="700"/>
      <point x="92" y="700"/>
      <point x="88" y="696" type="curve" smooth="yes"/>
      <point x="47" y="655" type="line" smooth="yes"/>
      <point x="43" y="651"/>
      <point x="42" y="646"/>
      <point x="47" y="641" type="curve" smooth="yes"/>
      <point x="93" y="595"/>
      <point x="110" y="571"/>
      <point x="110" y="502" type="curve" smooth="yes"/>
      <point x="110" y="54" type="line" smooth="yes"/>
      <point x="110" y="-15"/>
      <point x="92" y="-36"/>
      <point x="47" y="-85" type="curve" smooth="yes"/>
      <point x="43" y="-90"/>
      <point x="43" y="-95"/>
      <point x="47" y="-99" type="curve" smooth="yes"/>
    </contour>
  </outline>
</glyph>
<glyph name="asterisk" format="2">
  <advance width="414"/>
  <unicode hex="002A"/>
  <outline>
    <contour>
      <point x="141" y="416" type="line" smooth="yes"/>
      <point x="146" y="412"/>
      <point x="150" y="413"/>
      <point x="154" y="419" type="curve" smooth="yes"/>
      <point x="206" y="507" type="line"/>
      <point x="258" y="420" type="line" smooth="yes"/>
      <point x="262" y="413"/>
      <point x="267" y="414"/>
      <point x="271" y="417" type="curve" smooth="yes"/>
      <point x="311" y="446" type="line" smooth="yes"/>
      <point x="316" y="450"/>
      <point x="318" y="454"/>
      <point x="313" y="460" type="curve" smooth="yes"/>
      <point x="246" y="536" type="line"/>
      <point x="347" y="559" type="line" smooth="yes"/>
      <point x="353" y="560"/>
      <point x="356" y="563"/>
      <point x="353" y="571" type="curve" smooth="yes"/>
      <point x="337" y="617" type="line" smooth="yes"/>
      <point x="335" y="624"/>
      <point x="329" y="625"/>
      <point x="324" y="623" type="curve" smooth="yes"/>
      <point x="231" y="583" type="line"/>
      <point x="240" y="685" type="line" smooth="yes"/>
      <point x="241" y="691"/>
      <point x="236" y="695"/>
      <point x="231" y="695" type="curve" smooth="yes"/>
      <point x="182" y="695" type="line" smooth="yes"/>
      <point x="177" y="695"/>
      <point x="172" y="691"/>
      <point x="173" y="685" type="curve" smooth="yes"/>
      <point x="182" y="584" type="line"/>
      <point x="90" y="623" type="line" smooth="yes"/>
      <point x="84" y="626"/>
      <point x="79" y="624"/>
      <point x="77" y="617" type="curve" smooth="yes"/>
      <point x="61" y="571" type="line" smooth="yes"/>
      <point x="59" y="566"/>
      <point x="59" y="560"/>
      <point x="67" y="559" type="curve" smooth="yes"/>
      <point x="167" y="537" type="line"/>
      <point x="100" y="460" type="line" smooth="yes"/>
      <point x="96" y="456"/>
      <point x="96" y="450"/>
      <point x="101" y="446" type="curve" smooth="yes"/>
    </contour>
  </outline>
</glyph>
<glyph name="plus" format="2">
  <advance width="600"/>
  <unicode hex="002B"/>
  <outline>
    <contour>
      <point x="272" y="113" type="curve" smooth="yes"/>
      <point x="328" y="113" type="line" smooth="yes"/>
      <point x="334" y="113"/>
      <point x="338" y="117"/>
      <point x="338" y="123" type="curve" smooth="yes"/>
      <point x="338" y="265" type="line"/>
      <point x="498" y="265" type="line" smooth="yes"/>
      <point x="504" y="265"/>
      <point x="508" y="269"/>
      <point x="508" y="275" type="curve" smooth="yes"/>
      <point x="508" y="326" type="line" smooth="yes"/>
      <point x="508" y="332"/>
      <point x="504" y="336"/>
      <point x="498" y="336" type="curve" smooth="yes"/>
      <point x="338" y="336" type="line"/>
      <point x="338" y="478" type="line" smooth="yes"/>
      <point x="338" y="484"/>
      <point x="334" y="488"/>
      <point x="328" y="488" type="curve" smooth="yes"/>
      <point x="272" y="488" type="line" smooth="yes"/>
      <point x="266" y="488"/>
      <point x="262" y="484"/>
      <point x="262" y="478" type="curve" smooth="yes"/>
      <point x="262" y="336" type="line"/>
      <point x="102" y="336" type="line" smooth="yes"/>
      <point x="96" y="336"/>
      <point x="92" y="332"/>
      <point x="92" y="326" type="curve" smooth="yes"/>
      <point x="92" y="275" type="line" smooth="yes"/>
      <point x="92" y="269"/>
      <point x="96" y="265"/>
      <point x="102" y="265" type="curve" smooth="yes"/>
      <point x="262" y="265" type="line"/>
      <point x="262" y="123" type="line" smooth="yes"/>
      <point x="262" y="117"/>
      <point x="266" y="113"/>
    </contour>
  </outline>
</glyph>
<glyph name="comma" format="2">
  <advance width="232"/>
  <unicode hex="002C"/>
  <outline>
    <contour>
      <point x="40" y="-128" type="curve" smooth="yes"/>
      <point x="94" y="-128" type="line" smooth="yes"/>
      <point x="98" y="-128"/>
      <point x="101" y="-126"/>
      <point x="103" y="-121" type="curve" smooth="yes"/>
      <point x="175" y="91" type="line" smooth="yes"/>
      <point x="178" y="99"/>
      <point x="175" y="105"/>
      <point x="167" y="105" type="curve" smooth="yes"/>
      <point x="91" y="105" type="line" smooth="yes"/>
      <point x="86" y="105"/>
      <point x="82" y="101"/>
      <point x="81" y="96" type="curve" smooth="yes"/>
      <point x="31" y="-115" type="line" smooth="yes"/>
      <point x="29" y="-123"/>
      <point x="32" y="-128"/>
    </contour>
  </outline>
</glyph>
<glyph name="hyphen" format="2">
  <advance width="490"/>
  <unicode hex="002D"/>
  <outline>
    <contour>
      <point x="80" y="233" type="curve" smooth="yes"/>
      <point x="410" y="233" type="line" smooth="yes"/>
      <point x="416" y="233"/>
      <point x="420" y="237"/>
      <point x="420" y="243" type="curve" smooth="yes"/>
      <point x="420" y="288" type="line" smooth="yes"/>
      <point x="420" y="294"/>
      <point x="416" y="298"/>
      <point x="410" y="298" type="curve" smooth="yes"/>
      <point x="80" y="298" type="line" smooth="yes"/>
      <point x="74" y="298"/>
      <point x="70" y="294"/>
      <point x="70" y="288" type="curve" smooth="yes"/>
      <point x="70" y="243" type="line" smooth="yes"/>
      <point x="70" y="237"/>
      <point x="74" y="233"/>
    </contour>
  </outline>
</glyph>
<glyph name="period" format="2">
  <advance width="232"/>
  <unicode hex="002E"/>
  <outline>
    <contour>
      <point x="116" y="-12" type="curve" smooth="yes"/>
      <point x="156" y="-12"/>
      <point x="172" y="11"/>
      <point x="172" y="44" type="curve" smooth="yes"/>
      <point x="172" y="54" type="line" smooth="yes"/>
      <point x="172" y="87"/>
      <point x="156" y="110"/>
      <point x="116" y="110" type="curve" smooth="yes"/>
      <point x="76" y="110"/>
      <point x="60" y="87"/>
      <point x="60" y="54" type="curve" smooth="yes"/>
      <point x="60" y="44" type="line" smooth="yes"/>
      <point x="60" y="11"/>
      <point x="76" y="-12"/>
    </contour>
  </outline>
</glyph>
<glyph name="slash" format="2">
  <advance width="372"/>
  <unicode hex="002F"/>
  <outline>
    <contour>
      <point x="22" y="0" type="curve" smooth="yes"/>
      <point x="84" y="0" type="line" smooth="yes"/>
      <point x="90" y="0"/>
      <point x="94" y="3"/>
      <point x="96" y="8" type="curve" smooth="yes"/>
      <point x="359" y="644" type="line" smooth="yes"/>
      <point x="362" y="651"/>
      <point x="357" y="655"/>
      <point x="350" y="655" type="curve" smooth="yes"/>
      <point x="288" y="655" type="line" smooth="yes"/>
      <point x="282" y="655"/>
      <point x="278" y="652"/>
      <point x="276" y="647" type="curve" smooth="yes"/>
      <point x="13" y="11" type="line" smooth="yes"/>
      <point x="10" y="4"/>
      <point x="15" y="0"/>
    </contour>
  </outline>
</glyph>
<glyph name="zero" format="2">
  <advance width="580"/>
  <unicode hex="0030"/>
  <outline>
    <contour>
      <point x="290" y="-12" type="curve" smooth="yes"/>
      <point x="430" y="-12"/>
      <point x="513" y="72"/>
      <point x="513" y="215" type="curve" smooth="yes"/>
      <point x="513" y="440" type="line" smooth="yes"/>
      <point x="513" y="583"/>
      <point x="430" y="667"/>
      <point x="290" y="667" type="curve" smooth="yes"/>
      <point x="150" y="667"/>
      <point x="67" y="583"/>
      <point x="67" y="440" type="curve" smooth="yes"/>
      <point x="67" y="215" type="line" smooth="yes"/>
      <point x="67" y="72"/>
      <point x="150" y="-12"/>
    </contour>
    <contour>
      <point x="290" y="63" type="curve" smooth="yes"/>
      <point x="203" y="63"/>
      <point x="152" y="117"/>
      <point x="152" y="207" type="curve" smooth="yes"/>
      <point x="152" y="448" type="line" smooth="yes"/>
      <point x="152" y="538"/>
      <point x="203" y="592"/>
      <point x="290" y="592" type="curve" smooth="yes"/>
      <point x="376" y="592"/>
      <point x="428" y="538"/>
      <point x="428" y="448" type="curve" smooth="yes"/>
      <point x="428" y="207" type="line" smooth="yes"/>
      <point x="428" y="117"/>
      <point x="376" y="63"/>
    </contour>
  </outline>
</glyph>
<glyph name="one" format="2">
  <advance width="454"/>
  <unicode hex="0031"/>
  <outline>
    <contour>
      <point x="50" y="0" type="curve" smooth="yes"/>
      <point x="429" y="0" type="line" smooth="yes"/>
      <point x="435" y="0"/>
      <point x="439" y="4"/>
      <point x="439" y="10" type="curve" smooth="yes"/>
      <point x="439" y="67" type="line" smooth="yes"/>
      <point x="439" y="73"/>
      <point x="435" y="77"/>
      <point x="429" y="77" type="curve" smooth="yes"/>
      <point x="291" y="77" type="line"/>
      <point x="291" y="649" type="line" smooth="yes"/>
      <point x="291" y="655"/>
      <point x="287" y="659"/>
      <point x="281" y="659" type="curve" smooth="yes"/>
      <point x="275" y="659" type="line" smooth="yes"/>
      <point x="270" y="659"/>
      <point x="265" y="658"/>
      <point x="261" y="657" type="curve" smooth="yes"/>
      <point x="52" y="587" type="line" smooth="yes"/>
      <point x="47" y="585"/>
      <point x="46" y="583"/>
      <point x="46" y="577" type="curve" smooth="yes"/>
      <point x="46" y="518" type="line" smooth="yes"/>
      <point x="46" y="511"/>
      <point x="49" y="509"/>
      <point x="56" y="511" type="curve" smooth="yes"/>
      <point x="206" y="558" type="line"/>
      <point x="206" y="77" type="line"/>
      <point x="50" y="77" type="line" smooth="yes"/>
      <point x="44" y="77"/>
      <point x="40" y="73"/>
      <point x="40" y="67" type="curve" smooth="yes"/>
      <point x="40" y="10" type="line" smooth="yes"/>
      <point x="40" y="4"/>
      <point x="44" y="0"/>
    </contour>
  </outline>
</glyph>
<glyph name="two" format="2">
  <advance width="540"/>
  <unicode hex="0032"/>
  <guideline x="69" y="422" angle="90"/>
  <guideline x="479" y="417" angle="90"/>
  <outline>
    <contour>
      <point x="80" y="0" type="curve" smooth="yes"/>
      <point x="466" y="0" type="line" smooth="yes"/>
      <point x="472" y="0"/>
      <point x="476" y="4"/>
      <point x="476" y="10" type="curve" smooth="yes"/>
      <point x="476" y="67" type="line" smooth="yes"/>
      <point x="476" y="73"/>
      <point x="472" y="77"/>
      <point x="466" y="77" type="curve" smooth="yes"/>
      <point x="158" y="77" type="line"/>
      <point x="158" y="277"/>
      <point x="479" y="257"/>
      <point x="479" y="502" type="curve" smooth="yes"/>
      <point x="479" y="610"/>
      <point x="415" y="667"/>
      <point x="283" y="667" type="curve" smooth="yes"/>
      <point x="142" y="667"/>
      <point x="74" y="605"/>
      <point x="74" y="493" type="curve" smooth="yes"/>
      <point x="74" y="487"/>
      <point x="78" y="483"/>
      <point x="84" y="483" type="curve" smooth="yes"/>
      <point x="149" y="483" type="line" smooth="yes"/>
      <point x="155" y="483"/>
      <point x="158" y="487"/>
      <point x="158" y="493" type="curve" smooth="yes"/>
      <point x="158" y="556"/>
      <point x="195" y="592"/>
      <point x="274" y="592" type="curve" smooth="yes"/>
      <point x="352" y="592"/>
      <point x="394" y="563"/>
      <point x="394" y="506" type="curve" smooth="yes"/>
      <point x="394" y="485" type="line" smooth="yes"/>
      <point x="394" y="331"/>
      <point x="70" y="304"/>
      <point x="70" y="79" type="curve" smooth="yes"/>
      <point x="70" y="10" type="line" smooth="yes"/>
      <point x="70" y="4"/>
      <point x="74" y="0"/>
    </contour>
  </outline>
</glyph>
<glyph name="three" format="2">
  <advance width="548"/>
  <unicode hex="0033"/>
  <guideline x="488" y="561" angle="90"/>
  <outline>
    <contour>
      <point x="263" y="-12" type="curve" smooth="yes"/>
      <point x="408" y="-12"/>
      <point x="488" y="56"/>
      <point x="488" y="180" type="curve" smooth="yes"/>
      <point x="488" y="264"/>
      <point x="452" y="315"/>
      <point x="375" y="341" type="curve"/>
      <point x="375" y="343" type="line"/>
      <point x="433" y="361"/>
      <point x="472" y="415"/>
      <point x="472" y="500" type="curve" smooth="yes"/>
      <point x="472" y="614"/>
      <point x="408" y="667"/>
      <point x="272" y="667" type="curve" smooth="yes"/>
      <point x="131" y="667"/>
      <point x="61" y="609"/>
      <point x="61" y="493" type="curve" smooth="yes"/>
      <point x="61" y="487"/>
      <point x="65" y="483"/>
      <point x="71" y="483" type="curve" smooth="yes"/>
      <point x="135" y="483" type="line" smooth="yes"/>
      <point x="141" y="483"/>
      <point x="145" y="487"/>
      <point x="145" y="493" type="curve" smooth="yes"/>
      <point x="145" y="562"/>
      <point x="184" y="592"/>
      <point x="265" y="592" type="curve" smooth="yes"/>
      <point x="346" y="592"/>
      <point x="387" y="563"/>
      <point x="387" y="505" type="curve" smooth="yes"/>
      <point x="387" y="479" type="line" smooth="yes"/>
      <point x="387" y="410"/>
      <point x="345" y="373"/>
      <point x="267" y="373" type="curve" smooth="yes"/>
      <point x="179" y="373" type="line" smooth="yes"/>
      <point x="173" y="373"/>
      <point x="169" y="369"/>
      <point x="169" y="363" type="curve" smooth="yes"/>
      <point x="169" y="309" type="line" smooth="yes"/>
      <point x="169" y="303"/>
      <point x="173" y="299"/>
      <point x="179" y="299" type="curve" smooth="yes"/>
      <point x="266" y="299" type="line" smooth="yes"/>
      <point x="356" y="299"/>
      <point x="403" y="264"/>
      <point x="403" y="197" type="curve" smooth="yes"/>
      <point x="403" y="171" type="line" smooth="yes"/>
      <point x="403" y="103"/>
      <point x="351" y="63"/>
      <point x="261" y="63" type="curve" smooth="yes"/>
      <point x="183" y="63"/>
      <point x="144" y="98"/>
      <point x="144" y="162" type="curve" smooth="yes"/>
      <point x="144" y="168"/>
      <point x="140" y="172"/>
      <point x="134" y="172" type="curve" smooth="yes"/>
      <point x="70" y="172" type="line" smooth="yes"/>
      <point x="64" y="172"/>
      <point x="60" y="168"/>
      <point x="60" y="162" type="curve" smooth="yes"/>
      <point x="60" y="57"/>
      <point x="128" y="-12"/>
    </contour>
  </outline>
</glyph>
<glyph name="four" format="2">
  <advance width="542"/>
  <unicode hex="0034"/>
  <outline>
    <contour>
      <point x="360" y="0" type="curve" smooth="yes"/>
      <point x="422" y="0" type="line" smooth="yes"/>
      <point x="428" y="0"/>
      <point x="432" y="4"/>
      <point x="432" y="10" type="curve" smooth="yes"/>
      <point x="432" y="129" type="line"/>
      <point x="508" y="129" type="line" smooth="yes"/>
      <point x="514" y="129"/>
      <point x="518" y="133"/>
      <point x="518" y="139" type="curve" smooth="yes"/>
      <point x="518" y="196" type="line" smooth="yes"/>
      <point x="518" y="202"/>
      <point x="514" y="206"/>
      <point x="508" y="206" type="curve" smooth="yes"/>
      <point x="432" y="206" type="line"/>
      <point x="432" y="425" type="line" smooth="yes"/>
      <point x="432" y="431"/>
      <point x="428" y="435"/>
      <point x="422" y="435" type="curve" smooth="yes"/>
      <point x="361" y="435" type="line" smooth="yes"/>
      <point x="355" y="435"/>
      <point x="351" y="431"/>
      <point x="351" y="425" type="curve" smooth="yes"/>
      <point x="351" y="206" type="line"/>
      <point x="126" y="206" type="line"/>
      <point x="368" y="644" type="line" smooth="yes"/>
      <point x="372" y="651"/>
      <point x="368" y="655"/>
      <point x="361" y="655" type="curve" smooth="yes"/>
      <point x="295" y="655" type="line" smooth="yes"/>
      <point x="289" y="655"/>
      <point x="286" y="653"/>
      <point x="282" y="647" type="curve" smooth="yes"/>
      <point x="13" y="159" type="line" smooth="yes"/>
      <point x="10" y="154"/>
      <point x="10" y="151"/>
      <point x="10" y="145" type="curve" smooth="yes"/>
      <point x="10" y="139" type="line" smooth="yes"/>
      <point x="10" y="133"/>
      <point x="14" y="129"/>
      <point x="20" y="129" type="curve" smooth="yes"/>
      <point x="350" y="129" type="line"/>
      <point x="350" y="10" type="line" smooth="yes"/>
      <point x="350" y="4"/>
      <point x="354" y="0"/>
    </contour>
  </outline>
</glyph>
<glyph name="five" format="2">
  <advance width="522"/>
  <unicode hex="0035"/>
  <outline>
    <contour>
      <point x="244" y="-12" type="curve" smooth="yes"/>
      <point x="392" y="-12"/>
      <point x="472" y="64"/>
      <point x="472" y="206" type="curve" smooth="yes"/>
      <point x="472" y="344"/>
      <point x="396" y="416"/>
      <point x="271" y="416" type="curve" smooth="yes"/>
      <point x="241" y="416"/>
      <point x="205" y="412"/>
      <point x="162" y="402" type="curve"/>
      <point x="175" y="578" type="line"/>
      <point x="424" y="578" type="line" smooth="yes"/>
      <point x="430" y="578"/>
      <point x="434" y="582"/>
      <point x="434" y="588" type="curve" smooth="yes"/>
      <point x="434" y="645" type="line" smooth="yes"/>
      <point x="434" y="651"/>
      <point x="430" y="655"/>
      <point x="424" y="655" type="curve" smooth="yes"/>
      <point x="110" y="655" type="line" smooth="yes"/>
      <point x="105" y="655"/>
      <point x="101" y="652"/>
      <point x="100" y="645" type="curve" smooth="yes"/>
      <point x="70" y="317" type="line" smooth="yes"/>
      <point x="69" y="307"/>
      <point x="77" y="301"/>
      <point x="88" y="306" type="curve" smooth="yes"/>
      <point x="143" y="331"/>
      <point x="207" y="344"/>
      <point x="249" y="344" type="curve" smooth="yes"/>
      <point x="344" y="344"/>
      <point x="387" y="304"/>
      <point x="387" y="216" type="curve" smooth="yes"/>
      <point x="387" y="186" type="line" smooth="yes"/>
      <point x="387" y="102"/>
      <point x="347" y="63"/>
      <point x="251" y="63" type="curve" smooth="yes"/>
      <point x="173" y="63"/>
      <point x="133" y="97"/>
      <point x="133" y="162" type="curve" smooth="yes"/>
      <point x="133" y="168"/>
      <point x="129" y="172"/>
      <point x="123" y="172" type="curve" smooth="yes"/>
      <point x="60" y="172" type="line" smooth="yes"/>
      <point x="54" y="172"/>
      <point x="50" y="168"/>
      <point x="50" y="162" type="curve" smooth="yes"/>
      <point x="50" y="48"/>
      <point x="119" y="-12"/>
    </contour>
  </outline>
</glyph>
<glyph name="six" format="2">
  <advance width="568"/>
  <unicode hex="0036"/>
  <outline>
    <contour>
      <point x="290" y="-12" type="curve" smooth="yes"/>
      <point x="431" y="-12"/>
      <point x="511" y="75"/>
      <point x="511" y="225" type="curve" smooth="yes"/>
      <point x="511" y="352"/>
      <point x="452" y="417"/>
      <point x="336" y="417" type="curve" smooth="yes"/>
      <point x="265" y="417"/>
      <point x="199" y="392"/>
      <point x="138" y="343" type="curve"/>
      <point x="138" y="271" type="line"/>
      <point x="193" y="317"/>
      <point x="257" y="343"/>
      <point x="315" y="343" type="curve" smooth="yes"/>
      <point x="388" y="343"/>
      <point x="426" y="306"/>
      <point x="426" y="234" type="curve" smooth="yes"/>
      <point x="426" y="206" type="line" smooth="yes"/>
      <point x="426" y="116"/>
      <point x="376" y="63"/>
      <point x="289" y="63" type="curve" smooth="yes"/>
      <point x="204" y="63"/>
      <point x="152" y="116"/>
      <point x="152" y="204" type="curve" smooth="yes"/>
      <point x="152" y="458" type="line" smooth="yes"/>
      <point x="152" y="549"/>
      <point x="201" y="592"/>
      <point x="298" y="592" type="curve" smooth="yes"/>
      <point x="366" y="592"/>
      <point x="408" y="568"/>
      <point x="408" y="530" type="curve" smooth="yes"/>
      <point x="408" y="524"/>
      <point x="412" y="520"/>
      <point x="418" y="520" type="curve" smooth="yes"/>
      <point x="482" y="520" type="line" smooth="yes"/>
      <point x="488" y="520"/>
      <point x="492" y="524"/>
      <point x="492" y="530" type="curve" smooth="yes"/>
      <point x="492" y="616"/>
      <point x="416" y="667"/>
      <point x="297" y="667" type="curve" smooth="yes"/>
      <point x="150" y="667"/>
      <point x="67" y="588"/>
      <point x="67" y="455" type="curve" smooth="yes"/>
      <point x="67" y="203" type="line" smooth="yes"/>
      <point x="67" y="63"/>
      <point x="150" y="-12"/>
    </contour>
  </outline>
</glyph>
<glyph name="seven" format="2">
  <advance width="529"/>
  <unicode hex="0037"/>
  <outline>
    <contour>
      <point x="150" y="0" type="curve" smooth="yes"/>
      <point x="218" y="0" type="line" smooth="yes"/>
      <point x="224" y="0"/>
      <point x="229" y="3"/>
      <point x="232" y="9" type="curve" smooth="yes"/>
      <point x="511" y="625" type="line" smooth="yes"/>
      <point x="513" y="630"/>
      <point x="514" y="634"/>
      <point x="514" y="640" type="curve" smooth="yes"/>
      <point x="514" y="645" type="line" smooth="yes"/>
      <point x="514" y="651"/>
      <point x="510" y="655"/>
      <point x="504" y="655" type="curve" smooth="yes"/>
      <point x="65" y="655" type="line" smooth="yes"/>
      <point x="59" y="655"/>
      <point x="55" y="651"/>
      <point x="55" y="645" type="curve" smooth="yes"/>
      <point x="55" y="496" type="line" smooth="yes"/>
      <point x="55" y="490"/>
      <point x="59" y="486"/>
      <point x="65" y="486" type="curve" smooth="yes"/>
      <point x="129" y="486" type="line" smooth="yes"/>
      <point x="135" y="486"/>
      <point x="139" y="490"/>
      <point x="139" y="496" type="curve" smooth="yes"/>
      <point x="139" y="578" type="line"/>
      <point x="401" y="578" type="line"/>
      <point x="143" y="12" type="line" smooth="yes"/>
      <point x="140" y="5"/>
      <point x="143" y="0"/>
    </contour>
  </outline>
</glyph>
<glyph name="eight" format="2">
  <advance width="576"/>
  <unicode hex="0038"/>
  <guideline x="55" y="520" angle="90"/>
  <outline>
    <contour>
      <point x="288" y="-12" type="curve" smooth="yes"/>
      <point x="436" y="-12"/>
      <point x="521" y="49"/>
      <point x="521" y="176" type="curve" smooth="yes"/>
      <point x="521" y="262"/>
      <point x="477" y="323"/>
      <point x="408" y="349" type="curve"/>
      <point x="465" y="376"/>
      <point x="493" y="416"/>
      <point x="493" y="496" type="curve" smooth="yes"/>
      <point x="493" y="601"/>
      <point x="420" y="667"/>
      <point x="288" y="667" type="curve" smooth="yes"/>
      <point x="156" y="667"/>
      <point x="83" y="601"/>
      <point x="83" y="496" type="curve" smooth="yes"/>
      <point x="83" y="416"/>
      <point x="111" y="376"/>
      <point x="168" y="349" type="curve"/>
      <point x="99" y="323"/>
      <point x="55" y="262"/>
      <point x="55" y="176" type="curve" smooth="yes"/>
      <point x="55" y="49"/>
      <point x="140" y="-12"/>
    </contour>
    <contour>
      <point x="288" y="60" type="curve" smooth="yes"/>
      <point x="189" y="60"/>
      <point x="140" y="100"/>
      <point x="140" y="171" type="curve" smooth="yes"/>
      <point x="140" y="188" type="line" smooth="yes"/>
      <point x="140" y="269"/>
      <point x="196" y="316"/>
      <point x="288" y="316" type="curve" smooth="yes"/>
      <point x="380" y="316"/>
      <point x="436" y="269"/>
      <point x="436" y="188" type="curve" smooth="yes"/>
      <point x="436" y="171" type="line" smooth="yes"/>
      <point x="436" y="100"/>
      <point x="387" y="60"/>
    </contour>
    <contour>
      <point x="288" y="382" type="curve" smooth="yes"/>
      <point x="211" y="382"/>
      <point x="168" y="420"/>
      <point x="168" y="483" type="curve" smooth="yes"/>
      <point x="168" y="498" type="line" smooth="yes"/>
      <point x="168" y="557"/>
      <point x="210" y="595"/>
      <point x="288" y="595" type="curve" smooth="yes"/>
      <point x="366" y="595"/>
      <point x="408" y="557"/>
      <point x="408" y="498" type="curve" smooth="yes"/>
      <point x="408" y="483" type="line" smooth="yes"/>
      <point x="408" y="420"/>
      <point x="365" y="382"/>
    </contour>
  </outline>
</glyph>
<glyph name="nine" format="2">
  <advance width="580"/>
  <unicode hex="0039"/>
  <outline>
    <contour>
      <point x="282" y="-12" type="curve" smooth="yes"/>
      <point x="435" y="-12"/>
      <point x="513" y="64"/>
      <point x="513" y="210" type="curve" smooth="yes"/>
      <point x="513" y="445" type="line" smooth="yes"/>
      <point x="513" y="584"/>
      <point x="430" y="667"/>
      <point x="287" y="667" type="curve" smooth="yes"/>
      <point x="145" y="667"/>
      <point x="67" y="586"/>
      <point x="67" y="437" type="curve" smooth="yes"/>
      <point x="67" y="305"/>
      <point x="133" y="234"/>
      <point x="257" y="234" type="curve" smooth="yes"/>
      <point x="325" y="234"/>
      <point x="379" y="255"/>
      <point x="443" y="309" type="curve"/>
      <point x="442" y="381" type="line"/>
      <point x="386" y="332"/>
      <point x="328" y="308"/>
      <point x="269" y="308" type="curve" smooth="yes"/>
      <point x="195" y="308"/>
      <point x="152" y="347"/>
      <point x="152" y="413" type="curve" smooth="yes"/>
      <point x="152" y="451" type="line" smooth="yes"/>
      <point x="152" y="542"/>
      <point x="199" y="592"/>
      <point x="286" y="592" type="curve" smooth="yes"/>
      <point x="374" y="592"/>
      <point x="428" y="539"/>
      <point x="428" y="451" type="curve" smooth="yes"/>
      <point x="428" y="205" type="line" smooth="yes"/>
      <point x="428" y="112"/>
      <point x="381" y="63"/>
      <point x="283" y="63" type="curve" smooth="yes"/>
      <point x="204" y="63"/>
      <point x="163" y="107"/>
      <point x="163" y="147" type="curve" smooth="yes"/>
      <point x="163" y="153"/>
      <point x="159" y="157"/>
      <point x="153" y="157" type="curve" smooth="yes"/>
      <point x="89" y="157" type="line" smooth="yes"/>
      <point x="83" y="157"/>
      <point x="79" y="153"/>
      <point x="79" y="147" type="curve" smooth="yes"/>
      <point x="79" y="44"/>
      <point x="152" y="-12"/>
    </contour>
  </outline>
</glyph>
<glyph name="colon" format="2">
  <advance width="232"/>
  <unicode hex="003A"/>
  <outline>
    <contour>
      <point x="116" y="356" type="curve" smooth="yes"/>
      <point x="156" y="356"/>
      <point x="172" y="379"/>
      <point x="172" y="412" type="curve" smooth="yes"/>
      <point x="172" y="422" type="line" smooth="yes"/>
      <point x="172" y="455"/>
      <point x="156" y="478"/>
      <point x="116" y="478" type="curve" smooth="yes"/>
      <point x="76" y="478"/>
      <point x="60" y="455"/>
      <point x="60" y="422" type="curve" smooth="yes"/>
      <point x="60" y="412" type="line" smooth="yes"/>
      <point x="60" y="379"/>
      <point x="76" y="356"/>
    </contour>
    <contour>
      <point x="116" y="-12" type="curve" smooth="yes"/>
      <point x="156" y="-12"/>
      <point x="172" y="11"/>
      <point x="172" y="44" type="curve" smooth="yes"/>
      <point x="172" y="54" type="line" smooth="yes"/>
      <point x="172" y="87"/>
      <point x="156" y="110"/>
      <point x="116" y="110" type="curve" smooth="yes"/>
      <point x="76" y="110"/>
      <point x="60" y="87"/>
      <point x="60" y="54" type="curve" smooth="yes"/>
      <point x="60" y="44" type="line" smooth="yes"/>
      <point x="60" y="11"/>
      <point x="76" y="-12"/>
    </contour>
  </outline>
</glyph>
<glyph name="semicolon" format="2">
  <advance width="236"/>
  <unicode hex="003B"/>
  <outline>
    <contour>
      <point x="24" y="-128" type="curve" smooth="yes"/>
      <point x="76" y="-128" type="line" smooth="yes"/>
      <point x="80" y="-128"/>
      <point x="83" y="-126"/>
      <point x="85" y="-121" type="curve" smooth="yes"/>
      <point x="157" y="91" type="line" smooth="yes"/>
      <point x="159" y="98"/>
      <point x="154" y="105"/>
      <point x="147" y="105" type="curve" smooth="yes"/>
      <point x="72" y="105" type="line" smooth="yes"/>
      <point x="68" y="105"/>
      <point x="64" y="101"/>
      <point x="63" y="97" type="curve" smooth="yes"/>
      <point x="13" y="-115" type="line" smooth="yes"/>
      <point x="11" y="-122"/>
      <point x="17" y="-128"/>
    </contour>
    <contour>
      <point x="120" y="356" type="curve" smooth="yes"/>
      <point x="160" y="356"/>
      <point x="176" y="379"/>
      <point x="176" y="412" type="curve" smooth="yes"/>
      <point x="176" y="422" type="line" smooth="yes"/>
      <point x="176" y="455"/>
      <point x="160" y="478"/>
      <point x="120" y="478" type="curve" smooth="yes"/>
      <point x="80" y="478"/>
      <point x="64" y="455"/>
      <point x="64" y="422" type="curve" smooth="yes"/>
      <point x="64" y="412" type="line" smooth="yes"/>
      <point x="64" y="379"/>
      <point x="80" y="356"/>
    </contour>
  </outline>
</glyph>
<glyph name="less" format="2">
  <advance width="600"/>
  <unicode hex="003C"/>
  <outline>
    <contour>
      <point x="498" y="103" type="line" smooth="yes"/>
      <point x="505" y="100"/>
      <point x="510" y="104"/>
      <point x="510" y="111" type="curve" smooth="yes"/>
      <point x="510" y="173" type="line" smooth="yes"/>
      <point x="510" y="178"/>
      <point x="507" y="183"/>
      <point x="502" y="185" type="curve" smooth="yes"/>
      <point x="174" y="297" type="line"/>
      <point x="502" y="408" type="line" smooth="yes"/>
      <point x="507" y="410"/>
      <point x="510" y="415"/>
      <point x="510" y="420" type="curve" smooth="yes"/>
      <point x="510" y="482" type="line" smooth="yes"/>
      <point x="510" y="489"/>
      <point x="505" y="493"/>
      <point x="498" y="490" type="curve" smooth="yes"/>
      <point x="98" y="337" type="line" smooth="yes"/>
      <point x="93" y="335"/>
      <point x="90" y="331"/>
      <point x="90" y="326" type="curve" smooth="yes"/>
      <point x="90" y="267" type="line" smooth="yes"/>
      <point x="90" y="262"/>
      <point x="93" y="258"/>
      <point x="98" y="256" type="curve" smooth="yes"/>
    </contour>
  </outline>
</glyph>
<glyph name="equal" format="2">
  <advance width="600"/>
  <unicode hex="003D"/>
  <outline>
    <contour>
      <point x="103" y="351" type="curve" smooth="yes"/>
      <point x="497" y="351" type="line" smooth="yes"/>
      <point x="503" y="351"/>
      <point x="507" y="355"/>
      <point x="507" y="361" type="curve" smooth="yes"/>
      <point x="507" y="411" type="line" smooth="yes"/>
      <point x="507" y="417"/>
      <point x="503" y="421"/>
      <point x="497" y="421" type="curve" smooth="yes"/>
      <point x="103" y="421" type="line" smooth="yes"/>
      <point x="97" y="421"/>
      <point x="93" y="417"/>
      <point x="93" y="411" type="curve" smooth="yes"/>
      <point x="93" y="361" type="line" smooth="yes"/>
      <point x="93" y="355"/>
      <point x="97" y="351"/>
    </contour>
    <contour>
      <point x="103" y="180" type="curve" smooth="yes"/>
      <point x="497" y="180" type="line" smooth="yes"/>
      <point x="503" y="180"/>
      <point x="507" y="184"/>
      <point x="507" y="190" type="curve" smooth="yes"/>
      <point x="507" y="240" type="line" smooth="yes"/>
      <point x="507" y="246"/>
      <point x="503" y="250"/>
      <point x="497" y="250" type="curve" smooth="yes"/>
      <point x="103" y="250" type="line" smooth="yes"/>
      <point x="97" y="250"/>
      <point x="93" y="246"/>
      <point x="93" y="240" type="curve" smooth="yes"/>
      <point x="93" y="190" type="line" smooth="yes"/>
      <point x="93" y="184"/>
      <point x="97" y="180"/>
    </contour>
  </outline>
</glyph>
<glyph name="greater" format="2">
  <advance width="600"/>
  <unicode hex="003E"/>
  <outline>
    <contour>
      <point x="102" y="103" type="curve" smooth="yes"/>
      <point x="502" y="256" type="line" smooth="yes"/>
      <point x="507" y="258"/>
      <point x="510" y="262"/>
      <point x="510" y="267" type="curve" smooth="yes"/>
      <point x="510" y="326" type="line" smooth="yes"/>
      <point x="510" y="331"/>
      <point x="507" y="335"/>
      <point x="502" y="337" type="curve" smooth="yes"/>
      <point x="102" y="490" type="line" smooth="yes"/>
      <point x="95" y="493"/>
      <point x="90" y="489"/>
      <point x="90" y="482" type="curve" smooth="yes"/>
      <point x="90" y="420" type="line" smooth="yes"/>
      <point x="90" y="415"/>
      <point x="93" y="410"/>
      <point x="98" y="408" type="curve" smooth="yes"/>
      <point x="426" y="297" type="line"/>
      <point x="98" y="185" type="line" smooth="yes"/>
      <point x="93" y="183"/>
      <point x="90" y="178"/>
      <point x="90" y="173" type="curve" smooth="yes"/>
      <point x="90" y="111" type="line" smooth="yes"/>
      <point x="90" y="104"/>
      <point x="95" y="100"/>
    </contour>
  </outline>
</glyph>
<glyph name="question" format="2">
  <advance width="469"/>
  <unicode hex="003F"/>
  <outline>
    <contour>
      <point x="179" y="200" type="curve" smooth="yes"/>
      <point x="240" y="200" type="line" smooth="yes"/>
      <point x="245" y="200"/>
      <point x="250" y="205"/>
      <point x="250" y="210" type="curve" smooth="yes"/>
      <point x="251" y="250" type="line" smooth="yes"/>
      <point x="253" y="316"/>
      <point x="429" y="382"/>
      <point x="429" y="528" type="curve" smooth="yes"/>
      <point x="429" y="616"/>
      <point x="368" y="667"/>
      <point x="244" y="667" type="curve" smooth="yes"/>
      <point x="113" y="667"/>
      <point x="46" y="609"/>
      <point x="46" y="486" type="curve" smooth="yes"/>
      <point x="46" y="480"/>
      <point x="48" y="474"/>
      <point x="56" y="474" type="curve" smooth="yes"/>
      <point x="122" y="474" type="line" smooth="yes"/>
      <point x="128" y="474"/>
      <point x="131" y="479"/>
      <point x="131" y="485" type="curve" smooth="yes"/>
      <point x="131" y="556"/>
      <point x="159" y="595"/>
      <point x="241" y="595" type="curve" smooth="yes"/>
      <point x="308" y="595"/>
      <point x="343" y="571"/>
      <point x="343" y="522" type="curve" smooth="yes"/>
      <point x="343" y="402"/>
      <point x="169" y="356"/>
      <point x="169" y="249" type="curve" smooth="yes"/>
      <point x="169" y="210" type="line" smooth="yes"/>
      <point x="169" y="205"/>
      <point x="174" y="200"/>
    </contour>
    <contour>
      <point x="213" y="-12" type="curve" smooth="yes"/>
      <point x="253" y="-12"/>
      <point x="269" y="11"/>
      <point x="269" y="44" type="curve" smooth="yes"/>
      <point x="269" y="54" type="line" smooth="yes"/>
      <point x="269" y="87"/>
      <point x="253" y="110"/>
      <point x="213" y="110" type="curve" smooth="yes"/>
      <point x="173" y="110"/>
      <point x="157" y="87"/>
      <point x="157" y="54" type="curve" smooth="yes"/>
      <point x="157" y="44" type="line" smooth="yes"/>
      <point x="157" y="11"/>
      <point x="173" y="-12"/>
    </contour>
  </outline>
</glyph>
<glyph name="at" format="2">
  <advance width="1000"/>
  <unicode hex="0040"/>
  <outline>
    <contour>
      <point x="489" y="-185" type="curve" smooth="yes"/>
      <point x="625" y="-185" type="line" smooth="yes"/>
      <point x="631" y="-185"/>
      <point x="635" y="-181"/>
      <point x="635" y="-175" type="curve" smooth="yes"/>
      <point x="635" y="-119" type="line" smooth="yes"/>
      <point x="635" y="-113"/>
      <point x="631" y="-109"/>
      <point x="625" y="-109" type="curve" smooth="yes"/>
      <point x="489" y="-109" type="line" smooth="yes"/>
      <point x="259" y="-109"/>
      <point x="150" y="-6"/>
      <point x="150" y="188" type="curve" smooth="yes"/>
      <point x="150" y="288" type="line" smooth="yes"/>
      <point x="150" y="501"/>
      <point x="270" y="619"/>
      <point x="490" y="619" type="curve" smooth="yes"/>
      <point x="736" y="619"/>
      <point x="850" y="515"/>
      <point x="850" y="318" type="curve" smooth="yes"/>
      <point x="850" y="268" type="line" smooth="yes"/>
      <point x="850" y="155"/>
      <point x="793" y="90"/>
      <point x="712" y="90" type="curve" smooth="yes"/>
      <point x="657" y="90"/>
      <point x="646" y="124"/>
      <point x="655" y="191" type="curve" smooth="yes"/>
      <point x="691" y="455" type="line" smooth="yes"/>
      <point x="692" y="462"/>
      <point x="689" y="465"/>
      <point x="682" y="466" type="curve" smooth="yes"/>
      <point x="616" y="472"/>
      <point x="575" y="488"/>
      <point x="499" y="488" type="curve" smooth="yes"/>
      <point x="382" y="488"/>
      <point x="316" y="415"/>
      <point x="301" y="300" type="curve" smooth="yes"/>
      <point x="286" y="187" type="line" smooth="yes"/>
      <point x="271" y="75"/>
      <point x="307" y="14"/>
      <point x="408" y="14" type="curve" smooth="yes"/>
      <point x="476" y="14"/>
      <point x="543" y="57"/>
      <point x="592" y="96" type="curve"/>
      <point x="584" y="169" type="line"/>
      <point x="531" y="125"/>
      <point x="484" y="89"/>
      <point x="434" y="89" type="curve" smooth="yes"/>
      <point x="376" y="89"/>
      <point x="359" y="121"/>
      <point x="369" y="193" type="curve" smooth="yes"/>
      <point x="383" y="292" type="line" smooth="yes"/>
      <point x="396" y="384"/>
      <point x="441" y="413"/>
      <point x="499" y="413" type="curve" smooth="yes"/>
      <point x="535" y="413"/>
      <point x="571" y="409"/>
      <point x="603" y="402" type="curve"/>
      <point x="571" y="173" type="line" smooth="yes"/>
      <point x="559" y="87"/>
      <point x="605" y="15"/>
      <point x="711" y="15" type="curve" smooth="yes"/>
      <point x="854" y="15"/>
      <point x="935" y="119"/>
      <point x="935" y="268" type="curve" smooth="yes"/>
      <point x="935" y="318" type="line" smooth="yes"/>
      <point x="935" y="566"/>
      <point x="794" y="695"/>
      <point x="490" y="695" type="curve" smooth="yes"/>
      <point x="197" y="695"/>
      <point x="65" y="527"/>
      <point x="65" y="288" type="curve" smooth="yes"/>
      <point x="65" y="188" type="line" smooth="yes"/>
      <point x="65" y="-54"/>
      <point x="200" y="-185"/>
    </contour>
  </outline>
</glyph>
<glyph name="A" format="2">
  <advance width="560"/>
  <unicode hex="0041"/>
  <anchor x="280" y="0" name="bottom"/>
  <anchor x="563" y="10" name="ogonek"/>
  <anchor x="279" y="655" name="top"/>
  <anchor x="170" y="655" name="topleft"/>
  <outline>
    <contour>
      <point x="9" y="0" type="curve" smooth="yes"/>
      <point x="76" y="0" type="line" smooth="yes"/>
      <point x="81" y="0"/>
      <point x="86" y="3"/>
      <point x="88" y="8" type="curve" smooth="yes"/>
      <point x="236" y="461" type="line" smooth="yes"/>
      <point x="249" y="500"/>
      <point x="263" y="539"/>
      <point x="276" y="578" type="curve"/>
      <point x="277" y="578" type="line"/>
      <point x="291" y="538"/>
      <point x="304" y="498"/>
      <point x="318" y="458" type="curve" smooth="yes"/>
      <point x="468" y="8" type="line" smooth="yes"/>
      <point x="470" y="3"/>
      <point x="475" y="0"/>
      <point x="480" y="0" type="curve" smooth="yes"/>
      <point x="551" y="0" type="line" smooth="yes"/>
      <point x="558" y="0"/>
      <point x="561" y="4"/>
      <point x="559" y="11" type="curve" smooth="yes"/>
      <point x="335" y="647" type="line" smooth="yes"/>
      <point x="333" y="653"/>
      <point x="328" y="655"/>
      <point x="323" y="655" type="curve" smooth="yes"/>
      <point x="234" y="655" type="line" smooth="yes"/>
      <point x="229" y="655"/>
      <point x="224" y="652"/>
      <point x="222" y="647" type="curve" smooth="yes"/>
      <point x="1" y="11" type="line" smooth="yes"/>
      <point x="-1" y="4"/>
      <point x="2" y="0"/>
    </contour>
    <contour>
      <point x="120" y="153" type="line"/>
      <point x="435" y="153" type="line"/>
      <point x="413" y="227" type="line"/>
      <point x="141" y="227" type="line"/>
    </contour>
  </outline>
</glyph>
<glyph name="B" format="2">
  <advance width="573"/>
  <unicode hex="0042"/>
  <anchor x="287" y="0" name="bottom"/>
  <anchor x="287" y="655" name="top"/>
  <outline>
    <contour>
      <point x="95" y="0" type="curve" smooth="yes"/>
      <point x="274" y="0" type="line" smooth="yes"/>
      <point x="448" y="0"/>
      <point x="528" y="57"/>
      <point x="528" y="180" type="curve" smooth="yes"/>
      <point x="528" y="272"/>
      <point x="482" y="329"/>
      <point x="389" y="346" type="curve"/>
      <point x="389" y="348" type="line"/>
      <point x="467" y="377"/>
      <point x="500" y="419"/>
      <point x="500" y="491" type="curve" smooth="yes"/>
      <point x="500" y="601"/>
      <point x="425" y="655"/>
      <point x="273" y="655" type="curve" smooth="yes"/>
      <point x="95" y="655" type="line" smooth="yes"/>
      <point x="89" y="655"/>
      <point x="85" y="651"/>
      <point x="85" y="645" type="curve" smooth="yes"/>
      <point x="85" y="10" type="line" smooth="yes"/>
      <point x="85" y="4"/>
      <point x="89" y="0"/>
    </contour>
    <contour>
      <point x="170" y="74" type="line"/>
      <point x="170" y="305" type="line"/>
      <point x="276" y="305" type="line" smooth="yes"/>
      <point x="393" y="305"/>
      <point x="443" y="269"/>
      <point x="443" y="186" type="curve" smooth="yes"/>
      <point x="443" y="106"/>
      <point x="395" y="74"/>
      <point x="273" y="74" type="curve" smooth="yes"/>
    </contour>
    <contour>
      <point x="170" y="374" type="line"/>
      <point x="170" y="582" type="line"/>
      <point x="260" y="582" type="line" smooth="yes"/>
      <point x="372" y="582"/>
      <point x="415" y="554"/>
      <point x="415" y="480" type="curve" smooth="yes"/>
      <point x="415" y="406"/>
      <point x="370" y="374"/>
      <point x="269" y="374" type="curve" smooth="yes"/>
    </contour>
  </outline>
</glyph>
<glyph name="C" format="2">
  <advance width="633"/>
  <unicode hex="0043"/>
  <anchor x="330" y="0" name="bottom"/>
  <anchor x="317" y="655" name="top"/>
  <outline>
    <contour>
      <point x="320" y="-12" type="curve" smooth="yes"/>
      <point x="474" y="-12"/>
      <point x="576" y="75"/>
      <point x="564" y="209" type="curve" smooth="yes"/>
      <point x="563" y="218"/>
      <point x="561" y="223"/>
      <point x="552" y="223" type="curve" smooth="yes"/>
      <point x="488" y="223" type="line" smooth="yes"/>
      <point x="482" y="223"/>
      <point x="478" y="219"/>
      <point x="479" y="213" type="curve" smooth="yes"/>
      <point x="489" y="118"/>
      <point x="427" y="63"/>
      <point x="322" y="63" type="curve" smooth="yes"/>
      <point x="216" y="63"/>
      <point x="158" y="119"/>
      <point x="158" y="222" type="curve" smooth="yes"/>
      <point x="158" y="433" type="line" smooth="yes"/>
      <point x="158" y="536"/>
      <point x="216" y="592"/>
      <point x="322" y="592" type="curve" smooth="yes"/>
      <point x="427" y="592"/>
      <point x="483" y="538"/>
      <point x="479" y="442" type="curve" smooth="yes"/>
      <point x="478" y="436"/>
      <point x="482" y="432"/>
      <point x="488" y="432" type="curve" smooth="yes"/>
      <point x="553" y="432" type="line" smooth="yes"/>
      <point x="561" y="432"/>
      <point x="563" y="439"/>
      <point x="564" y="446" type="curve" smooth="yes"/>
      <point x="584" y="584"/>
      <point x="474" y="667"/>
      <point x="321" y="667" type="curve" smooth="yes"/>
      <point x="159" y="667"/>
      <point x="73" y="583"/>
      <point x="73" y="432" type="curve" smooth="yes"/>
      <point x="73" y="223" type="line" smooth="yes"/>
      <point x="73" y="72"/>
      <point x="157" y="-12"/>
    </contour>
  </outline>
</glyph>
<glyph name="D" format="2">
  <advance width="641"/>
  <unicode hex="0044"/>
  <anchor x="293" y="0" name="bottom"/>
  <anchor x="295" y="328" name="center"/>
  <anchor x="293" y="655" name="top"/>
  <outline>
    <contour>
      <point x="95" y="0" type="curve" smooth="yes"/>
      <point x="270" y="0" type="line" smooth="yes"/>
      <point x="476" y="0"/>
      <point x="576" y="104"/>
      <point x="576" y="317" type="curve" smooth="yes"/>
      <point x="576" y="367" type="line" smooth="yes"/>
      <point x="576" y="560"/>
      <point x="475" y="655"/>
      <point x="270" y="655" type="curve" smooth="yes"/>
      <point x="95" y="655" type="line" smooth="yes"/>
      <point x="89" y="655"/>
      <point x="85" y="651"/>
      <point x="85" y="645" type="curve" smooth="yes"/>
      <point x="85" y="10" type="line" smooth="yes"/>
      <point x="85" y="4"/>
      <point x="89" y="0"/>
    </contour>
    <contour>
      <point x="170" y="72" type="line"/>
      <point x="170" y="583" type="line"/>
      <point x="264" y="583" type="line" smooth="yes"/>
      <point x="420" y="583"/>
      <point x="491" y="517"/>
      <point x="491" y="373" type="curve" smooth="yes"/>
      <point x="491" y="311" type="line" smooth="yes"/>
      <point x="491" y="147"/>
      <point x="420" y="72"/>
      <point x="264" y="72" type="curve" smooth="yes"/>
    </contour>
  </outline>
</glyph>
<glyph name="F" format="2">
  <advance width="504"/>
  <unicode hex="0046"/>
  <anchor x="253" y="0" name="bottom"/>
  <anchor x="253" y="655" name="top"/>
  <outline>
    <contour>
      <point x="95" y="0" type="curve" smooth="yes"/>
      <point x="160" y="0" type="line" smooth="yes"/>
      <point x="166" y="0"/>
      <point x="170" y="4"/>
      <point x="170" y="10" type="curve" smooth="yes"/>
      <point x="170" y="286" type="line"/>
      <point x="413" y="286" type="line" smooth="yes"/>
      <point x="419" y="286"/>
      <point x="423" y="290"/>
      <point x="423" y="296" type="curve" smooth="yes"/>
      <point x="423" y="350" type="line" smooth="yes"/>
      <point x="423" y="356"/>
      <point x="419" y="360"/>
      <point x="413" y="360" type="curve" smooth="yes"/>
      <point x="170" y="360" type="line"/>
      <point x="170" y="578" type="line"/>
      <point x="451" y="578" type="line" smooth="yes"/>
      <point x="457" y="578"/>
      <point x="461" y="582"/>
      <point x="461" y="588" type="curve" smooth="yes"/>
      <point x="461" y="645" type="line" smooth="yes"/>
      <point x="461" y="651"/>
      <point x="457" y="655"/>
      <point x="451" y="655" type="curve" smooth="yes"/>
      <point x="95" y="655" type="line" smooth="yes"/>
      <point x="89" y="655"/>
      <point x="85" y="651"/>
      <point x="85" y="645" type="curve" smooth="yes"/>
      <point x="85" y="10" type="line" smooth="yes"/>
      <point x="85" y="4"/>
      <point x="89" y="0"/>
    </contour>
  </outline>
</glyph>
<glyph name="G" format="2">
  <advance width="653"/>
  <unicode hex="0047"/>
  <guideline x="568" y="376" angle="90"/>
  <anchor x="320" y="0" name="bottom"/>
  <anchor x="310" y="655" name="top"/>
  <anchor x="73" y="655" name="topleft"/>
  <outline>
    <contour>
      <point x="306.094" y="-12" type="curve" smooth="yes"/>
      <point x="387" y="-12"/>
      <point x="455" y="15"/>
      <point x="494" y="71" type="curve"/>
      <point x="495" y="71" type="line"/>
      <point x="496" y="47"/>
      <point x="499" y="25"/>
      <point x="502" y="8" type="curve" smooth="yes"/>
      <point x="503" y="3"/>
      <point x="507" y="0"/>
      <point x="513" y="0" type="curve" smooth="yes"/>
      <point x="566" y="0" type="line" smooth="yes"/>
      <point x="572" y="0"/>
      <point x="576" y="4"/>
      <point x="575" y="11" type="curve" smooth="yes"/>
      <point x="570" y="48"/>
      <point x="568" y="85"/>
      <point x="568" y="127" type="curve" smooth="yes"/>
      <point x="568" y="324" type="line" smooth="yes"/>
      <point x="568" y="330"/>
      <point x="564" y="334"/>
      <point x="558" y="334" type="curve" smooth="yes"/>
      <point x="333" y="334" type="line" smooth="yes"/>
      <point x="327" y="334"/>
      <point x="323" y="330"/>
      <point x="323" y="324" type="curve" smooth="yes"/>
      <point x="323" y="270" type="line" smooth="yes"/>
      <point x="323" y="264"/>
      <point x="327" y="260"/>
      <point x="333" y="260" type="curve" smooth="yes"/>
      <point x="489" y="260" type="line"/>
      <point x="489" y="222" type="line" smooth="yes"/>
      <point x="489" y="118.688"/>
      <point x="429.459" y="63"/>
      <point x="319" y="63" type="curve" smooth="yes"/>
      <point x="211.371" y="63"/>
      <point x="158" y="115.708"/>
      <point x="158" y="222" type="curve" smooth="yes"/>
      <point x="158" y="433" type="line" smooth="yes"/>
      <point x="158" y="537.909"/>
      <point x="215.19" y="592"/>
      <point x="326.111" y="592" type="curve" smooth="yes"/>
      <point x="432" y="592"/>
      <point x="485" y="543"/>
      <point x="480" y="452" type="curve" smooth="yes"/>
      <point x="479" y="446"/>
      <point x="483" y="442"/>
      <point x="489" y="442" type="curve" smooth="yes"/>
      <point x="554" y="442" type="line" smooth="yes"/>
      <point x="560" y="442"/>
      <point x="564" y="445"/>
      <point x="565" y="452" type="curve" smooth="yes"/>
      <point x="584" y="583"/>
      <point x="481" y="667"/>
      <point x="324.137" y="667" type="curve" smooth="yes"/>
      <point x="167.536" y="667"/>
      <point x="73" y="578.538"/>
      <point x="73" y="432" type="curve" smooth="yes"/>
      <point x="73" y="223" type="line" smooth="yes"/>
      <point x="73" y="75.794"/>
      <point x="160.082" y="-12"/>
    </contour>
  </outline>
</glyph>
<glyph name="H" format="2">
  <advance width="661"/>
  <unicode hex="0048"/>
  <anchor x="331" y="0" name="bottom"/>
  <anchor x="330" y="328" name="center"/>
  <anchor x="330" y="655" name="top"/>
  <anchor x="20" y="655" name="topleft"/>
  <outline>
    <contour>
      <point x="95" y="0" type="curve" smooth="yes"/>
      <point x="160" y="0" type="line" smooth="yes"/>
      <point x="166" y="0"/>
      <point x="170" y="4"/>
      <point x="170" y="10" type="curve" smooth="yes"/>
      <point x="170" y="301" type="line"/>
      <point x="491" y="301" type="line"/>
      <point x="491" y="10" type="line" smooth="yes"/>
      <point x="491" y="4"/>
      <point x="495" y="0"/>
      <point x="501" y="0" type="curve" smooth="yes"/>
      <point x="566" y="0" type="line" smooth="yes"/>
      <point x="572" y="0"/>
      <point x="576" y="4"/>
      <point x="576" y="10" type="curve" smooth="yes"/>
      <point x="576" y="645" type="line" smooth="yes"/>
      <point x="576" y="651"/>
      <point x="572" y="655"/>
      <point x="566" y="655" type="curve" smooth="yes"/>
      <point x="501" y="655" type="line" smooth="yes"/>
      <point x="495" y="655"/>
      <point x="491" y="651"/>
      <point x="491" y="645" type="curve" smooth="yes"/>
      <point x="491" y="375" type="line"/>
      <point x="170" y="375" type="line"/>
      <point x="170" y="645" type="line" smooth="yes"/>
      <point x="170" y="651"/>
      <point x="166" y="655"/>
      <point x="160" y="655" type="curve" smooth="yes"/>
      <point x="95" y="655" type="line" smooth="yes"/>
      <point x="89" y="655"/>
      <point x="85" y="651"/>
      <point x="85" y="645" type="curve" smooth="yes"/>
      <point x="85" y="10" type="line" smooth="yes"/>
      <point x="85" y="4"/>
      <point x="89" y="0"/>
    </contour>
  </outline>
</glyph>
<glyph name="I" format="2">
  <advance width="255"/>
  <unicode hex="0049"/>
  <anchor x="128" y="0" name="bottom"/>
  <anchor x="181" y="10" name="ogonek"/>
  <anchor x="128" y="655" name="top"/>
  <anchor x="20" y="655" name="topleft"/>
  <outline>
    <contour>
      <point x="95" y="0" type="curve" smooth="yes"/>
      <point x="160" y="0" type="line" smooth="yes"/>
      <point x="166" y="0"/>
      <point x="170" y="4"/>
      <point x="170" y="10" type="curve" smooth="yes"/>
      <point x="170" y="645" type="line" smooth="yes"/>
      <point x="170" y="651"/>
      <point x="166" y="655"/>
      <point x="160" y="655" type="curve" smooth="yes"/>
      <point x="95" y="655" type="line" smooth="yes"/>
      <point x="89" y="655"/>
      <point x="85" y="651"/>
      <point x="85" y="645" type="curve" smooth="yes"/>
      <point x="85" y="10" type="line" smooth="yes"/>
      <point x="85" y="4"/>
      <point x="89" y="0"/>
    </contour>
  </outline>
</glyph>
<glyph name="J" format="2">
  <advance width="265"/>
  <unicode hex="004A"/>
  <anchor x="133" y="0" name="bottom"/>
  <anchor x="138" y="655" name="top"/>
  <outline>
    <contour>
      <point x="37" y="-139" type="curve" smooth="yes"/>
      <point x="130" y="-117"/>
      <point x="180" y="-43"/>
      <point x="180" y="86" type="curve" smooth="yes"/>
      <point x="180" y="645" type="line" smooth="yes"/>
      <point x="180" y="651"/>
      <point x="176" y="655"/>
      <point x="170" y="655" type="curve" smooth="yes"/>
      <point x="105" y="655" type="line" smooth="yes"/>
      <point x="99" y="655"/>
      <point x="95" y="651"/>
      <point x="95" y="645" type="curve" smooth="yes"/>
      <point x="95" y="82" type="line" smooth="yes"/>
      <point x="95" y="2"/>
      <point x="67" y="-47"/>
      <point x="13" y="-60" type="curve" smooth="yes"/>
      <point x="-2" y="-64"/>
      <point x="-7" y="-68"/>
      <point x="-5" y="-76" type="curve" smooth="yes"/>
      <point x="12" y="-135" type="line" smooth="yes"/>
      <point x="14" y="-142"/>
      <point x="20" y="-143"/>
    </contour>
  </outline>
</glyph>
<glyph name="K" format="2">
  <advance width="595"/>
  <unicode hex="004B"/>
  <anchor x="318" y="0" name="bottom"/>
  <anchor x="295" y="655" name="top"/>
  <outline>
    <contour>
      <point x="95" y="0" type="curve" smooth="yes"/>
      <point x="160" y="0" type="line" smooth="yes"/>
      <point x="166" y="0"/>
      <point x="170" y="4"/>
      <point x="170" y="10" type="curve" smooth="yes"/>
      <point x="170" y="220" type="line"/>
      <point x="266" y="324" type="line"/>
      <point x="477" y="7" type="line"/>
      <point x="480" y="3"/>
      <point x="484" y="0"/>
      <point x="489" y="0" type="curve" smooth="yes"/>
      <point x="572" y="0" type="line" smooth="yes"/>
      <point x="580" y="0"/>
      <point x="582" y="5"/>
      <point x="578" y="12" type="curve"/>
      <point x="325" y="389" type="line"/>
      <point x="560" y="643" type="line"/>
      <point x="566" y="650"/>
      <point x="562" y="655"/>
      <point x="554" y="655" type="curve" smooth="yes"/>
      <point x="469" y="655" type="line" smooth="yes"/>
      <point x="464" y="655"/>
      <point x="460" y="654"/>
      <point x="457" y="650" type="curve"/>
      <point x="262" y="433" type="line" smooth="yes"/>
      <point x="231" y="398"/>
      <point x="200" y="365"/>
      <point x="170" y="331" type="curve"/>
      <point x="169" y="331" type="line"/>
      <point x="170" y="371"/>
      <point x="170" y="412"/>
      <point x="170" y="452" type="curve" smooth="yes"/>
      <point x="170" y="645" type="line" smooth="yes"/>
      <point x="170" y="651"/>
      <point x="166" y="655"/>
      <point x="160" y="655" type="curve" smooth="yes"/>
      <point x="95" y="655" type="line" smooth="yes"/>
      <point x="89" y="655"/>
      <point x="85" y="651"/>
      <point x="85" y="645" type="curve" smooth="yes"/>
      <point x="85" y="10" type="line" smooth="yes"/>
      <point x="85" y="4"/>
      <point x="89" y="0"/>
    </contour>
  </outline>
</glyph>
<glyph name="L" format="2">
  <advance width="476"/>
  <unicode hex="004C"/>
  <anchor x="278" y="0" name="bottom"/>
  <anchor x="238" y="328" name="center"/>
  <anchor x="127" y="655" name="top"/>
  <anchor x="456" y="655" name="topright"/>
  <outline>
    <contour>
      <point x="95" y="0" type="curve" smooth="yes"/>
      <point x="446" y="0" type="line" smooth="yes"/>
      <point x="452" y="0"/>
      <point x="456" y="4"/>
      <point x="456" y="10" type="curve" smooth="yes"/>
      <point x="456" y="67" type="line" smooth="yes"/>
      <point x="456" y="73"/>
      <point x="452" y="77"/>
      <point x="446" y="77" type="curve" smooth="yes"/>
      <point x="170" y="77" type="line"/>
      <point x="170" y="645" type="line" smooth="yes"/>
      <point x="170" y="651"/>
      <point x="166" y="655"/>
      <point x="160" y="655" type="curve" smooth="yes"/>
      <point x="95" y="655" type="line" smooth="yes"/>
      <point x="89" y="655"/>
      <point x="85" y="651"/>
      <point x="85" y="645" type="curve" smooth="yes"/>
      <point x="85" y="10" type="line" smooth="yes"/>
      <point x="85" y="4"/>
      <point x="89" y="0"/>
    </contour>
  </outline>
</glyph>
<glyph name="M" format="2">
  <advance width="769"/>
  <unicode hex="004D"/>
  <anchor x="385" y="0" name="bottom"/>
  <anchor x="385" y="655" name="top"/>
  <outline>
    <contour>
      <point x="80" y="0" type="curve" smooth="yes"/>
      <point x="143" y="0" type="line" smooth="yes"/>
      <point x="149" y="0"/>
      <point x="153" y="3"/>
      <point x="153" y="10" type="curve" smooth="yes"/>
      <point x="163" y="416" type="line" smooth="yes"/>
      <point x="164" y="463"/>
      <point x="163" y="511"/>
      <point x="161" y="558" type="curve"/>
      <point x="163" y="558" type="line"/>
      <point x="182" y="511"/>
      <point x="200" y="464"/>
      <point x="222" y="417" type="curve" smooth="yes"/>
      <point x="372" y="91" type="line" smooth="yes"/>
      <point x="374" y="86"/>
      <point x="378" y="84"/>
      <point x="383" y="84" type="curve" smooth="yes"/>
      <point x="385" y="84" type="line" smooth="yes"/>
      <point x="390" y="84"/>
      <point x="394" y="86"/>
      <point x="396" y="91" type="curve" smooth="yes"/>
      <point x="544" y="412" type="line" smooth="yes"/>
      <point x="566" y="461"/>
      <point x="587" y="509"/>
      <point x="607" y="558" type="curve"/>
      <point x="609" y="558" type="line"/>
      <point x="607" y="509"/>
      <point x="605" y="461"/>
      <point x="606" y="412" type="curve" smooth="yes"/>
      <point x="616" y="10" type="line" smooth="yes"/>
      <point x="616" y="3"/>
      <point x="620" y="0"/>
      <point x="626" y="0" type="curve" smooth="yes"/>
      <point x="689" y="0" type="line" smooth="yes"/>
      <point x="695" y="0"/>
      <point x="699" y="4"/>
      <point x="699" y="10" type="curve" smooth="yes"/>
      <point x="685" y="645" type="line" smooth="yes"/>
      <point x="685" y="652"/>
      <point x="681" y="655"/>
      <point x="675" y="655" type="curve" smooth="yes"/>
      <point x="569" y="655" type="line" smooth="yes"/>
      <point x="564" y="655"/>
      <point x="561" y="653"/>
      <point x="558" y="647" type="curve" smooth="yes"/>
      <point x="386" y="254" type="line"/>
      <point x="211" y="647" type="line" smooth="yes"/>
      <point x="208" y="653"/>
      <point x="205" y="655"/>
      <point x="200" y="655" type="curve" smooth="yes"/>
      <point x="94" y="655" type="line" smooth="yes"/>
      <point x="88" y="655"/>
      <point x="84" y="652"/>
      <point x="84" y="645" type="curve" smooth="yes"/>
      <point x="70" y="10" type="line" smooth="yes"/>
      <point x="70" y="4"/>
      <point x="74" y="0"/>
    </contour>
  </outline>
</glyph>
<glyph name="O" format="2">
  <advance width="642"/>
  <unicode hex="004F"/>
  <anchor x="321" y="0" name="bottom"/>
  <anchor x="321" y="328" name="center"/>
  <anchor x="578" y="10" name="ogonek"/>
  <anchor x="321" y="655" name="top"/>
  <anchor x="71" y="655" name="topleft"/>
  <anchor x="622" y="655" name="topright"/>
  <outline>
    <contour>
      <point x="321" y="-12" type="curve" smooth="yes"/>
      <point x="488" y="-12"/>
      <point x="569" y="73"/>
      <point x="569" y="223" type="curve" smooth="yes"/>
      <point x="569" y="432" type="line" smooth="yes"/>
      <point x="569" y="582"/>
      <point x="488" y="667"/>
      <point x="321" y="667" type="curve" smooth="yes"/>
      <point x="154" y="667"/>
      <point x="73" y="582"/>
      <point x="73" y="432" type="curve" smooth="yes"/>
      <point x="73" y="223" type="line" smooth="yes"/>
      <point x="73" y="73"/>
      <point x="154" y="-12"/>
    </contour>
    <contour>
      <point x="321" y="63" type="curve" smooth="yes"/>
      <point x="215" y="63"/>
      <point x="158" y="118"/>
      <point x="158" y="224" type="curve" smooth="yes"/>
      <point x="158" y="431" type="line" smooth="yes"/>
      <point x="158" y="537"/>
      <point x="215" y="592"/>
      <point x="321" y="592" type="curve" smooth="yes"/>
      <point x="427" y="592"/>
      <point x="484" y="537"/>
      <point x="484" y="431" type="curve" smooth="yes"/>
      <point x="484" y="224" type="line" smooth="yes"/>
      <point x="484" y="118"/>
      <point x="427" y="63"/>
    </contour>
  </outline>
</glyph>
<glyph name="P" format="2">
  <advance width="545"/>
  <unicode hex="0050"/>
  <anchor x="273" y="0" name="bottom"/>
  <anchor x="273" y="655" name="top"/>
  <outline>
    <contour>
      <point x="95" y="0" type="curve" smooth="yes"/>
      <point x="160" y="0" type="line" smooth="yes"/>
      <point x="166" y="0"/>
      <point x="170" y="4"/>
      <point x="170" y="10" type="curve" smooth="yes"/>
      <point x="170" y="247" type="line"/>
      <point x="262" y="247" type="line" smooth="yes"/>
      <point x="422" y="247"/>
      <point x="505" y="318"/>
      <point x="505" y="451" type="curve" smooth="yes"/>
      <point x="505" y="585"/>
      <point x="423" y="655"/>
      <point x="262" y="655" type="curve" smooth="yes"/>
      <point x="95" y="655" type="line" smooth="yes"/>
      <point x="89" y="655"/>
      <point x="85" y="651"/>
      <point x="85" y="645" type="curve" smooth="yes"/>
      <point x="85" y="10" type="line" smooth="yes"/>
      <point x="85" y="4"/>
      <point x="89" y="0"/>
    </contour>
    <contour>
      <point x="170" y="319" type="line"/>
      <point x="170" y="583" type="line"/>
      <point x="258" y="583" type="line" smooth="yes"/>
      <point x="369" y="583"/>
      <point x="420" y="542"/>
      <point x="420" y="448" type="curve" smooth="yes"/>
      <point x="420" y="360"/>
      <point x="372" y="319"/>
      <point x="260" y="319" type="curve" smooth="yes"/>
    </contour>
  </outline>
</glyph>
<glyph name="Q" format="2">
  <advance width="642"/>
  <unicode hex="0051"/>
  <guideline x="492" y="-145" angle="90"/>
  <anchor x="321" y="0" name="bottom"/>
  <anchor x="321" y="655" name="top"/>
  <outline>
    <contour>
      <point x="441" y="-182" type="curve" smooth="yes"/>
      <point x="457" y="-182"/>
      <point x="476" y="-179"/>
      <point x="487" y="-176" type="curve" smooth="yes"/>
      <point x="496" y="-173"/>
      <point x="499" y="-169"/>
      <point x="499" y="-163" type="curve" smooth="yes"/>
      <point x="499" y="-108" type="line" smooth="yes"/>
      <point x="499" y="-101"/>
      <point x="495" y="-98"/>
      <point x="488" y="-99" type="curve" smooth="yes"/>
      <point x="477" y="-101"/>
      <point x="466" y="-104"/>
      <point x="457" y="-104" type="curve" smooth="yes"/>
      <point x="412" y="-104"/>
      <point x="392" y="-70"/>
      <point x="395" y="29" type="curve" smooth="yes"/>
      <point x="395" y="36"/>
      <point x="391" y="40"/>
      <point x="385" y="40" type="curve" smooth="yes"/>
      <point x="324" y="44" type="line" smooth="yes"/>
      <point x="318" y="44"/>
      <point x="314" y="41"/>
      <point x="314" y="34" type="curve" smooth="yes"/>
      <point x="307" y="-115"/>
      <point x="355" y="-182"/>
    </contour>
    <component base="O"/>
  </outline>
</glyph>
<glyph name="R" format="2">
  <advance width="604"/>
  <unicode hex="0052"/>
  <guideline x="522" y="312" angle="90"/>
  <anchor x="302" y="0" name="bottom"/>
  <anchor x="277" y="655" name="top"/>
  <outline>
    <contour>
      <point x="95" y="0" type="curve" smooth="yes"/>
      <point x="160" y="0" type="line" smooth="yes"/>
      <point x="166" y="0"/>
      <point x="170" y="4"/>
      <point x="170" y="10" type="curve" smooth="yes"/>
      <point x="170" y="279" type="line"/>
      <point x="298" y="279" type="line"/>
      <point x="461" y="7" type="line" smooth="yes"/>
      <point x="464" y="2"/>
      <point x="469" y="0"/>
      <point x="473" y="0" type="curve" smooth="yes"/>
      <point x="550" y="0" type="line" smooth="yes"/>
      <point x="558" y="0"/>
      <point x="561" y="5"/>
      <point x="557" y="12" type="curve" smooth="yes"/>
      <point x="390" y="289" type="line"/>
      <point x="390" y="290" type="line"/>
      <point x="474" y="314"/>
      <point x="522" y="379"/>
      <point x="522" y="475" type="curve" smooth="yes"/>
      <point x="522" y="595"/>
      <point x="446" y="655"/>
      <point x="288" y="655" type="curve" smooth="yes"/>
      <point x="95" y="655" type="line" smooth="yes"/>
      <point x="89" y="655"/>
      <point x="85" y="651"/>
      <point x="85" y="645" type="curve" smooth="yes"/>
      <point x="85" y="10" type="line" smooth="yes"/>
      <point x="85" y="4"/>
      <point x="89" y="0"/>
    </contour>
    <contour>
      <point x="170" y="347" type="line"/>
      <point x="170" y="583" type="line"/>
      <point x="285" y="583" type="line" smooth="yes"/>
      <point x="395" y="583"/>
      <point x="437" y="552"/>
      <point x="437" y="469" type="curve" smooth="yes"/>
      <point x="437" y="383"/>
      <point x="391" y="347"/>
      <point x="279" y="347" type="curve" smooth="yes"/>
    </contour>
  </outline>
</glyph>
<glyph name="S" format="2">
  <advance width="568"/>
  <unicode hex="0053"/>
  <anchor x="292" y="0" name="bottom"/>
  <anchor x="281" y="655" name="top"/>
  <outline>
    <contour>
      <point x="278" y="-12" type="curve" smooth="yes"/>
      <point x="440" y="-12"/>
      <point x="514" y="55"/>
      <point x="514" y="167" type="curve" smooth="yes"/>
      <point x="514" y="252"/>
      <point x="479" y="297"/>
      <point x="387" y="336" type="curve" smooth="yes"/>
      <point x="242" y="397" type="line" smooth="yes"/>
      <point x="170" y="427"/>
      <point x="147" y="453"/>
      <point x="148" y="502" type="curve" smooth="yes"/>
      <point x="149" y="563"/>
      <point x="191" y="592"/>
      <point x="274" y="592" type="curve" smooth="yes"/>
      <point x="367" y="592"/>
      <point x="422" y="554"/>
      <point x="417" y="486" type="curve" smooth="yes"/>
      <point x="416" y="471"/>
      <point x="419" y="467"/>
      <point x="426" y="467" type="curve" smooth="yes"/>
      <point x="490" y="467" type="line" smooth="yes"/>
      <point x="497" y="467"/>
      <point x="500" y="474"/>
      <point x="501" y="486" type="curve" smooth="yes"/>
      <point x="511" y="601"/>
      <point x="418" y="666"/>
      <point x="277" y="666" type="curve" smooth="yes"/>
      <point x="138" y="666"/>
      <point x="64" y="608"/>
      <point x="63" y="497" type="curve" smooth="yes"/>
      <point x="62" y="418"/>
      <point x="99" y="369"/>
      <point x="191" y="331" type="curve" smooth="yes"/>
      <point x="338" y="270" type="line" smooth="yes"/>
      <point x="406" y="242"/>
      <point x="429" y="217"/>
      <point x="429" y="165" type="curve" smooth="yes"/>
      <point x="429" y="96"/>
      <point x="380" y="62"/>
      <point x="285" y="62" type="curve" smooth="yes"/>
      <point x="186" y="62"/>
      <point x="139" y="95"/>
      <point x="139" y="176" type="curve" smooth="yes"/>
      <point x="139" y="185"/>
      <point x="136" y="192"/>
      <point x="127" y="192" type="curve" smooth="yes"/>
      <point x="64" y="192" type="line" smooth="yes"/>
      <point x="57" y="192"/>
      <point x="53" y="188"/>
      <point x="52" y="174" type="curve" smooth="yes"/>
      <point x="44" y="63"/>
      <point x="118" y="-12"/>
    </contour>
  </outline>
</glyph>
<glyph name="T" format="2">
  <advance width="535"/>
  <unicode hex="0054"/>
  <anchor x="268" y="0" name="bottom"/>
  <anchor x="268" y="328" name="center"/>
  <anchor x="268" y="655" name="top"/>
  <outline>
    <contour>
      <point x="235" y="0" type="curve" smooth="yes"/>
      <point x="300" y="0" type="line" smooth="yes"/>
      <point x="306" y="0"/>
      <point x="310" y="4"/>
      <point x="310" y="10" type="curve" smooth="yes"/>
      <point x="310" y="578" type="line"/>
      <point x="490" y="578" type="line" smooth="yes"/>
      <point x="496" y="578"/>
      <point x="500" y="582"/>
      <point x="500" y="588" type="curve" smooth="yes"/>
      <point x="500" y="645" type="line" smooth="yes"/>
      <point x="500" y="651"/>
      <point x="496" y="655"/>
      <point x="490" y="655" type="curve" smooth="yes"/>
      <point x="45" y="655" type="line" smooth="yes"/>
      <point x="39" y="655"/>
      <point x="35" y="651"/>
      <point x="35" y="645" type="curve" smooth="yes"/>
      <point x="35" y="588" type="line" smooth="yes"/>
      <point x="35" y="582"/>
      <point x="39" y="578"/>
      <point x="45" y="578" type="curve" smooth="yes"/>
      <point x="225" y="578" type="line"/>
      <point x="225" y="10" type="line" smooth="yes"/>
      <point x="225" y="4"/>
      <point x="229" y="0"/>
    </contour>
  </outline>
</glyph>
<glyph name="U" format="2">
  <advance width="644"/>
  <unicode hex="0055"/>
  <anchor x="322" y="0" name="bottom"/>
  <anchor x="430" y="10" name="ogonek"/>
  <anchor x="322" y="655" name="top"/>
  <anchor x="72" y="655" name="topleft"/>
  <anchor x="624" y="655" name="topright"/>
  <outline>
    <contour>
      <point x="322" y="-12" type="curve" smooth="yes"/>
      <point x="473" y="-12"/>
      <point x="564" y="77"/>
      <point x="564" y="223" type="curve" smooth="yes"/>
      <point x="564" y="645" type="line" smooth="yes"/>
      <point x="564" y="651"/>
      <point x="560" y="655"/>
      <point x="554" y="655" type="curve" smooth="yes"/>
      <point x="489" y="655" type="line" smooth="yes"/>
      <point x="483" y="655"/>
      <point x="479" y="651"/>
      <point x="479" y="645" type="curve" smooth="yes"/>
      <point x="479" y="222" type="line" smooth="yes"/>
      <point x="479" y="120"/>
      <point x="423" y="63"/>
      <point x="322" y="63" type="curve" smooth="yes"/>
      <point x="221" y="63"/>
      <point x="165" y="120"/>
      <point x="165" y="222" type="curve" smooth="yes"/>
      <point x="165" y="645" type="line" smooth="yes"/>
      <point x="165" y="651"/>
      <point x="161" y="655"/>
      <point x="155" y="655" type="curve" smooth="yes"/>
      <point x="90" y="655" type="line" smooth="yes"/>
      <point x="84" y="655"/>
      <point x="80" y="651"/>
      <point x="80" y="645" type="curve" smooth="yes"/>
      <point x="80" y="225" type="line" smooth="yes"/>
      <point x="80" y="72"/>
      <point x="169" y="-12"/>
    </contour>
  </outline>
</glyph>
<glyph name="V" format="2">
  <advance width="584"/>
  <unicode hex="0056"/>
  <anchor x="292" y="0" name="bottom"/>
  <anchor x="292" y="655" name="top"/>
  <outline>
    <contour>
      <point x="242" y="0" type="curve" smooth="yes"/>
      <point x="337" y="0" type="line" smooth="yes"/>
      <point x="342" y="0"/>
      <point x="347" y="3"/>
      <point x="349" y="8" type="curve" smooth="yes"/>
      <point x="568" y="644" type="line" smooth="yes"/>
      <point x="570" y="651"/>
      <point x="567" y="655"/>
      <point x="560" y="655" type="curve" smooth="yes"/>
      <point x="491" y="655" type="line" smooth="yes"/>
      <point x="486" y="655"/>
      <point x="481" y="652"/>
      <point x="479" y="647" type="curve" smooth="yes"/>
      <point x="335" y="218" type="line" smooth="yes"/>
      <point x="320" y="173"/>
      <point x="304" y="127"/>
      <point x="290" y="82" type="curve"/>
      <point x="288" y="82" type="line"/>
      <point x="274" y="128"/>
      <point x="259" y="175"/>
      <point x="244" y="221" type="curve" smooth="yes"/>
      <point x="106" y="647" type="line" smooth="yes"/>
      <point x="104" y="652"/>
      <point x="99" y="655"/>
      <point x="94" y="655" type="curve" smooth="yes"/>
      <point x="24" y="655" type="line" smooth="yes"/>
      <point x="17" y="655"/>
      <point x="14" y="651"/>
      <point x="16" y="644" type="curve" smooth="yes"/>
      <point x="230" y="8" type="line" smooth="yes"/>
      <point x="232" y="3"/>
      <point x="237" y="0"/>
    </contour>
  </outline>
</glyph>
<glyph name="W" format="2">
  <advance width="847"/>
  <unicode hex="0057"/>
  <anchor x="424" y="0" name="bottom"/>
  <anchor x="424" y="655" name="top"/>
  <outline>
    <contour>
      <point x="215" y="0" type="curve" smooth="yes"/>
      <point x="306" y="0" type="line" smooth="yes"/>
      <point x="312" y="0"/>
      <point x="315" y="3"/>
      <point x="317" y="8" type="curve"/>
      <point x="388" y="246" type="line" smooth="yes"/>
      <point x="401" y="289"/>
      <point x="414" y="332"/>
      <point x="427" y="375" type="curve"/>
      <point x="428" y="375" type="line"/>
      <point x="440" y="331"/>
      <point x="452" y="287"/>
      <point x="465" y="243" type="curve" smooth="yes"/>
      <point x="533" y="8" type="line"/>
      <point x="534" y="3"/>
      <point x="538" y="0"/>
      <point x="544" y="0" type="curve" smooth="yes"/>
      <point x="639" y="0" type="line" smooth="yes"/>
      <point x="645" y="0"/>
      <point x="649" y="3"/>
      <point x="650" y="8" type="curve"/>
      <point x="826" y="644" type="line" smooth="yes"/>
      <point x="828" y="651"/>
      <point x="824" y="655"/>
      <point x="817" y="655" type="curve" smooth="yes"/>
      <point x="748" y="655" type="line" smooth="yes"/>
      <point x="742" y="655"/>
      <point x="738" y="652"/>
      <point x="737" y="647" type="curve" smooth="yes"/>
      <point x="625" y="231" type="line" smooth="yes"/>
      <point x="613" y="185"/>
      <point x="601" y="139"/>
      <point x="589" y="93" type="curve"/>
      <point x="588" y="93" type="line"/>
      <point x="576" y="136"/>
      <point x="565" y="178"/>
      <point x="553" y="221" type="curve" smooth="yes"/>
      <point x="440" y="636" type="line" smooth="yes"/>
      <point x="439" y="641"/>
      <point x="435" y="645"/>
      <point x="429" y="645" type="curve" smooth="yes"/>
      <point x="361" y="645" type="line" smooth="yes"/>
      <point x="354" y="645"/>
      <point x="350" y="641"/>
      <point x="352" y="634" type="curve" smooth="yes"/>
      <point x="388" y="509" type="line"/>
      <point x="304" y="230" type="line" smooth="yes"/>
      <point x="290" y="184"/>
      <point x="276" y="139"/>
      <point x="262" y="93" type="curve"/>
      <point x="261" y="93" type="line"/>
      <point x="248" y="140"/>
      <point x="236" y="187"/>
      <point x="223" y="234" type="curve" smooth="yes"/>
      <point x="107" y="647" type="line"/>
      <point x="106" y="652"/>
      <point x="102" y="655"/>
      <point x="96" y="655" type="curve" smooth="yes"/>
      <point x="30" y="655" type="line" smooth="yes"/>
      <point x="23" y="655"/>
      <point x="19" y="651"/>
      <point x="21" y="644" type="curve" smooth="yes"/>
      <point x="204" y="8" type="line"/>
      <point x="205" y="3"/>
      <point x="209" y="0"/>
    </contour>
  </outline>
</glyph>
<glyph name="X" format="2">
  <advance width="551"/>
  <unicode hex="0058"/>
  <anchor x="276" y="0" name="bottom"/>
  <anchor x="276" y="655" name="top"/>
  <outline>
    <contour>
      <point x="13" y="0" type="curve" smooth="yes"/>
      <point x="92" y="0" type="line" smooth="yes"/>
      <point x="97" y="0"/>
      <point x="101" y="3"/>
      <point x="104" y="7" type="curve" smooth="yes"/>
      <point x="223" y="191" type="line" smooth="yes"/>
      <point x="240" y="217"/>
      <point x="258" y="246"/>
      <point x="274" y="272" type="curve"/>
      <point x="275" y="272" type="line"/>
      <point x="291" y="245"/>
      <point x="310" y="216"/>
      <point x="327" y="189" type="curve" smooth="yes"/>
      <point x="446" y="6" type="line" smooth="yes"/>
      <point x="449" y="2"/>
      <point x="453" y="0"/>
      <point x="458" y="0" type="curve" smooth="yes"/>
      <point x="538" y="0" type="line" smooth="yes"/>
      <point x="546" y="0"/>
      <point x="548" y="5"/>
      <point x="544" y="12" type="curve" smooth="yes"/>
      <point x="333" y="336" type="line"/>
      <point x="532" y="643" type="line" smooth="yes"/>
      <point x="536" y="650"/>
      <point x="534" y="655"/>
      <point x="526" y="655" type="curve" smooth="yes"/>
      <point x="450" y="655" type="line" smooth="yes"/>
      <point x="445" y="655"/>
      <point x="441" y="653"/>
      <point x="438" y="649" type="curve" smooth="yes"/>
      <point x="329" y="480" type="line" smooth="yes"/>
      <point x="312" y="454"/>
      <point x="295" y="427"/>
      <point x="279" y="401" type="curve"/>
      <point x="278" y="401" type="line"/>
      <point x="263" y="425"/>
      <point x="246" y="452"/>
      <point x="231" y="476" type="curve" smooth="yes"/>
      <point x="118" y="649" type="line" smooth="yes"/>
      <point x="115" y="653"/>
      <point x="111" y="655"/>
      <point x="107" y="655" type="curve" smooth="yes"/>
      <point x="27" y="655" type="line" smooth="yes"/>
      <point x="19" y="655"/>
      <point x="17" y="650"/>
      <point x="21" y="643" type="curve" smooth="yes"/>
      <point x="221" y="338" type="line"/>
      <point x="7" y="12" type="line" smooth="yes"/>
      <point x="3" y="5"/>
      <point x="5" y="0"/>
    </contour>
  </outline>
</glyph>
<glyph name="Y" format="2">
  <advance width="535"/>
  <unicode hex="0059"/>
  <anchor x="268" y="0" name="bottom"/>
  <anchor x="268" y="655" name="top"/>
  <anchor x="20" y="655" name="topleft"/>
  <outline>
    <contour>
      <point x="235" y="0" type="curve" smooth="yes"/>
      <point x="300" y="0" type="line" smooth="yes"/>
      <point x="306" y="0"/>
      <point x="310" y="4"/>
      <point x="310" y="10" type="curve" smooth="yes"/>
      <point x="310" y="225" type="line"/>
      <point x="524" y="643" type="line" smooth="yes"/>
      <point x="527" y="650"/>
      <point x="524" y="655"/>
      <point x="517" y="655" type="curve" smooth="yes"/>
      <point x="443" y="655" type="line" smooth="yes"/>
      <point x="438" y="655"/>
      <point x="433" y="653"/>
      <point x="431" y="648" type="curve" smooth="yes"/>
      <point x="322" y="425" type="line" smooth="yes"/>
      <point x="304" y="388"/>
      <point x="287" y="352"/>
      <point x="269" y="315" type="curve"/>
      <point x="268" y="315" type="line"/>
      <point x="251" y="350"/>
      <point x="233" y="387"/>
      <point x="216" y="422" type="curve" smooth="yes"/>
      <point x="106" y="648" type="line" smooth="yes"/>
      <point x="104" y="653"/>
      <point x="99" y="655"/>
      <point x="94" y="655" type="curve" smooth="yes"/>
      <point x="18" y="655" type="line" smooth="yes"/>
      <point x="11" y="655"/>
      <point x="8" y="650"/>
      <point x="11" y="643" type="curve" smooth="yes"/>
      <point x="225" y="225" type="line"/>
      <point x="225" y="10" type="line" smooth="yes"/>
      <point x="225" y="4"/>
      <point x="229" y="0"/>
    </contour>
  </outline>
</glyph>
<glyph name="Z" format="2">
  <advance width="545"/>
  <unicode hex="005A"/>
  <anchor x="273" y="0" name="bottom"/>
  <anchor x="268" y="655" name="top"/>
  <outline>
    <contour>
      <point x="30" y="0" type="curve" smooth="yes"/>
      <point x="489" y="0" type="line" smooth="yes"/>
      <point x="495" y="0"/>
      <point x="499" y="4"/>
      <point x="499" y="10" type="curve" smooth="yes"/>
      <point x="499" y="67" type="line" smooth="yes"/>
      <point x="499" y="73"/>
      <point x="495" y="77"/>
      <point x="489" y="77" type="curve" smooth="yes"/>
      <point x="284" y="77" type="line" smooth="yes"/>
      <point x="240" y="77"/>
      <point x="196" y="77"/>
      <point x="152" y="76" type="curve"/>
      <point x="152" y="77" type="line"/>
      <point x="177" y="113"/>
      <point x="200" y="149"/>
      <point x="224" y="186" type="curve" smooth="yes"/>
      <point x="518" y="631" type="line" smooth="yes"/>
      <point x="520" y="635"/>
      <point x="522" y="640"/>
      <point x="522" y="644" type="curve" smooth="yes"/>
      <point x="522" y="646" type="line" smooth="yes"/>
      <point x="522" y="651"/>
      <point x="518" y="655"/>
      <point x="512" y="655" type="curve" smooth="yes"/>
      <point x="63" y="655" type="line" smooth="yes"/>
      <point x="57" y="655"/>
      <point x="53" y="651"/>
      <point x="53" y="645" type="curve" smooth="yes"/>
      <point x="53" y="588" type="line" smooth="yes"/>
      <point x="53" y="582"/>
      <point x="57" y="578"/>
      <point x="63" y="578" type="curve" smooth="yes"/>
      <point x="272" y="578" type="line" smooth="yes"/>
      <point x="310" y="578"/>
      <point x="349" y="578"/>
      <point x="387" y="579" type="curve"/>
      <point x="387" y="578" type="line"/>
      <point x="364" y="545"/>
      <point x="343" y="512"/>
      <point x="322" y="479" type="curve" smooth="yes"/>
      <point x="24" y="24" type="line" smooth="yes"/>
      <point x="22" y="20"/>
      <point x="20" y="15"/>
      <point x="20" y="11" type="curve" smooth="yes"/>
      <point x="20" y="9" type="line" smooth="yes"/>
      <point x="20" y="4"/>
      <point x="24" y="0"/>
    </contour>
  </outline>
</glyph>
<glyph name="bracketleft" format="2">
  <advance width="270"/>
  <unicode hex="005B"/>
  <outline>
    <contour>
      <point x="85" y="-142" type="curve" smooth="yes"/>
      <point x="270" y="-142" type="line" smooth="yes"/>
      <point x="276" y="-142"/>
      <point x="280" y="-138"/>
      <point x="280" y="-132" type="curve" smooth="yes"/>
      <point x="280" y="-82" type="line" smooth="yes"/>
      <point x="280" y="-76"/>
      <point x="276" y="-72"/>
      <point x="270" y="-72" type="curve" smooth="yes"/>
      <point x="160" y="-72" type="line"/>
      <point x="160" y="627" type="line"/>
      <point x="270" y="627" type="line" smooth="yes"/>
      <point x="276" y="627"/>
      <point x="280" y="631"/>
      <point x="280" y="637" type="curve" smooth="yes"/>
      <point x="280" y="687" type="line" smooth="yes"/>
      <point x="280" y="693"/>
      <point x="276" y="697"/>
      <point x="270" y="697" type="curve" smooth="yes"/>
      <point x="85" y="697" type="line" smooth="yes"/>
      <point x="79" y="697"/>
      <point x="75" y="693"/>
      <point x="75" y="687" type="curve" smooth="yes"/>
      <point x="75" y="-132" type="line" smooth="yes"/>
      <point x="75" y="-138"/>
      <point x="79" y="-142"/>
    </contour>
  </outline>
</glyph>
<glyph name="bracketright" format="2">
  <advance width="270"/>
  <unicode hex="005D"/>
  <outline>
    <contour>
      <point x="0" y="-142" type="curve" smooth="yes"/>
      <point x="185" y="-142" type="line" smooth="yes"/>
      <point x="191" y="-142"/>
      <point x="195" y="-138"/>
      <point x="195" y="-132" type="curve" smooth="yes"/>
      <point x="195" y="687" type="line" smooth="yes"/>
      <point x="195" y="693"/>
      <point x="191" y="697"/>
      <point x="185" y="697" type="curve" smooth="yes"/>
      <point x="0" y="697" type="line" smooth="yes"/>
      <point x="-6" y="697"/>
      <point x="-10" y="693"/>
      <point x="-10" y="687" type="curve" smooth="yes"/>
      <point x="-10" y="637" type="line" smooth="yes"/>
      <point x="-10" y="631"/>
      <point x="-6" y="627"/>
      <point x="0" y="627" type="curve" smooth="yes"/>
      <point x="110" y="627" type="line"/>
      <point x="110" y="-72" type="line"/>
      <point x="0" y="-72" type="line" smooth="yes"/>
      <point x="-6" y="-72"/>
      <point x="-10" y="-76"/>
      <point x="-10" y="-82" type="curve" smooth="yes"/>
      <point x="-10" y="-132" type="line" smooth="yes"/>
      <point x="-10" y="-138"/>
      <point x="-6" y="-142"/>
    </contour>
  </outline>
</glyph>
<glyph name="asciicircum" format="2">
  <advance width="506"/>
  <unicode hex="005E"/>
  <outline>
    <contour>
      <point x="54" y="350" type="curve" smooth="yes"/>
      <point x="116" y="350" type="line" smooth="yes"/>
      <point x="121" y="350"/>
      <point x="125" y="352"/>
      <point x="128" y="357" type="curve" smooth="yes"/>
      <point x="253" y="606" type="line"/>
      <point x="379" y="357" type="line" smooth="yes"/>
      <point x="381" y="352"/>
      <point x="386" y="350"/>
      <point x="391" y="350" type="curve" smooth="yes"/>
      <point x="453" y="350" type="line" smooth="yes"/>
      <point x="460" y="350"/>
      <point x="463" y="355"/>
      <point x="460" y="362" type="curve" smooth="yes"/>
      <point x="295" y="676" type="line" smooth="yes"/>
      <point x="292" y="681"/>
      <point x="288" y="683"/>
      <point x="283" y="683" type="curve" smooth="yes"/>
      <point x="224" y="683" type="line" smooth="yes"/>
      <point x="219" y="683"/>
      <point x="215" y="681"/>
      <point x="212" y="676" type="curve" smooth="yes"/>
      <point x="47" y="362" type="line" smooth="yes"/>
      <point x="43" y="355"/>
      <point x="47" y="350"/>
    </contour>
  </outline>
</glyph>
<glyph name="underscore" format="2">
  <advance width="540"/>
  <unicode hex="005F"/>
  <outline>
    <contour>
      <point x="10" y="-128" type="curve" smooth="yes"/>
      <point x="530" y="-128" type="line" smooth="yes"/>
      <point x="536" y="-128"/>
      <point x="540" y="-124"/>
      <point x="540" y="-118" type="curve" smooth="yes"/>
      <point x="540" y="-73" type="line" smooth="yes"/>
      <point x="540" y="-67"/>
      <point x="536" y="-63"/>
      <point x="530" y="-63" type="curve" smooth="yes"/>
      <point x="10" y="-63" type="line" smooth="yes"/>
      <point x="4" y="-63"/>
      <point x="0" y="-67"/>
      <point x="0" y="-73" type="curve" smooth="yes"/>
      <point x="0" y="-118" type="line" smooth="yes"/>
      <point x="0" y="-124"/>
      <point x="4" y="-128"/>
    </contour>
  </outline>
</glyph>
<glyph name="a" format="2">
  <advance width="494"/>
  <unicode hex="0061"/>
  <anchor x="247" y="0" name="bottom"/>
  <anchor x="439" y="10" name="ogonek"/>
  <anchor x="243" y="488" name="top"/>
  <outline>
    <contour>
      <point x="358" y="0" type="curve" smooth="yes"/>
      <point x="416" y="0" type="line" smooth="yes"/>
      <point x="423" y="0"/>
      <point x="427" y="4"/>
      <point x="426" y="11" type="curve" smooth="yes"/>
      <point x="422" y="38"/>
      <point x="419" y="74"/>
      <point x="419" y="121" type="curve" smooth="yes"/>
      <point x="419" y="335" type="line" smooth="yes"/>
      <point x="419" y="446"/>
      <point x="363" y="500"/>
      <point x="247" y="500" type="curve" smooth="yes"/>
      <point x="134" y="500"/>
      <point x="61" y="448"/>
      <point x="68" y="372" type="curve" smooth="yes"/>
      <point x="69" y="358"/>
      <point x="72" y="353"/>
      <point x="79" y="353" type="curve" smooth="yes"/>
      <point x="145" y="353" type="line" smooth="yes"/>
      <point x="151" y="353"/>
      <point x="154" y="357"/>
      <point x="154" y="363" type="curve" smooth="yes"/>
      <point x="154" y="404"/>
      <point x="184" y="425"/>
      <point x="244" y="425" type="curve" smooth="yes"/>
      <point x="310" y="425"/>
      <point x="334" y="400"/>
      <point x="334" y="333" type="curve" smooth="yes"/>
      <point x="334" y="134" type="line"/>
      <point x="337" y="96" type="line"/>
      <point x="338" y="68"/>
      <point x="344" y="25"/>
      <point x="346" y="14" type="curve" smooth="yes"/>
      <point x="348" y="6"/>
      <point x="350" y="0"/>
    </contour>
    <contour>
      <point x="167" y="-12" type="curve" smooth="yes"/>
      <point x="230" y="-12"/>
      <point x="283" y="18"/>
      <point x="353" y="94" type="curve"/>
      <point x="353" y="169" type="line"/>
      <point x="274" y="87"/>
      <point x="233" y="63"/>
      <point x="189" y="63" type="curve" smooth="yes"/>
      <point x="151" y="63"/>
      <point x="133" y="85"/>
      <point x="133" y="131" type="curve" smooth="yes"/>
      <point x="133" y="191"/>
      <point x="162" y="212"/>
      <point x="254" y="220" type="curve" smooth="yes"/>
      <point x="350" y="228" type="line"/>
      <point x="350" y="293" type="line"/>
      <point x="256" y="285" type="line" smooth="yes"/>
      <point x="104" y="272"/>
      <point x="48" y="229"/>
      <point x="48" y="125" type="curve" smooth="yes"/>
      <point x="48" y="35"/>
      <point x="89" y="-12"/>
    </contour>
  </outline>
</glyph>
<glyph name="b" format="2">
  <advance width="536"/>
  <unicode hex="0062"/>
  <outline>
    <contour>
      <point x="268" y="-12" type="curve" smooth="yes"/>
      <point x="405" y="-12"/>
      <point x="472" y="58"/>
      <point x="472" y="191" type="curve" smooth="yes"/>
      <point x="472" y="314" type="line" smooth="yes"/>
      <point x="472" y="439"/>
      <point x="420" y="500"/>
      <point x="323" y="500" type="curve" smooth="yes"/>
      <point x="261" y="500"/>
      <point x="208" y="475"/>
      <point x="145" y="416" type="curve"/>
      <point x="141" y="333" type="line"/>
      <point x="217" y="401"/>
      <point x="258" y="425"/>
      <point x="305" y="425" type="curve" smooth="yes"/>
      <point x="360" y="425"/>
      <point x="387" y="389"/>
      <point x="387" y="309" type="curve" smooth="yes"/>
      <point x="387" y="199" type="line" smooth="yes"/>
      <point x="387" y="108"/>
      <point x="346" y="63"/>
      <point x="256" y="63" type="curve" smooth="yes"/>
      <point x="229" y="63"/>
      <point x="190" y="67"/>
      <point x="160" y="73" type="curve"/>
      <point x="160" y="673" type="line" smooth="yes"/>
      <point x="160" y="679"/>
      <point x="156" y="683"/>
      <point x="150" y="683" type="curve" smooth="yes"/>
      <point x="85" y="683" type="line" smooth="yes"/>
      <point x="79" y="683"/>
      <point x="75" y="679"/>
      <point x="75" y="673" type="curve" smooth="yes"/>
      <point x="75" y="8" type="line"/>
      <point x="157" y="3"/>
      <point x="204" y="-12"/>
    </contour>
  </outline>
</glyph>
<glyph name="c" format="2">
  <advance width="517"/>
  <unicode hex="0063"/>
  <anchor x="271" y="0" name="bottom"/>
  <anchor x="332" y="10" name="ogonek"/>
  <anchor x="259" y="488" name="top"/>
  <outline>
    <contour>
      <point x="266" y="-12" type="curve" smooth="yes"/>
      <point x="388" y="-12"/>
      <point x="456" y="48"/>
      <point x="456" y="143" type="curve" smooth="yes"/>
      <point x="456" y="149"/>
      <point x="452" y="152"/>
      <point x="446" y="152" type="curve" smooth="yes"/>
      <point x="380" y="152" type="line" smooth="yes"/>
      <point x="374" y="152"/>
      <point x="371" y="147"/>
      <point x="371" y="136" type="curve" smooth="yes"/>
      <point x="371" y="94"/>
      <point x="331" y="63"/>
      <point x="267" y="63" type="curve" smooth="yes"/>
      <point x="187" y="63"/>
      <point x="147" y="105"/>
      <point x="147" y="190" type="curve" smooth="yes"/>
      <point x="147" y="298" type="line" smooth="yes"/>
      <point x="147" y="385"/>
      <point x="187" y="425"/>
      <point x="268" y="425" type="curve" smooth="yes"/>
      <point x="332" y="425"/>
      <point x="372" y="397"/>
      <point x="372" y="351" type="curve" smooth="yes"/>
      <point x="372" y="340"/>
      <point x="375" y="335"/>
      <point x="381" y="335" type="curve" smooth="yes"/>
      <point x="447" y="335" type="line" smooth="yes"/>
      <point x="454" y="335"/>
      <point x="457" y="341"/>
      <point x="457" y="358" type="curve" smooth="yes"/>
      <point x="457" y="443"/>
      <point x="385" y="500"/>
      <point x="268" y="500" type="curve" smooth="yes"/>
      <point x="135" y="500"/>
      <point x="62" y="431"/>
      <point x="62" y="306" type="curve" smooth="yes"/>
      <point x="62" y="182" type="line" smooth="yes"/>
      <point x="62" y="57"/>
      <point x="132" y="-12"/>
    </contour>
  </outline>
</glyph>
<glyph name="d" format="2">
  <advance width="543"/>
  <unicode hex="0064"/>
  <anchor x="271" y="0" name="bottom"/>
  <anchor x="271" y="244" name="center"/>
  <anchor x="271" y="488" name="top"/>
  <anchor x="522" y="488" name="topright"/>
  <outline>
    <contour>
      <point x="209" y="-12" type="curve" smooth="yes"/>
      <point x="277" y="-12"/>
      <point x="331" y="19"/>
      <point x="399" y="88" type="curve"/>
      <point x="401" y="166" type="line"/>
      <point x="322" y="88"/>
      <point x="281" y="63"/>
      <point x="231" y="63" type="curve" smooth="yes"/>
      <point x="176" y="63"/>
      <point x="149" y="98"/>
      <point x="149" y="169" type="curve" smooth="yes"/>
      <point x="149" y="289" type="line" smooth="yes"/>
      <point x="149" y="379"/>
      <point x="185" y="425"/>
      <point x="260" y="425" type="curve" smooth="yes"/>
      <point x="299" y="425"/>
      <point x="354" y="412"/>
      <point x="397" y="390" type="curve"/>
      <point x="392" y="463" type="line"/>
      <point x="362" y="484"/>
      <point x="297" y="500"/>
      <point x="245" y="500" type="curve" smooth="yes"/>
      <point x="131" y="500"/>
      <point x="64" y="425"/>
      <point x="64" y="299" type="curve" smooth="yes"/>
      <point x="64" y="174" type="line" smooth="yes"/>
      <point x="64" y="51"/>
      <point x="115" y="-12"/>
    </contour>
    <contour>
      <point x="406" y="0" type="curve" smooth="yes"/>
      <point x="464" y="0" type="line" smooth="yes"/>
      <point x="472" y="0"/>
      <point x="476" y="5"/>
      <point x="474" y="14" type="curve" smooth="yes"/>
      <point x="470" y="33"/>
      <point x="467" y="85"/>
      <point x="467" y="113" type="curve" smooth="yes"/>
      <point x="467" y="673" type="line" smooth="yes"/>
      <point x="467" y="679"/>
      <point x="463" y="683"/>
      <point x="457" y="683" type="curve" smooth="yes"/>
      <point x="392" y="683" type="line" smooth="yes"/>
      <point x="386" y="683"/>
      <point x="382" y="679"/>
      <point x="382" y="673" type="curve" smooth="yes"/>
      <point x="382" y="132" type="line"/>
      <point x="387" y="87" type="line"/>
      <point x="386" y="67"/>
      <point x="391" y="31"/>
      <point x="394" y="11" type="curve" smooth="yes"/>
      <point x="395" y="3"/>
      <point x="399" y="0"/>
    </contour>
  </outline>
</glyph>
<glyph name="f" format="2">
  <advance width="367"/>
  <unicode hex="0066"/>
  <anchor x="184" y="0" name="bottom"/>
  <anchor x="184" y="488" name="top"/>
  <outline>
    <contour>
      <point x="117" y="0" type="curve" smooth="yes"/>
      <point x="182" y="0" type="line" smooth="yes"/>
      <point x="188" y="0"/>
      <point x="192" y="4"/>
      <point x="192" y="10" type="curve" smooth="yes"/>
      <point x="192" y="415" type="line"/>
      <point x="337" y="415" type="line" smooth="yes"/>
      <point x="343" y="415"/>
      <point x="347" y="419"/>
      <point x="347" y="425" type="curve" smooth="yes"/>
      <point x="347" y="478" type="line" smooth="yes"/>
      <point x="347" y="484"/>
      <point x="343" y="488"/>
      <point x="337" y="488" type="curve" smooth="yes"/>
      <point x="192" y="488" type="line"/>
      <point x="192" y="538" type="line" smooth="yes"/>
      <point x="192" y="592"/>
      <point x="221" y="621"/>
      <point x="276" y="621" type="curve" smooth="yes"/>
      <point x="300" y="621"/>
      <point x="333" y="614"/>
      <point x="354" y="605" type="curve" smooth="yes"/>
      <point x="372" y="597"/>
      <point x="377" y="601"/>
      <point x="377" y="609" type="curve" smooth="yes"/>
      <point x="377" y="662" type="line" smooth="yes"/>
      <point x="377" y="669"/>
      <point x="371" y="674"/>
      <point x="358" y="679" type="curve" smooth="yes"/>
      <point x="335" y="688"/>
      <point x="300" y="695"/>
      <point x="270" y="695" type="curve" smooth="yes"/>
      <point x="168" y="695"/>
      <point x="107" y="638"/>
      <point x="107" y="540" type="curve" smooth="yes"/>
      <point x="107" y="488" type="line"/>
      <point x="30" y="488" type="line" smooth="yes"/>
      <point x="24" y="488"/>
      <point x="20" y="484"/>
      <point x="20" y="478" type="curve" smooth="yes"/>
      <point x="20" y="425" type="line" smooth="yes"/>
      <point x="20" y="419"/>
      <point x="24" y="415"/>
      <point x="30" y="415" type="curve" smooth="yes"/>
      <point x="107" y="415" type="line"/>
      <point x="107" y="10" type="line" smooth="yes"/>
      <point x="107" y="4"/>
      <point x="111" y="0"/>
    </contour>
  </outline>
</glyph>
<glyph name="g" format="2">
  <advance width="517"/>
  <unicode hex="0067"/>
  <guideline x="79" y="247" angle="90"/>
  <anchor x="260" y="0" name="bottom"/>
  <anchor x="260" y="488" name="top"/>
  <outline>
    <contour>
      <point x="255" y="-197" type="curve" smooth="yes"/>
      <point x="414" y="-197"/>
      <point x="483" y="-156"/>
      <point x="483" y="-54" type="curve" smooth="yes"/>
      <point x="483" y="32"/>
      <point x="444" y="77"/>
      <point x="365" y="82" type="curve" smooth="yes"/>
      <point x="199" y="92" type="line" smooth="yes"/>
      <point x="165" y="94"/>
      <point x="150" y="103"/>
      <point x="150" y="127" type="curve" smooth="yes"/>
      <point x="150" y="149"/>
      <point x="163" y="167"/>
      <point x="192" y="179" type="curve"/>
      <point x="138" y="211" type="line"/>
      <point x="90" y="175"/>
      <point x="72" y="151"/>
      <point x="72" y="109" type="curve" smooth="yes"/>
      <point x="72" y="48"/>
      <point x="112" y="20"/>
      <point x="154" y="18" type="curve" smooth="yes"/>
      <point x="339" y="8" type="line" smooth="yes"/>
      <point x="382" y="6"/>
      <point x="399" y="-11"/>
      <point x="399" y="-50" type="curve" smooth="yes"/>
      <point x="399" y="-107"/>
      <point x="364" y="-125"/>
      <point x="259" y="-125" type="curve" smooth="yes"/>
      <point x="158" y="-125"/>
      <point x="123" y="-107"/>
      <point x="123" y="-54" type="curve" smooth="yes"/>
      <point x="123" y="-17"/>
      <point x="141" y="12"/>
      <point x="181" y="24" type="curve"/>
      <point x="114" y="51" type="line"/>
      <point x="61" y="25"/>
      <point x="35" y="-15"/>
      <point x="35" y="-70" type="curve" smooth="yes"/>
      <point x="35" y="-156"/>
      <point x="99" y="-197"/>
    </contour>
    <contour>
      <point x="263" y="158" type="curve" smooth="yes"/>
      <point x="389" y="158"/>
      <point x="447" y="212"/>
      <point x="447" y="328" type="curve" smooth="yes"/>
      <point x="447" y="444"/>
      <point x="388" y="500"/>
      <point x="266" y="500" type="curve" smooth="yes"/>
      <point x="138" y="500"/>
      <point x="79" y="445"/>
      <point x="79" y="329" type="curve" smooth="yes"/>
      <point x="79" y="213"/>
      <point x="137" y="158"/>
    </contour>
    <contour>
      <point x="263" y="232" type="curve" smooth="yes"/>
      <point x="189" y="232"/>
      <point x="164" y="257"/>
      <point x="164" y="328" type="curve" smooth="yes"/>
      <point x="164" y="400"/>
      <point x="190" y="426"/>
      <point x="263" y="426" type="curve" smooth="yes"/>
      <point x="336" y="426"/>
      <point x="362" y="400"/>
      <point x="362" y="328" type="curve" smooth="yes"/>
      <point x="362" y="257"/>
      <point x="337" y="232"/>
    </contour>
    <contour>
      <point x="385" y="444" type="line"/>
      <point x="398" y="528"/>
      <point x="406" y="567"/>
      <point x="419" y="608" type="curve" smooth="yes"/>
      <point x="421" y="614"/>
      <point x="419" y="618"/>
      <point x="411" y="618" type="curve" smooth="yes"/>
      <point x="348" y="618" type="line" smooth="yes"/>
      <point x="341" y="618"/>
      <point x="338" y="614"/>
      <point x="336" y="606" type="curve" smooth="yes"/>
      <point x="329" y="577"/>
      <point x="322" y="536"/>
      <point x="315" y="474" type="curve"/>
    </contour>
  </outline>
</glyph>
<glyph name="l" format="2">
  <advance width="235"/>
  <unicode hex="006C"/>
  <anchor x="118" y="0" name="bottom"/>
  <anchor x="118" y="244" name="center"/>
  <anchor x="118" y="683" name="top"/>
  <anchor x="215" y="488" name="topright"/>
  <outline>
    <contour>
      <point x="85" y="0" type="curve" smooth="yes"/>
      <point x="150" y="0" type="line" smooth="yes"/>
      <point x="156" y="0"/>
      <point x="160" y="4"/>
      <point x="160" y="10" type="curve" smooth="yes"/>
      <point x="160" y="673" type="line" smooth="yes"/>
      <point x="160" y="679"/>
      <point x="156" y="683"/>
      <point x="150" y="683" type="curve" smooth="yes"/>
      <point x="85" y="683" type="line" smooth="yes"/>
      <point x="79" y="683"/>
      <point x="75" y="679"/>
      <point x="75" y="673" type="curve" smooth="yes"/>
      <point x="75" y="10" type="line" smooth="yes"/>
      <point x="75" y="4"/>
      <point x="79" y="0"/>
    </contour>
  </outline>
</glyph>
<glyph name="m" format="2">
  <advance width="845"/>
  <unicode hex="006D"/>
  <anchor x="423" y="0" name="bottom"/>
  <anchor x="423" y="488" name="top"/>
  <outline>
    <contour>
      <point x="85" y="0" type="curve" smooth="yes"/>
      <point x="150" y="0" type="line" smooth="yes"/>
      <point x="156" y="0"/>
      <point x="160" y="4"/>
      <point x="160" y="10" type="curve" smooth="yes"/>
      <point x="160" y="340" type="line"/>
      <point x="221" y="399"/>
      <point x="264" y="425"/>
      <point x="308" y="425" type="curve" smooth="yes"/>
      <point x="357" y="425"/>
      <point x="380" y="393"/>
      <point x="380" y="329" type="curve" smooth="yes"/>
      <point x="380" y="10" type="line" smooth="yes"/>
      <point x="380" y="4"/>
      <point x="384" y="0"/>
      <point x="390" y="0" type="curve" smooth="yes"/>
      <point x="455" y="0" type="line" smooth="yes"/>
      <point x="461" y="0"/>
      <point x="465" y="4"/>
      <point x="465" y="10" type="curve" smooth="yes"/>
      <point x="465" y="340" type="line"/>
      <point x="526" y="399"/>
      <point x="569" y="425"/>
      <point x="613" y="425" type="curve" smooth="yes"/>
      <point x="662" y="425"/>
      <point x="685" y="393"/>
      <point x="685" y="329" type="curve" smooth="yes"/>
      <point x="685" y="10" type="line" smooth="yes"/>
      <point x="685" y="4"/>
      <point x="689" y="0"/>
      <point x="695" y="0" type="curve" smooth="yes"/>
      <point x="760" y="0" type="line" smooth="yes"/>
      <point x="766" y="0"/>
      <point x="770" y="4"/>
      <point x="770" y="10" type="curve" smooth="yes"/>
      <point x="770" y="334" type="line" smooth="yes"/>
      <point x="770" y="443"/>
      <point x="723" y="500"/>
      <point x="634" y="500" type="curve" smooth="yes"/>
      <point x="570" y="500"/>
      <point x="520" y="472"/>
      <point x="456" y="407" type="curve"/>
      <point x="439" y="468"/>
      <point x="397" y="500"/>
      <point x="329" y="500" type="curve" smooth="yes"/>
      <point x="267" y="500"/>
      <point x="218" y="474"/>
      <point x="158" y="414" type="curve"/>
      <point x="156" y="438"/>
      <point x="152" y="461"/>
      <point x="149" y="481" type="curve" smooth="yes"/>
      <point x="148" y="487"/>
      <point x="146" y="488"/>
      <point x="139" y="488" type="curve" smooth="yes"/>
      <point x="79" y="488" type="line" smooth="yes"/>
      <point x="71" y="488"/>
      <point x="67" y="483"/>
      <point x="68" y="476" type="curve" smooth="yes"/>
      <point x="73" y="444"/>
      <point x="75" y="402"/>
      <point x="75" y="366" type="curve" smooth="yes"/>
      <point x="75" y="10" type="line" smooth="yes"/>
      <point x="75" y="4"/>
      <point x="79" y="0"/>
    </contour>
  </outline>
</glyph>
<glyph name="n" format="2">
  <advance width="556"/>
  <unicode hex="006E"/>
  <anchor x="7" y="488" name="apo"/>
  <anchor x="286" y="0" name="bottom"/>
  <anchor x="282" y="488" name="top"/>
  <outline>
    <contour>
      <point x="406" y="0" type="curve" smooth="yes"/>
      <point x="471" y="0" type="line" smooth="yes"/>
      <point x="477" y="0"/>
      <point x="481" y="4"/>
      <point x="481" y="10" type="curve" smooth="yes"/>
      <point x="481" y="333" type="line" smooth="yes"/>
      <point x="481" y="443"/>
      <point x="429" y="500"/>
      <point x="333" y="500" type="curve" smooth="yes"/>
      <point x="264" y="500"/>
      <point x="211" y="471"/>
      <point x="143" y="400" type="curve"/>
      <point x="142" y="323" type="line"/>
      <point x="218" y="398"/>
      <point x="262" y="425"/>
      <point x="314" y="425" type="curve" smooth="yes"/>
      <point x="369" y="425"/>
      <point x="396" y="395"/>
      <point x="396" y="329" type="curve" smooth="yes"/>
      <point x="396" y="10" type="line" smooth="yes"/>
      <point x="396" y="4"/>
      <point x="400" y="0"/>
    </contour>
    <contour>
      <point x="85" y="0" type="curve" smooth="yes"/>
      <point x="150" y="0" type="line" smooth="yes"/>
      <point x="156" y="0"/>
      <point x="160" y="4"/>
      <point x="160" y="10" type="curve" smooth="yes"/>
      <point x="160" y="360" type="line"/>
      <point x="160" y="386" type="line"/>
      <point x="159" y="412"/>
      <point x="154" y="461"/>
      <point x="150" y="478" type="curve" smooth="yes"/>
      <point x="148" y="486"/>
      <point x="146" y="488"/>
      <point x="139" y="488" type="curve" smooth="yes"/>
      <point x="78" y="488" type="line" smooth="yes"/>
      <point x="70" y="488"/>
      <point x="67" y="483"/>
      <point x="68" y="475" type="curve" smooth="yes"/>
      <point x="71" y="451"/>
      <point x="75" y="400"/>
      <point x="75" y="366" type="curve" smooth="yes"/>
      <point x="75" y="10" type="line" smooth="yes"/>
      <point x="75" y="4"/>
      <point x="79" y="0"/>
    </contour>
  </outline>
</glyph>
<glyph name="p" format="2">
  <advance width="537"/>
  <unicode hex="0070"/>
  <anchor x="269" y="0" name="bottom"/>
  <anchor x="269" y="488" name="top"/>
  <outline>
    <contour>
      <point x="294" y="-12" type="curve" smooth="yes"/>
      <point x="410" y="-12"/>
      <point x="473" y="60"/>
      <point x="473" y="189" type="curve" smooth="yes"/>
      <point x="473" y="314" type="line" smooth="yes"/>
      <point x="473" y="439"/>
      <point x="421" y="500"/>
      <point x="323" y="500" type="curve" smooth="yes"/>
      <point x="259" y="500"/>
      <point x="209" y="474"/>
      <point x="141" y="412" type="curve"/>
      <point x="141" y="332" type="line"/>
      <point x="218" y="401"/>
      <point x="258" y="425"/>
      <point x="305" y="425" type="curve" smooth="yes"/>
      <point x="360" y="425"/>
      <point x="388" y="389"/>
      <point x="388" y="309" type="curve" smooth="yes"/>
      <point x="388" y="199" type="line" smooth="yes"/>
      <point x="388" y="108"/>
      <point x="353" y="63"/>
      <point x="276" y="63" type="curve" smooth="yes"/>
      <point x="235" y="63"/>
      <point x="184" y="75"/>
      <point x="146" y="97" type="curve"/>
      <point x="149" y="25" type="line"/>
      <point x="182" y="2"/>
      <point x="243" y="-12"/>
    </contour>
    <contour>
      <point x="85" y="-185" type="curve" smooth="yes"/>
      <point x="150" y="-185" type="line" smooth="yes"/>
      <point x="156" y="-185"/>
      <point x="160" y="-181"/>
      <point x="160" y="-175" type="curve" smooth="yes"/>
      <point x="160" y="365" type="line"/>
      <point x="157" y="415" type="line"/>
      <point x="159" y="425"/>
      <point x="153" y="464"/>
      <point x="150" y="478" type="curve" smooth="yes"/>
      <point x="149" y="485"/>
      <point x="146" y="488"/>
      <point x="139" y="488" type="curve" smooth="yes"/>
      <point x="78" y="488" type="line" smooth="yes"/>
      <point x="72" y="488"/>
      <point x="67" y="484"/>
      <point x="68" y="476" type="curve" smooth="yes"/>
      <point x="72" y="447"/>
      <point x="75" y="405"/>
      <point x="75" y="375" type="curve" smooth="yes"/>
      <point x="75" y="-175" type="line" smooth="yes"/>
      <point x="75" y="-181"/>
      <point x="79" y="-185"/>
    </contour>
  </outline>
</glyph>
<glyph name="q" format="2">
  <advance width="541"/>
  <unicode hex="0071"/>
  <anchor x="271" y="0" name="bottom"/>
  <anchor x="271" y="488" name="top"/>
  <outline>
    <contour>
      <point x="391" y="-185" type="curve" smooth="yes"/>
      <point x="456" y="-185" type="line" smooth="yes"/>
      <point x="462" y="-185"/>
      <point x="466" y="-181"/>
      <point x="466" y="-175" type="curve" smooth="yes"/>
      <point x="466" y="475" type="line"/>
      <point x="387" y="480"/>
      <point x="342" y="500"/>
      <point x="268" y="500" type="curve" smooth="yes"/>
      <point x="132" y="500"/>
      <point x="64" y="432"/>
      <point x="64" y="297" type="curve" smooth="yes"/>
      <point x="64" y="174" type="line" smooth="yes"/>
      <point x="64" y="49"/>
      <point x="112" y="-12"/>
      <point x="212" y="-12" type="curve" smooth="yes"/>
      <point x="276" y="-12"/>
      <point x="330" y="12"/>
      <point x="392" y="69" type="curve"/>
      <point x="395" y="150" type="line"/>
      <point x="320" y="85"/>
      <point x="279" y="63"/>
      <point x="231" y="63" type="curve" smooth="yes"/>
      <point x="174" y="63"/>
      <point x="149" y="98"/>
      <point x="149" y="179" type="curve" smooth="yes"/>
      <point x="149" y="289" type="line" smooth="yes"/>
      <point x="149" y="384"/>
      <point x="187" y="425"/>
      <point x="276" y="425" type="curve" smooth="yes"/>
      <point x="305" y="425"/>
      <point x="347" y="421"/>
      <point x="381" y="414" type="curve"/>
      <point x="381" y="-175" type="line" smooth="yes"/>
      <point x="381" y="-181"/>
      <point x="385" y="-185"/>
    </contour>
  </outline>
</glyph>
<glyph name="r" format="2">
  <advance width="356"/>
  <unicode hex="0072"/>
  <anchor x="121" y="0" name="bottom"/>
  <anchor x="208" y="488" name="top"/>
  <outline>
    <contour>
      <point x="85" y="0" type="curve" smooth="yes"/>
      <point x="150" y="0" type="line" smooth="yes"/>
      <point x="156" y="0"/>
      <point x="160" y="4"/>
      <point x="160" y="10" type="curve" smooth="yes"/>
      <point x="160" y="341" type="line"/>
      <point x="158" y="394" type="line"/>
      <point x="158" y="417"/>
      <point x="155" y="453"/>
      <point x="150" y="479" type="curve" smooth="yes"/>
      <point x="149" y="485"/>
      <point x="145" y="488"/>
      <point x="139" y="488" type="curve" smooth="yes"/>
      <point x="78" y="488" type="line" smooth="yes"/>
      <point x="72" y="488"/>
      <point x="67" y="484"/>
      <point x="68" y="477" type="curve" smooth="yes"/>
      <point x="73" y="441"/>
      <point x="75" y="406"/>
      <point x="75" y="369" type="curve" smooth="yes"/>
      <point x="75" y="10" type="line" smooth="yes"/>
      <point x="75" y="4"/>
      <point x="79" y="0"/>
    </contour>
    <contour>
      <point x="149" y="311" type="line"/>
      <point x="187" y="363"/>
      <point x="239" y="398"/>
      <point x="289" y="398" type="curve" smooth="yes"/>
      <point x="302" y="398"/>
      <point x="314" y="397"/>
      <point x="325" y="394" type="curve" smooth="yes"/>
      <point x="332" y="392"/>
      <point x="337" y="395"/>
      <point x="338" y="402" type="curve" smooth="yes"/>
      <point x="342" y="429"/>
      <point x="342" y="459"/>
      <point x="340" y="487" type="curve" smooth="yes"/>
      <point x="339" y="492"/>
      <point x="337" y="495"/>
      <point x="331" y="497" type="curve" smooth="yes"/>
      <point x="325" y="499"/>
      <point x="317" y="500"/>
      <point x="304" y="500" type="curve" smooth="yes"/>
      <point x="256" y="500"/>
      <point x="189" y="454"/>
      <point x="147" y="393" type="curve"/>
    </contour>
  </outline>
</glyph>
<glyph name="s" format="2">
  <advance width="464"/>
  <unicode hex="0073"/>
  <anchor x="245" y="0" name="bottom"/>
  <anchor x="228" y="488" name="top"/>
  <outline>
    <contour>
      <point x="233" y="-12" type="curve" smooth="yes"/>
      <point x="352" y="-12"/>
      <point x="418" y="39"/>
      <point x="418" y="131" type="curve" smooth="yes"/>
      <point x="418" y="193"/>
      <point x="388" y="230"/>
      <point x="317" y="260" type="curve" smooth="yes"/>
      <point x="203" y="308" type="line" smooth="yes"/>
      <point x="156" y="328"/>
      <point x="145" y="337"/>
      <point x="145" y="367" type="curve" smooth="yes"/>
      <point x="145" y="407"/>
      <point x="172" y="426"/>
      <point x="230" y="426" type="curve" smooth="yes"/>
      <point x="286" y="426"/>
      <point x="320" y="405"/>
      <point x="320" y="371" type="curve" smooth="yes"/>
      <point x="320" y="359"/>
      <point x="324" y="355"/>
      <point x="330" y="355" type="curve" smooth="yes"/>
      <point x="396" y="355" type="line" smooth="yes"/>
      <point x="402" y="355"/>
      <point x="406" y="358"/>
      <point x="406" y="364" type="curve" smooth="yes"/>
      <point x="406" y="450"/>
      <point x="340" y="500"/>
      <point x="227" y="500" type="curve" smooth="yes"/>
      <point x="116" y="500"/>
      <point x="60" y="455"/>
      <point x="60" y="367" type="curve" smooth="yes"/>
      <point x="60" y="305"/>
      <point x="88" y="270"/>
      <point x="161" y="240" type="curve" smooth="yes"/>
      <point x="275" y="193" type="line" smooth="yes"/>
      <point x="315" y="176"/>
      <point x="333" y="156"/>
      <point x="333" y="126" type="curve" smooth="yes"/>
      <point x="333" y="84"/>
      <point x="299" y="62"/>
      <point x="234" y="62" type="curve" smooth="yes"/>
      <point x="166" y="62"/>
      <point x="138" y="87"/>
      <point x="138" y="147" type="curve" smooth="yes"/>
      <point x="138" y="152"/>
      <point x="135" y="155"/>
      <point x="129" y="155" type="curve" smooth="yes"/>
      <point x="63" y="155" type="line" smooth="yes"/>
      <point x="57" y="155"/>
      <point x="53" y="152"/>
      <point x="53" y="146" type="curve" smooth="yes"/>
      <point x="53" y="40"/>
      <point x="113" y="-12"/>
    </contour>
  </outline>
</glyph>
<glyph name="t" format="2">
  <advance width="385"/>
  <unicode hex="0074"/>
  <anchor x="236" y="0" name="bottom"/>
  <anchor x="194" y="244" name="center"/>
  <anchor x="194" y="488" name="top"/>
  <anchor x="367" y="488" name="topright"/>
  <outline>
    <contour>
      <point x="246" y="-12" type="curve" smooth="yes"/>
      <point x="288" y="-12"/>
      <point x="320" y="-5"/>
      <point x="344" y="5" type="curve" smooth="yes"/>
      <point x="350" y="7"/>
      <point x="352" y="11"/>
      <point x="352" y="16" type="curve" smooth="yes"/>
      <point x="352" y="71" type="line" smooth="yes"/>
      <point x="352" y="78"/>
      <point x="347" y="81"/>
      <point x="340" y="78" type="curve" smooth="yes"/>
      <point x="320" y="69"/>
      <point x="292" y="62"/>
      <point x="265" y="62" type="curve" smooth="yes"/>
      <point x="212" y="62"/>
      <point x="192" y="84"/>
      <point x="192" y="147" type="curve" smooth="yes"/>
      <point x="192" y="415" type="line"/>
      <point x="341" y="415" type="line" smooth="yes"/>
      <point x="347" y="415"/>
      <point x="351" y="419"/>
      <point x="351" y="425" type="curve" smooth="yes"/>
      <point x="351" y="478" type="line" smooth="yes"/>
      <point x="351" y="484"/>
      <point x="347" y="488"/>
      <point x="341" y="488" type="curve" smooth="yes"/>
      <point x="192" y="488" type="line"/>
      <point x="191" y="608" type="line" smooth="yes"/>
      <point x="191" y="615"/>
      <point x="187" y="618"/>
      <point x="181" y="618" type="curve" smooth="yes"/>
      <point x="131" y="618" type="line" smooth="yes"/>
      <point x="125" y="618"/>
      <point x="121" y="615"/>
      <point x="120" y="608" type="curve" smooth="yes"/>
      <point x="109" y="488" type="line"/>
      <point x="30" y="488" type="line" smooth="yes"/>
      <point x="24" y="488"/>
      <point x="20" y="484"/>
      <point x="20" y="478" type="curve" smooth="yes"/>
      <point x="20" y="425" type="line" smooth="yes"/>
      <point x="20" y="419"/>
      <point x="24" y="415"/>
      <point x="30" y="415" type="curve" smooth="yes"/>
      <point x="107" y="415" type="line"/>
      <point x="107" y="145" type="line" smooth="yes"/>
      <point x="107" y="40"/>
      <point x="144" y="-12"/>
    </contour>
  </outline>
</glyph>
<glyph name="v" format="2">
  <advance width="496"/>
  <unicode hex="0076"/>
  <anchor x="248" y="0" name="bottom"/>
  <anchor x="248" y="488" name="top"/>
  <outline>
    <contour>
      <point x="201" y="0" type="curve" smooth="yes"/>
      <point x="294" y="0" type="line" smooth="yes"/>
      <point x="299" y="0"/>
      <point x="304" y="2"/>
      <point x="306" y="8" type="curve" smooth="yes"/>
      <point x="470" y="477" type="line" smooth="yes"/>
      <point x="472" y="484"/>
      <point x="469" y="488"/>
      <point x="462" y="488" type="curve" smooth="yes"/>
      <point x="393" y="488" type="line" smooth="yes"/>
      <point x="388" y="488"/>
      <point x="383" y="485"/>
      <point x="381" y="480" type="curve" smooth="yes"/>
      <point x="292" y="199" type="line" smooth="yes"/>
      <point x="277" y="153"/>
      <point x="262" y="108"/>
      <point x="249" y="62" type="curve"/>
      <point x="247" y="62" type="line"/>
      <point x="234" y="108"/>
      <point x="219" y="154"/>
      <point x="204" y="200" type="curve" smooth="yes"/>
      <point x="115" y="480" type="line" smooth="yes"/>
      <point x="113" y="485"/>
      <point x="108" y="488"/>
      <point x="103" y="488" type="curve" smooth="yes"/>
      <point x="34" y="488" type="line" smooth="yes"/>
      <point x="27" y="488"/>
      <point x="24" y="484"/>
      <point x="26" y="477" type="curve" smooth="yes"/>
      <point x="189" y="8" type="line" smooth="yes"/>
      <point x="191" y="3"/>
      <point x="196" y="0"/>
    </contour>
  </outline>
</glyph>
<glyph name="w" format="2">
  <advance width="716"/>
  <unicode hex="0077"/>
  <anchor x="358" y="0" name="bottom"/>
  <anchor x="358" y="488" name="top"/>
  <outline>
    <contour>
      <point x="182" y="0" type="curve" smooth="yes"/>
      <point x="273" y="0" type="line" smooth="yes"/>
      <point x="278" y="0"/>
      <point x="282" y="2"/>
      <point x="284" y="8" type="curve" smooth="yes"/>
      <point x="318" y="113" type="line" smooth="yes"/>
      <point x="332" y="157"/>
      <point x="346" y="201"/>
      <point x="360" y="254" type="curve"/>
      <point x="362" y="254" type="line"/>
      <point x="375" y="200"/>
      <point x="387" y="155"/>
      <point x="400" y="110" type="curve" smooth="yes"/>
      <point x="431" y="8" type="line" smooth="yes"/>
      <point x="433" y="2"/>
      <point x="437" y="0"/>
      <point x="442" y="0" type="curve" smooth="yes"/>
      <point x="533" y="0" type="line" smooth="yes"/>
      <point x="539" y="0"/>
      <point x="542" y="3"/>
      <point x="544" y="9" type="curve" smooth="yes"/>
      <point x="690" y="477" type="line" smooth="yes"/>
      <point x="692" y="484"/>
      <point x="689" y="488"/>
      <point x="682" y="488" type="curve" smooth="yes"/>
      <point x="612" y="488" type="line" smooth="yes"/>
      <point x="606" y="488"/>
      <point x="603" y="485"/>
      <point x="601" y="479" type="curve" smooth="yes"/>
      <point x="521" y="201" type="line" smooth="yes"/>
      <point x="509" y="159"/>
      <point x="498" y="117"/>
      <point x="486" y="75" type="curve"/>
      <point x="484" y="75" type="line"/>
      <point x="473" y="116"/>
      <point x="463" y="157"/>
      <point x="452" y="198" type="curve" smooth="yes"/>
      <point x="378" y="470" type="line" smooth="yes"/>
      <point x="377" y="475"/>
      <point x="373" y="478"/>
      <point x="367" y="478" type="curve" smooth="yes"/>
      <point x="304" y="478" type="line" smooth="yes"/>
      <point x="297" y="478"/>
      <point x="294" y="474"/>
      <point x="296" y="467" type="curve" smooth="yes"/>
      <point x="326" y="366" type="line"/>
      <point x="272" y="199" type="line" smooth="yes"/>
      <point x="259" y="158"/>
      <point x="245" y="116"/>
      <point x="232" y="75" type="curve"/>
      <point x="230" y="75" type="line"/>
      <point x="218" y="118"/>
      <point x="206" y="160"/>
      <point x="194" y="203" type="curve" smooth="yes"/>
      <point x="115" y="479" type="line"/>
      <point x="113" y="485"/>
      <point x="110" y="488"/>
      <point x="104" y="488" type="curve" smooth="yes"/>
      <point x="34" y="488" type="line" smooth="yes"/>
      <point x="27" y="488"/>
      <point x="24" y="484"/>
      <point x="26" y="477" type="curve" smooth="yes"/>
      <point x="171" y="9" type="line" smooth="yes"/>
      <point x="173" y="3"/>
      <point x="176" y="0"/>
    </contour>
  </outline>
</glyph>
<glyph name="x" format="2">
  <advance width="477"/>
  <unicode hex="0078"/>
  <anchor x="239" y="0" name="bottom"/>
  <anchor x="239" y="488" name="top"/>
  <outline>
    <contour>
      <point x="18" y="0" type="curve" smooth="yes"/>
      <point x="95" y="0" type="line" smooth="yes"/>
      <point x="100" y="0"/>
      <point x="104" y="1"/>
      <point x="107" y="6" type="curve" smooth="yes"/>
      <point x="173" y="100" type="line" smooth="yes"/>
      <point x="194" y="131"/>
      <point x="216" y="163"/>
      <point x="236" y="194" type="curve"/>
      <point x="237" y="194" type="line"/>
      <point x="258" y="163"/>
      <point x="280" y="131"/>
      <point x="302" y="100" type="curve" smooth="yes"/>
      <point x="369" y="6" type="line" smooth="yes"/>
      <point x="372" y="1"/>
      <point x="376" y="0"/>
      <point x="381" y="0" type="curve" smooth="yes"/>
      <point x="459" y="0" type="line" smooth="yes"/>
      <point x="467" y="0"/>
      <point x="470" y="6"/>
      <point x="465" y="12" type="curve" smooth="yes"/>
      <point x="290" y="254" type="line"/>
      <point x="451" y="476" type="line" smooth="yes"/>
      <point x="456" y="482"/>
      <point x="453" y="488"/>
      <point x="445" y="488" type="curve" smooth="yes"/>
      <point x="372" y="488" type="line" smooth="yes"/>
      <point x="367" y="488"/>
      <point x="363" y="487"/>
      <point x="360" y="482" type="curve" smooth="yes"/>
      <point x="293" y="387" type="line" smooth="yes"/>
      <point x="275" y="362"/>
      <point x="256" y="334"/>
      <point x="239" y="309" type="curve"/>
      <point x="238" y="309" type="line"/>
      <point x="223" y="332"/>
      <point x="206" y="358"/>
      <point x="190" y="381" type="curve" smooth="yes"/>
      <point x="120" y="482" type="line" smooth="yes"/>
      <point x="117" y="487"/>
      <point x="113" y="488"/>
      <point x="108" y="488" type="curve" smooth="yes"/>
      <point x="30" y="488" type="line" smooth="yes"/>
      <point x="22" y="488"/>
      <point x="19" y="482"/>
      <point x="24" y="476" type="curve" smooth="yes"/>
      <point x="185" y="251" type="line"/>
      <point x="12" y="12" type="line" smooth="yes"/>
      <point x="7" y="6"/>
      <point x="10" y="0"/>
    </contour>
  </outline>
</glyph>
<glyph name="y" format="2">
  <advance width="497"/>
  <unicode hex="0079"/>
  <anchor x="248" y="0" name="bottom"/>
  <anchor x="246" y="488" name="top"/>
  <outline>
    <contour>
      <point x="145" y="-185" type="curve" smooth="yes"/>
      <point x="210" y="-185" type="line" smooth="yes"/>
      <point x="215" y="-185"/>
      <point x="219" y="-183"/>
      <point x="221" y="-177" type="curve"/>
      <point x="474" y="476" type="line"/>
      <point x="477" y="483"/>
      <point x="473" y="488"/>
      <point x="466" y="488" type="curve" smooth="yes"/>
      <point x="399" y="488" type="line" smooth="yes"/>
      <point x="394" y="488"/>
      <point x="389" y="486"/>
      <point x="387" y="480" type="curve" smooth="yes"/>
      <point x="297" y="238" type="line" smooth="yes"/>
      <point x="282" y="196"/>
      <point x="265" y="151"/>
      <point x="250" y="109" type="curve"/>
      <point x="249" y="109" type="line"/>
      <point x="234" y="151"/>
      <point x="219" y="196"/>
      <point x="203" y="238" type="curve" smooth="yes"/>
      <point x="113" y="480" type="line" smooth="yes"/>
      <point x="111" y="486"/>
      <point x="107" y="488"/>
      <point x="102" y="488" type="curve" smooth="yes"/>
      <point x="31" y="488" type="line" smooth="yes"/>
      <point x="24" y="488"/>
      <point x="21" y="483"/>
      <point x="24" y="476" type="curve" smooth="yes"/>
      <point x="209" y="6" type="line"/>
      <point x="138" y="-173" type="line" smooth="yes"/>
      <point x="135" y="-180"/>
      <point x="138" y="-185"/>
    </contour>
  </outline>
</glyph>
<glyph name="z" format="2">
  <advance width="464"/>
  <unicode hex="007A"/>
  <guideline x="429" y="390" angle="90"/>
  <anchor x="232" y="0" name="bottom"/>
  <anchor x="244" y="488" name="top"/>
  <outline>
    <contour>
      <point x="35" y="0" type="curve" smooth="yes"/>
      <point x="418" y="0" type="line" smooth="yes"/>
      <point x="424" y="0"/>
      <point x="428" y="4"/>
      <point x="428" y="10" type="curve" smooth="yes"/>
      <point x="428" y="63" type="line" smooth="yes"/>
      <point x="428" y="69"/>
      <point x="424" y="73"/>
      <point x="418" y="73" type="curve" smooth="yes"/>
      <point x="259" y="73" type="line" smooth="yes"/>
      <point x="225" y="73"/>
      <point x="192" y="73"/>
      <point x="158" y="73" type="curve"/>
      <point x="158" y="74" type="line"/>
      <point x="180" y="104"/>
      <point x="201" y="134"/>
      <point x="222" y="164" type="curve" smooth="yes"/>
      <point x="435" y="464" type="line" smooth="yes"/>
      <point x="438" y="468"/>
      <point x="439" y="472"/>
      <point x="439" y="477" type="curve" smooth="yes"/>
      <point x="439" y="479" type="line" smooth="yes"/>
      <point x="439" y="484"/>
      <point x="435" y="488"/>
      <point x="429" y="488" type="curve" smooth="yes"/>
      <point x="58" y="488" type="line" smooth="yes"/>
      <point x="52" y="488"/>
      <point x="48" y="484"/>
      <point x="48" y="478" type="curve" smooth="yes"/>
      <point x="48" y="425" type="line" smooth="yes"/>
      <point x="48" y="419"/>
      <point x="52" y="415"/>
      <point x="58" y="415" type="curve" smooth="yes"/>
      <point x="192" y="415" type="line" smooth="yes"/>
      <point x="230" y="415"/>
      <point x="268" y="415"/>
      <point x="306" y="415" type="curve"/>
      <point x="306" y="414" type="line"/>
      <point x="286" y="387"/>
      <point x="267" y="360"/>
      <point x="248" y="333" type="curve" smooth="yes"/>
      <point x="29" y="24" type="line" smooth="yes"/>
      <point x="26" y="20"/>
      <point x="25" y="16"/>
      <point x="25" y="11" type="curve" smooth="yes"/>
      <point x="25" y="9" type="line" smooth="yes"/>
      <point x="25" y="4"/>
      <point x="29" y="0"/>
    </contour>
  </outline>
</glyph>
<glyph name="braceleft" format="2">
  <advance width="266"/>
  <unicode hex="007B"/>
  <outline>
    <contour>
      <point x="261" y="-142" type="curve" smooth="yes"/>
      <point x="267" y="-142"/>
      <point x="271" y="-138"/>
      <point x="271" y="-132" type="curve" smooth="yes"/>
      <point x="271" y="-82" type="line" smooth="yes"/>
      <point x="271" y="-76"/>
      <point x="267" y="-72"/>
      <point x="261" y="-72" type="curve" smooth="yes"/>
      <point x="199" y="-72"/>
      <point x="185" y="-58"/>
      <point x="185" y="17" type="curve" smooth="yes"/>
      <point x="185" y="162" type="line" smooth="yes"/>
      <point x="185" y="230"/>
      <point x="167" y="264"/>
      <point x="127" y="277" type="curve"/>
      <point x="168" y="291"/>
      <point x="185" y="324"/>
      <point x="185" y="392" type="curve" smooth="yes"/>
      <point x="185" y="538" type="line" smooth="yes"/>
      <point x="185" y="609"/>
      <point x="196" y="627"/>
      <point x="261" y="627" type="curve" smooth="yes"/>
      <point x="267" y="627"/>
      <point x="271" y="631"/>
      <point x="271" y="637" type="curve" smooth="yes"/>
      <point x="271" y="687" type="line" smooth="yes"/>
      <point x="271" y="693"/>
      <point x="267" y="697"/>
      <point x="261" y="697" type="curve" smooth="yes"/>
      <point x="135" y="697"/>
      <point x="100" y="668"/>
      <point x="100" y="517" type="curve" smooth="yes"/>
      <point x="100" y="392" type="line" smooth="yes"/>
      <point x="100" y="331"/>
      <point x="83" y="312"/>
      <point x="35" y="312" type="curve" smooth="yes"/>
      <point x="20" y="312" type="line" smooth="yes"/>
      <point x="14" y="312"/>
      <point x="10" y="308"/>
      <point x="10" y="302" type="curve" smooth="yes"/>
      <point x="10" y="252" type="line" smooth="yes"/>
      <point x="10" y="246"/>
      <point x="14" y="242"/>
      <point x="20" y="242" type="curve" smooth="yes"/>
      <point x="35" y="242" type="line" smooth="yes"/>
      <point x="83" y="242"/>
      <point x="100" y="224"/>
      <point x="100" y="162" type="curve" smooth="yes"/>
      <point x="100" y="38" type="line" smooth="yes"/>
      <point x="100" y="-110"/>
      <point x="132" y="-142"/>
    </contour>
  </outline>
</glyph>
<glyph name="bar" format="2">
  <advance width="257"/>
  <unicode hex="007C"/>
  <outline>
    <contour>
      <point x="95" y="-185" type="curve" smooth="yes"/>
      <point x="162" y="-185" type="line" smooth="yes"/>
      <point x="168" y="-185"/>
      <point x="172" y="-181"/>
      <point x="172" y="-175" type="curve" smooth="yes"/>
      <point x="172" y="820" type="line" smooth="yes"/>
      <point x="172" y="826"/>
      <point x="168" y="830"/>
      <point x="162" y="830" type="curve" smooth="yes"/>
      <point x="95" y="830" type="line" smooth="yes"/>
      <point x="89" y="830"/>
      <point x="85" y="826"/>
      <point x="85" y="820" type="curve" smooth="yes"/>
      <point x="85" y="-175" type="line" smooth="yes"/>
      <point x="85" y="-181"/>
      <point x="89" y="-185"/>
    </contour>
  </outline>
</glyph>
<glyph name="braceright" format="2">
  <advance width="266"/>
  <unicode hex="007D"/>
  <outline>
    <contour>
      <point x="5" y="-142" type="curve" smooth="yes"/>
      <point x="134" y="-142"/>
      <point x="166" y="-110"/>
      <point x="166" y="38" type="curve" smooth="yes"/>
      <point x="166" y="162" type="line" smooth="yes"/>
      <point x="166" y="224"/>
      <point x="183" y="242"/>
      <point x="231" y="242" type="curve" smooth="yes"/>
      <point x="246" y="242" type="line" smooth="yes"/>
      <point x="252" y="242"/>
      <point x="256" y="246"/>
      <point x="256" y="252" type="curve" smooth="yes"/>
      <point x="256" y="302" type="line" smooth="yes"/>
      <point x="256" y="308"/>
      <point x="252" y="312"/>
      <point x="246" y="312" type="curve" smooth="yes"/>
      <point x="231" y="312" type="line" smooth="yes"/>
      <point x="183" y="312"/>
      <point x="166" y="331"/>
      <point x="166" y="392" type="curve" smooth="yes"/>
      <point x="166" y="517" type="line" smooth="yes"/>
      <point x="166" y="668"/>
      <point x="131" y="697"/>
      <point x="5" y="697" type="curve" smooth="yes"/>
      <point x="-1" y="697"/>
      <point x="-5" y="693"/>
      <point x="-5" y="687" type="curve" smooth="yes"/>
      <point x="-5" y="637" type="line" smooth="yes"/>
      <point x="-5" y="631"/>
      <point x="-1" y="627"/>
      <point x="5" y="627" type="curve" smooth="yes"/>
      <point x="70" y="627"/>
      <point x="81" y="609"/>
      <point x="81" y="538" type="curve" smooth="yes"/>
      <point x="81" y="392" type="line" smooth="yes"/>
      <point x="81" y="324"/>
      <point x="98" y="291"/>
      <point x="139" y="277" type="curve"/>
      <point x="99" y="264"/>
      <point x="81" y="230"/>
      <point x="81" y="162" type="curve" smooth="yes"/>
      <point x="81" y="17" type="line" smooth="yes"/>
      <point x="81" y="-58"/>
      <point x="67" y="-72"/>
      <point x="5" y="-72" type="curve" smooth="yes"/>
      <point x="-1" y="-72"/>
      <point x="-5" y="-76"/>
      <point x="-5" y="-82" type="curve" smooth="yes"/>
      <point x="-5" y="-132" type="line" smooth="yes"/>
      <point x="-5" y="-138"/>
      <point x="-1" y="-142"/>
    </contour>
  </outline>
</glyph>
<glyph name="asciitilde" format="2">
  <advance width="600"/>
  <unicode hex="007E"/>
  <outline>
    <contour>
      <point x="389" y="251" type="curve" smooth="yes"/>
      <point x="441" y="251"/>
      <point x="483" y="268"/>
      <point x="500" y="275" type="curve" smooth="yes"/>
      <point x="505" y="277"/>
      <point x="507" y="282"/>
      <point x="507" y="287" type="curve" smooth="yes"/>
      <point x="507" y="337" type="line" smooth="yes"/>
      <point x="507" y="344"/>
      <point x="503" y="347"/>
      <point x="496" y="345" type="curve" smooth="yes"/>
      <point x="474" y="339"/>
      <point x="425" y="324"/>
      <point x="391" y="324" type="curve" smooth="yes"/>
      <point x="314" y="324"/>
      <point x="294" y="352"/>
      <point x="211" y="352" type="curve" smooth="yes"/>
      <point x="157" y="352"/>
      <point x="114" y="334"/>
      <point x="98" y="326" type="curve" smooth="yes"/>
      <point x="93" y="324"/>
      <point x="93" y="322"/>
      <point x="93" y="316" type="curve" smooth="yes"/>
      <point x="93" y="266" type="line" smooth="yes"/>
      <point x="93" y="259"/>
      <point x="97" y="256"/>
      <point x="104" y="258" type="curve" smooth="yes"/>
      <point x="126" y="264"/>
      <point x="175" y="279"/>
      <point x="209" y="279" type="curve" smooth="yes"/>
      <point x="288" y="279"/>
      <point x="306" y="251"/>
    </contour>
  </outline>
</glyph>
<glyph name="exclamdown" format="2">
  <advance width="231"/>
  <unicode hex="00A1"/>
  <outline>
    <contour>
      <point x="85" y="288" type="line" smooth="yes"/>
      <point x="79" y="288"/>
      <point x="75" y="285"/>
      <point x="75" y="278" type="curve" smooth="yes"/>
      <point x="69" y="-157" type="line" smooth="yes"/>
      <point x="69" y="-163"/>
      <point x="73" y="-167"/>
      <point x="79" y="-167" type="curve" smooth="yes"/>
      <point x="152" y="-167" type="line" smooth="yes"/>
      <point x="158" y="-167"/>
      <point x="162" y="-163"/>
      <point x="162" y="-157" type="curve" smooth="yes"/>
      <point x="156" y="278" type="line" smooth="yes"/>
      <point x="156" y="285"/>
      <point x="152" y="288"/>
      <point x="146" y="288" type="curve" smooth="yes"/>
    </contour>
    <contour>
      <point x="116" y="500" type="curve" smooth="yes"/>
      <point x="76" y="500"/>
      <point x="60" y="477"/>
      <point x="60" y="444" type="curve" smooth="yes"/>
      <point x="60" y="434" type="line" smooth="yes"/>
      <point x="60" y="401"/>
      <point x="76" y="378"/>
      <point x="116" y="378" type="curve" smooth="yes"/>
      <point x="156" y="378"/>
      <point x="172" y="401"/>
      <point x="172" y="434" type="curve" smooth="yes"/>
      <point x="172" y="444" type="line" smooth="yes"/>
      <point x="172" y="477"/>
      <point x="156" y="500"/>
    </contour>
  </outline>
</glyph>
<glyph name="cent" format="2">
  <advance width="630"/>
  <unicode hex="00A2"/>
  <outline>
    <contour>
      <point x="289" y="529" type="line"/>
      <point x="365" y="533" type="line"/>
      <point x="365" y="616" type="line" smooth="yes"/>
      <point x="365" y="622"/>
      <point x="361" y="626"/>
      <point x="355" y="626" type="curve" smooth="yes"/>
      <point x="299" y="626" type="line" smooth="yes"/>
      <point x="293" y="626"/>
      <point x="289" y="622"/>
      <point x="289" y="616" type="curve" smooth="yes"/>
    </contour>
    <contour>
      <point x="299" y="-38" type="curve" smooth="yes"/>
      <point x="355" y="-38" type="line" smooth="yes"/>
      <point x="361" y="-38"/>
      <point x="365" y="-34"/>
      <point x="365" y="-28" type="curve" smooth="yes"/>
      <point x="365" y="55" type="line"/>
      <point x="289" y="59" type="line"/>
      <point x="289" y="-28" type="line" smooth="yes"/>
      <point x="289" y="-34"/>
      <point x="293" y="-38"/>
    </contour>
    <component base="c" xOffset="56" yOffset="50"/>
  </outline>
</glyph>
<glyph name="sterling" format="2">
  <advance width="630"/>
  <unicode hex="00A3"/>
  <outline>
    <contour>
      <point x="131" y="0" type="curve" smooth="yes"/>
      <point x="542" y="0" type="line" smooth="yes"/>
      <point x="548" y="0"/>
      <point x="552" y="4"/>
      <point x="552" y="10" type="curve" smooth="yes"/>
      <point x="552" y="67" type="line" smooth="yes"/>
      <point x="552" y="73"/>
      <point x="548" y="77"/>
      <point x="542" y="77" type="curve" smooth="yes"/>
      <point x="214" y="77" type="line"/>
      <point x="237" y="99"/>
      <point x="254" y="128"/>
      <point x="254" y="184" type="curve" smooth="yes"/>
      <point x="254" y="462" type="line" smooth="yes"/>
      <point x="254" y="552"/>
      <point x="277" y="592"/>
      <point x="352" y="592" type="curve" smooth="yes"/>
      <point x="424" y="592"/>
      <point x="439" y="545"/>
      <point x="439" y="493" type="curve" smooth="yes"/>
      <point x="439" y="487"/>
      <point x="443" y="483"/>
      <point x="449" y="483" type="curve" smooth="yes"/>
      <point x="511" y="483" type="line" smooth="yes"/>
      <point x="517" y="483"/>
      <point x="521" y="487"/>
      <point x="521" y="493" type="curve" smooth="yes"/>
      <point x="521" y="624"/>
      <point x="453" y="667"/>
      <point x="351" y="667" type="curve" smooth="yes"/>
      <point x="215" y="667"/>
      <point x="169" y="584"/>
      <point x="169" y="469" type="curve" smooth="yes"/>
      <point x="169" y="166" type="line" smooth="yes"/>
      <point x="169" y="130"/>
      <point x="156" y="98"/>
      <point x="126" y="65" type="curve" smooth="yes"/>
      <point x="122" y="61"/>
      <point x="121" y="58"/>
      <point x="121" y="53" type="curve" smooth="yes"/>
      <point x="121" y="10" type="line" smooth="yes"/>
      <point x="121" y="4"/>
      <point x="125" y="0"/>
    </contour>
    <contour>
      <point x="96" y="305" type="curve" smooth="yes"/>
      <point x="407" y="305" type="line" smooth="yes"/>
      <point x="413" y="305"/>
      <point x="417" y="309"/>
      <point x="417" y="315" type="curve" smooth="yes"/>
      <point x="417" y="365" type="line" smooth="yes"/>
      <point x="417" y="371"/>
      <point x="413" y="375"/>
      <point x="407" y="375" type="curve" smooth="yes"/>
      <point x="96" y="375" type="line" smooth="yes"/>
      <point x="90" y="375"/>
      <point x="86" y="371"/>
      <point x="86" y="365" type="curve" smooth="yes"/>
      <point x="86" y="315" type="line" smooth="yes"/>
      <point x="86" y="309"/>
      <point x="90" y="305"/>
    </contour>
  </outline>
</glyph>
<glyph name="currency" format="2">
  <advance width="630"/>
  <unicode hex="00A4"/>
  <outline>
    <contour>
      <point x="135" y="111" type="curve"/>
      <point x="193" y="164" type="line"/>
      <point x="226" y="142"/>
      <point x="267" y="130"/>
      <point x="315" y="130" type="curve" smooth="yes"/>
      <point x="363" y="130"/>
      <point x="404" y="142"/>
      <point x="437" y="164" type="curve"/>
      <point x="495" y="111" type="line"/>
      <point x="500" y="107"/>
      <point x="505" y="108"/>
      <point x="509" y="112" type="curve" smooth="yes"/>
      <point x="551" y="154" type="line" smooth="yes"/>
      <point x="555" y="158"/>
      <point x="555" y="163"/>
      <point x="550" y="168" type="curve"/>
      <point x="488" y="221" type="line"/>
      <point x="502" y="248"/>
      <point x="510" y="279"/>
      <point x="510" y="314" type="curve" smooth="yes"/>
      <point x="510" y="349"/>
      <point x="502" y="380"/>
      <point x="488" y="407" type="curve"/>
      <point x="550" y="460" type="line"/>
      <point x="555" y="465"/>
      <point x="555" y="470"/>
      <point x="551" y="474" type="curve" smooth="yes"/>
      <point x="509" y="516" type="line" smooth="yes"/>
      <point x="504" y="521"/>
      <point x="499" y="521"/>
      <point x="495" y="517" type="curve"/>
      <point x="437" y="464" type="line"/>
      <point x="404" y="486"/>
      <point x="363" y="498"/>
      <point x="315" y="498" type="curve" smooth="yes"/>
      <point x="267" y="498"/>
      <point x="226" y="486"/>
      <point x="193" y="464" type="curve"/>
      <point x="135" y="517" type="line"/>
      <point x="131" y="521"/>
      <point x="126" y="521"/>
      <point x="121" y="516" type="curve" smooth="yes"/>
      <point x="79" y="474" type="line" smooth="yes"/>
      <point x="75" y="470"/>
      <point x="75" y="465"/>
      <point x="80" y="460" type="curve"/>
      <point x="142" y="407" type="line"/>
      <point x="128" y="380"/>
      <point x="120" y="349"/>
      <point x="120" y="314" type="curve" smooth="yes"/>
      <point x="120" y="279"/>
      <point x="128" y="248"/>
      <point x="142" y="221" type="curve"/>
      <point x="80" y="168" type="line"/>
      <point x="75" y="163"/>
      <point x="75" y="158"/>
      <point x="79" y="154" type="curve" smooth="yes"/>
      <point x="121" y="112" type="line" smooth="yes"/>
      <point x="126" y="107"/>
      <point x="131" y="107"/>
    </contour>
    <contour>
      <point x="315" y="200" type="curve" smooth="yes"/>
      <point x="233" y="200"/>
      <point x="200" y="244"/>
      <point x="200" y="314" type="curve" smooth="yes"/>
      <point x="200" y="384"/>
      <point x="233" y="428"/>
      <point x="315" y="428" type="curve" smooth="yes"/>
      <point x="397" y="428"/>
      <point x="430" y="384"/>
      <point x="430" y="314" type="curve" smooth="yes"/>
      <point x="430" y="244"/>
      <point x="397" y="200"/>
    </contour>
  </outline>
</glyph>
<glyph name="yen" format="2">
  <advance width="631"/>
  <unicode hex="00A5"/>
  <outline>
    <contour>
      <point x="283" y="0" type="curve" smooth="yes"/>
      <point x="348" y="0" type="line" smooth="yes"/>
      <point x="354" y="0"/>
      <point x="358" y="4"/>
      <point x="358" y="10" type="curve" smooth="yes"/>
      <point x="358" y="225" type="line"/>
      <point x="561" y="643" type="line" smooth="yes"/>
      <point x="564" y="650"/>
      <point x="561" y="655"/>
      <point x="554" y="655" type="curve" smooth="yes"/>
      <point x="481" y="655" type="line" smooth="yes"/>
      <point x="476" y="655"/>
      <point x="471" y="653"/>
      <point x="469" y="648" type="curve" smooth="yes"/>
      <point x="359" y="406" type="line" smooth="yes"/>
      <point x="345" y="375"/>
      <point x="330" y="342"/>
      <point x="317" y="311" type="curve"/>
      <point x="316" y="311" type="line"/>
      <point x="303" y="342"/>
      <point x="288" y="374"/>
      <point x="274" y="405" type="curve" smooth="yes"/>
      <point x="164" y="648" type="line" smooth="yes"/>
      <point x="162" y="653"/>
      <point x="158" y="655"/>
      <point x="152" y="655" type="curve" smooth="yes"/>
      <point x="77" y="655" type="line" smooth="yes"/>
      <point x="70" y="655"/>
      <point x="67" y="650"/>
      <point x="70" y="643" type="curve" smooth="yes"/>
      <point x="273" y="225" type="line"/>
      <point x="273" y="10" type="line" smooth="yes"/>
      <point x="273" y="4"/>
      <point x="277" y="0"/>
    </contour>
    <contour>
      <point x="167" y="97" type="curve" smooth="yes"/>
      <point x="463" y="97" type="line" smooth="yes"/>
      <point x="469" y="97"/>
      <point x="473" y="101"/>
      <point x="473" y="107" type="curve" smooth="yes"/>
      <point x="473" y="157" type="line" smooth="yes"/>
      <point x="473" y="163"/>
      <point x="469" y="167"/>
      <point x="463" y="167" type="curve" smooth="yes"/>
      <point x="167" y="167" type="line" smooth="yes"/>
      <point x="161" y="167"/>
      <point x="157" y="163"/>
      <point x="157" y="157" type="curve" smooth="yes"/>
      <point x="157" y="107" type="line" smooth="yes"/>
      <point x="157" y="101"/>
      <point x="161" y="97"/>
    </contour>
    <contour>
      <point x="167" y="225" type="curve" smooth="yes"/>
      <point x="463" y="225" type="line" smooth="yes"/>
      <point x="469" y="225"/>
      <point x="473" y="229"/>
      <point x="473" y="235" type="curve" smooth="yes"/>
      <point x="473" y="285" type="line" smooth="yes"/>
      <point x="473" y="291"/>
      <point x="469" y="295"/>
      <point x="463" y="295" type="curve" smooth="yes"/>
      <point x="167" y="295" type="line" smooth="yes"/>
      <point x="161" y="295"/>
      <point x="157" y="291"/>
      <point x="157" y="285" type="curve" smooth="yes"/>
      <point x="157" y="235" type="line" smooth="yes"/>
      <point x="157" y="229"/>
      <point x="161" y="225"/>
    </contour>
  </outline>
</glyph>
<glyph name="brokenbar" format="2">
  <advance width="257"/>
  <unicode hex="00A6"/>
  <outline>
    <contour>
      <point x="95" y="392" type="curve" smooth="yes"/>
      <point x="162" y="392" type="line" smooth="yes"/>
      <point x="168" y="392"/>
      <point x="172" y="396"/>
      <point x="172" y="402" type="curve" smooth="yes"/>
      <point x="172" y="820" type="line" smooth="yes"/>
      <point x="172" y="826"/>
      <point x="168" y="830"/>
      <point x="162" y="830" type="curve" smooth="yes"/>
      <point x="95" y="830" type="line" smooth="yes"/>
      <point x="89" y="830"/>
      <point x="85" y="826"/>
      <point x="85" y="820" type="curve" smooth="yes"/>
      <point x="85" y="402" type="line" smooth="yes"/>
      <point x="85" y="396"/>
      <point x="89" y="392"/>
    </contour>
    <contour>
      <point x="95" y="-185" type="curve" smooth="yes"/>
      <point x="162" y="-185" type="line" smooth="yes"/>
      <point x="168" y="-185"/>
      <point x="172" y="-181"/>
      <point x="172" y="-175" type="curve" smooth="yes"/>
      <point x="172" y="243" type="line" smooth="yes"/>
      <point x="172" y="249"/>
      <point x="168" y="253"/>
      <point x="162" y="253" type="curve" smooth="yes"/>
      <point x="95" y="253" type="line" smooth="yes"/>
      <point x="89" y="253"/>
      <point x="85" y="249"/>
      <point x="85" y="243" type="curve" smooth="yes"/>
      <point x="85" y="-175" type="line" smooth="yes"/>
      <point x="85" y="-181"/>
      <point x="89" y="-185"/>
    </contour>
  </outline>
</glyph>
<glyph name="section" format="2">
  <advance width="481"/>
  <unicode hex="00A7"/>
  <outline>
    <contour>
      <point x="305" y="115" type="line"/>
      <point x="398" y="132"/>
      <point x="451" y="186"/>
      <point x="451" y="261" type="curve" smooth="yes"/>
      <point x="451" y="338"/>
      <point x="401" y="380"/>
      <point x="352" y="407" type="curve" smooth="yes"/>
      <point x="210" y="487" type="line" smooth="yes"/>
      <point x="172" y="508"/>
      <point x="154" y="522"/>
      <point x="154" y="558" type="curve" smooth="yes"/>
      <point x="154" y="600"/>
      <point x="185" y="621"/>
      <point x="249" y="621" type="curve" smooth="yes"/>
      <point x="325" y="621"/>
      <point x="347" y="594"/>
      <point x="347" y="560" type="curve" smooth="yes"/>
      <point x="347" y="554"/>
      <point x="351" y="550"/>
      <point x="357" y="550" type="curve" smooth="yes"/>
      <point x="422" y="550" type="line" smooth="yes"/>
      <point x="428" y="550"/>
      <point x="432" y="553"/>
      <point x="432" y="559" type="curve" smooth="yes"/>
      <point x="432" y="637"/>
      <point x="374" y="695"/>
      <point x="250" y="695" type="curve" smooth="yes"/>
      <point x="131" y="695"/>
      <point x="69" y="649"/>
      <point x="69" y="558" type="curve" smooth="yes"/>
      <point x="69" y="496"/>
      <point x="102" y="453"/>
      <point x="170" y="418" type="curve" smooth="yes"/>
      <point x="278" y="362" type="line" smooth="yes"/>
      <point x="340" y="330"/>
      <point x="366" y="303"/>
      <point x="366" y="258" type="curve" smooth="yes"/>
      <point x="366" y="202"/>
      <point x="332" y="177"/>
      <point x="249" y="162" type="curve"/>
    </contour>
    <contour>
      <point x="231" y="-118" type="curve" smooth="yes"/>
      <point x="350" y="-118"/>
      <point x="412" y="-72"/>
      <point x="412" y="19" type="curve" smooth="yes"/>
      <point x="412" y="86"/>
      <point x="379" y="122"/>
      <point x="311" y="158" type="curve" smooth="yes"/>
      <point x="203" y="215" type="line" smooth="yes"/>
      <point x="141" y="248"/>
      <point x="115" y="274"/>
      <point x="115" y="319" type="curve" smooth="yes"/>
      <point x="115" y="375"/>
      <point x="149" y="400"/>
      <point x="232" y="415" type="curve"/>
      <point x="176" y="462" type="line"/>
      <point x="83" y="445"/>
      <point x="30" y="391"/>
      <point x="30" y="316" type="curve" smooth="yes"/>
      <point x="30" y="239"/>
      <point x="80" y="196"/>
      <point x="129" y="169" type="curve" smooth="yes"/>
      <point x="271" y="91" type="line" smooth="yes"/>
      <point x="309" y="70"/>
      <point x="327" y="57"/>
      <point x="327" y="21" type="curve" smooth="yes"/>
      <point x="327" y="-21"/>
      <point x="296" y="-44"/>
      <point x="232" y="-44" type="curve" smooth="yes"/>
      <point x="157" y="-44"/>
      <point x="134" y="-17"/>
      <point x="134" y="17" type="curve" smooth="yes"/>
      <point x="134" y="23"/>
      <point x="130" y="27"/>
      <point x="124" y="27" type="curve" smooth="yes"/>
      <point x="59" y="27" type="line" smooth="yes"/>
      <point x="53" y="27"/>
      <point x="49" y="24"/>
      <point x="49" y="18" type="curve" smooth="yes"/>
      <point x="49" y="-60"/>
      <point x="109" y="-118"/>
    </contour>
  </outline>
</glyph>
<glyph name="copyright" format="2">
  <advance width="716"/>
  <unicode hex="00A9"/>
  <outline>
    <contour>
      <point x="358" y="-12" type="curve" smooth="yes"/>
      <point x="552" y="-12"/>
      <point x="641" y="81"/>
      <point x="641" y="232" type="curve" smooth="yes"/>
      <point x="641" y="372" type="line" smooth="yes"/>
      <point x="641" y="523"/>
      <point x="552" y="616"/>
      <point x="358" y="616" type="curve" smooth="yes"/>
      <point x="164" y="616"/>
      <point x="75" y="523"/>
      <point x="75" y="372" type="curve" smooth="yes"/>
      <point x="75" y="232" type="line" smooth="yes"/>
      <point x="75" y="81"/>
      <point x="164" y="-12"/>
    </contour>
    <contour>
      <point x="358" y="54" type="curve" smooth="yes"/>
      <point x="220" y="54"/>
      <point x="147" y="114"/>
      <point x="147" y="229" type="curve" smooth="yes"/>
      <point x="147" y="375" type="line" smooth="yes"/>
      <point x="147" y="490"/>
      <point x="220" y="550"/>
      <point x="358" y="550" type="curve" smooth="yes"/>
      <point x="496" y="550"/>
      <point x="569" y="490"/>
      <point x="569" y="375" type="curve" smooth="yes"/>
      <point x="569" y="229" type="line" smooth="yes"/>
      <point x="569" y="114"/>
      <point x="496" y="54"/>
    </contour>
    <contour>
      <point x="359" y="127" type="curve" smooth="yes"/>
      <point x="448" y="127"/>
      <point x="495" y="176"/>
      <point x="495" y="243" type="curve" smooth="yes"/>
      <point x="495" y="250"/>
      <point x="492" y="253"/>
      <point x="486" y="253" type="curve" smooth="yes"/>
      <point x="431" y="253" type="line" smooth="yes"/>
      <point x="422" y="253"/>
      <point x="421" y="250"/>
      <point x="421" y="242" type="curve" smooth="yes"/>
      <point x="421" y="212"/>
      <point x="401" y="196"/>
      <point x="360" y="196" type="curve" smooth="yes"/>
      <point x="318" y="196"/>
      <point x="297" y="219"/>
      <point x="297" y="267" type="curve" smooth="yes"/>
      <point x="297" y="337" type="line" smooth="yes"/>
      <point x="297" y="385"/>
      <point x="318" y="408"/>
      <point x="362" y="408" type="curve" smooth="yes"/>
      <point x="401" y="408"/>
      <point x="422" y="392"/>
      <point x="422" y="362" type="curve" smooth="yes"/>
      <point x="422" y="354"/>
      <point x="424" y="350"/>
      <point x="431" y="350" type="curve" smooth="yes"/>
      <point x="487" y="350" type="line" smooth="yes"/>
      <point x="494" y="350"/>
      <point x="496" y="354"/>
      <point x="496" y="361" type="curve" smooth="yes"/>
      <point x="496" y="435"/>
      <point x="447" y="477"/>
      <point x="361" y="477" type="curve" smooth="yes"/>
      <point x="273" y="477"/>
      <point x="222" y="427"/>
      <point x="222" y="342" type="curve" smooth="yes"/>
      <point x="222" y="262" type="line" smooth="yes"/>
      <point x="222" y="176"/>
      <point x="272" y="127"/>
    </contour>
  </outline>
</glyph>
<glyph name="ordfeminine" format="2">
  <advance width="394"/>
  <unicode hex="00AA"/>
  <outline>
    <contour>
      <point x="144" y="322" type="curve" smooth="yes"/>
      <point x="183" y="322"/>
      <point x="221" y="337"/>
      <point x="262" y="377" type="curve"/>
      <point x="264" y="362"/>
      <point x="266" y="347"/>
      <point x="267" y="342" type="curve" smooth="yes"/>
      <point x="268" y="336"/>
      <point x="271" y="329"/>
      <point x="279" y="329" type="curve" smooth="yes"/>
      <point x="323" y="329" type="line" smooth="yes"/>
      <point x="331" y="329"/>
      <point x="335" y="334"/>
      <point x="334" y="341" type="curve" smooth="yes"/>
      <point x="331" y="359"/>
      <point x="329" y="383"/>
      <point x="329" y="415" type="curve" smooth="yes"/>
      <point x="329" y="551" type="line" smooth="yes"/>
      <point x="329" y="629"/>
      <point x="285" y="667"/>
      <point x="202" y="667" type="curve" smooth="yes"/>
      <point x="119" y="667"/>
      <point x="67" y="626"/>
      <point x="72" y="574" type="curve" smooth="yes"/>
      <point x="73" y="563"/>
      <point x="76" y="560"/>
      <point x="84" y="560" type="curve" smooth="yes"/>
      <point x="129" y="560" type="line" smooth="yes"/>
      <point x="136" y="560"/>
      <point x="140" y="564"/>
      <point x="140" y="570" type="curve" smooth="yes"/>
      <point x="140" y="592"/>
      <point x="158" y="604"/>
      <point x="200" y="604" type="curve" smooth="yes"/>
      <point x="244" y="604"/>
      <point x="259" y="589"/>
      <point x="259" y="550" type="curve" smooth="yes"/>
      <point x="259" y="535" type="line"/>
      <point x="207" y="530" type="line" smooth="yes"/>
      <point x="99" y="520"/>
      <point x="55" y="490"/>
      <point x="55" y="417" type="curve" smooth="yes"/>
      <point x="55" y="355"/>
      <point x="89" y="322"/>
    </contour>
    <contour>
      <point x="70" y="204" type="curve" smooth="yes"/>
      <point x="329" y="204" type="line" smooth="yes"/>
      <point x="334" y="204"/>
      <point x="339" y="208"/>
      <point x="339" y="214" type="curve" smooth="yes"/>
      <point x="339" y="257" type="line" smooth="yes"/>
      <point x="339" y="263"/>
      <point x="334" y="267"/>
      <point x="329" y="267" type="curve" smooth="yes"/>
      <point x="70" y="267" type="line" smooth="yes"/>
      <point x="64" y="267"/>
      <point x="60" y="263"/>
      <point x="60" y="257" type="curve" smooth="yes"/>
      <point x="60" y="214" type="line" smooth="yes"/>
      <point x="60" y="208"/>
      <point x="64" y="204"/>
    </contour>
    <contour>
      <point x="160" y="382" type="curve" smooth="yes"/>
      <point x="137" y="382"/>
      <point x="124" y="393"/>
      <point x="124" y="422" type="curve" smooth="yes"/>
      <point x="124" y="457"/>
      <point x="144" y="472"/>
      <point x="208" y="478" type="curve" smooth="yes"/>
      <point x="259" y="483" type="line"/>
      <point x="259" y="434" type="line"/>
      <point x="221" y="399"/>
      <point x="185" y="382"/>
    </contour>
  </outline>
</glyph>
<glyph name="logicalnot" format="2">
  <advance width="600"/>
  <unicode hex="00AC"/>
  <outline>
    <contour>
      <point x="442" y="113" type="curve" smooth="yes"/>
      <point x="498" y="113" type="line" smooth="yes"/>
      <point x="504" y="113"/>
      <point x="508" y="117"/>
      <point x="508" y="123" type="curve" smooth="yes"/>
      <point x="508" y="325" type="line" smooth="yes"/>
      <point x="508" y="331"/>
      <point x="504" y="335"/>
      <point x="498" y="335" type="curve" smooth="yes"/>
      <point x="102" y="335" type="line" smooth="yes"/>
      <point x="96" y="335"/>
      <point x="92" y="331"/>
      <point x="92" y="325" type="curve" smooth="yes"/>
      <point x="92" y="275" type="line" smooth="yes"/>
      <point x="92" y="269"/>
      <point x="96" y="265"/>
      <point x="102" y="265" type="curve" smooth="yes"/>
      <point x="432" y="265" type="line"/>
      <point x="432" y="123" type="line" smooth="yes"/>
      <point x="432" y="117"/>
      <point x="436" y="113"/>
    </contour>
  </outline>
</glyph>
<glyph name="registered" format="2">
  <advance width="598"/>
  <unicode hex="00AE"/>
  <guideline x="271" y="618" angle="0"/>
  <guideline x="284" y="580" angle="0"/>
  <outline>
    <contour>
      <point x="299" y="305" type="curve" smooth="yes"/>
      <point x="453" y="305"/>
      <point x="519" y="380"/>
      <point x="519" y="489" type="curve" smooth="yes"/>
      <point x="519" y="519" type="line" smooth="yes"/>
      <point x="519" y="628"/>
      <point x="453" y="703"/>
      <point x="299" y="703" type="curve" smooth="yes"/>
      <point x="145" y="703"/>
      <point x="82" y="630"/>
      <point x="82" y="521" type="curve" smooth="yes"/>
      <point x="82" y="491" type="line" smooth="yes"/>
      <point x="82" y="382"/>
      <point x="145" y="305"/>
    </contour>
    <contour>
      <point x="299" y="354" type="curve" smooth="yes"/>
      <point x="190" y="354"/>
      <point x="134" y="403"/>
      <point x="134" y="485" type="curve" smooth="yes"/>
      <point x="134" y="527" type="line" smooth="yes"/>
      <point x="134" y="609"/>
      <point x="190" y="654"/>
      <point x="299" y="654" type="curve" smooth="yes"/>
      <point x="408" y="654"/>
      <point x="467" y="607"/>
      <point x="467" y="525" type="curve" smooth="yes"/>
      <point x="467" y="483" type="line" smooth="yes"/>
      <point x="467" y="401"/>
      <point x="408" y="354"/>
    </contour>
    <contour>
      <point x="227" y="395" type="curve" smooth="yes"/>
      <point x="254" y="395" type="line" smooth="yes"/>
      <point x="260" y="395"/>
      <point x="264" y="399"/>
      <point x="264" y="405" type="curve" smooth="yes"/>
      <point x="264" y="475" type="line"/>
      <point x="302" y="475" type="line"/>
      <point x="351" y="402" type="line" smooth="yes"/>
      <point x="354" y="398"/>
      <point x="358" y="395"/>
      <point x="363" y="395" type="curve" smooth="yes"/>
      <point x="395" y="395" type="line" smooth="yes"/>
      <point x="403" y="395"/>
      <point x="405" y="401"/>
      <point x="400" y="407" type="curve" smooth="yes"/>
      <point x="348" y="481" type="line"/>
      <point x="385" y="494"/>
      <point x="400" y="512"/>
      <point x="400" y="547" type="curve" smooth="yes"/>
      <point x="400" y="592"/>
      <point x="373" y="618"/>
      <point x="299" y="618" type="curve" smooth="yes"/>
      <point x="228" y="618" type="line" smooth="yes"/>
      <point x="220" y="618"/>
      <point x="217" y="615"/>
      <point x="217" y="609" type="curve" smooth="yes"/>
      <point x="217" y="405" type="line" smooth="yes"/>
      <point x="217" y="399"/>
      <point x="221" y="395"/>
    </contour>
    <contour>
      <point x="264" y="513" type="line"/>
      <point x="264" y="580" type="line"/>
      <point x="302" y="580" type="line" smooth="yes"/>
      <point x="339" y="580"/>
      <point x="352" y="571"/>
      <point x="352" y="549" type="curve" smooth="yes"/>
      <point x="352" y="541" type="line" smooth="yes"/>
      <point x="352" y="524"/>
      <point x="339" y="513"/>
      <point x="304" y="513" type="curve"/>
    </contour>
  </outline>
</glyph>
<glyph name="degree" format="2">
  <advance width="391"/>
  <unicode hex="00B0"/>
  <outline>
    <contour>
      <point x="196" y="400" type="curve" smooth="yes"/>
      <point x="288" y="400"/>
      <point x="341" y="449"/>
      <point x="341" y="538" type="curve" smooth="yes"/>
      <point x="341" y="556" type="line" smooth="yes"/>
      <point x="341" y="645"/>
      <point x="288" y="694"/>
      <point x="196" y="694" type="curve" smooth="yes"/>
      <point x="104" y="694"/>
      <point x="50" y="645"/>
      <point x="50" y="556" type="curve" smooth="yes"/>
      <point x="50" y="538" type="line" smooth="yes"/>
      <point x="50" y="449"/>
      <point x="104" y="400"/>
    </contour>
    <contour>
      <point x="196" y="457" type="curve" smooth="yes"/>
      <point x="144" y="457"/>
      <point x="114" y="482"/>
      <point x="114" y="538" type="curve" smooth="yes"/>
      <point x="114" y="556" type="line" smooth="yes"/>
      <point x="114" y="612"/>
      <point x="144" y="637"/>
      <point x="196" y="637" type="curve" smooth="yes"/>
      <point x="248" y="637"/>
      <point x="277" y="612"/>
      <point x="277" y="556" type="curve" smooth="yes"/>
      <point x="277" y="538" type="line" smooth="yes"/>
      <point x="277" y="482"/>
      <point x="246" y="457"/>
    </contour>
  </outline>
</glyph>
<glyph name="plusminus" format="2">
  <advance width="600"/>
  <unicode hex="00B1"/>
  <outline>
    <contour>
      <point x="272" y="173" type="curve" smooth="yes"/>
      <point x="328" y="173" type="line" smooth="yes"/>
      <point x="334" y="173"/>
      <point x="338" y="177"/>
      <point x="338" y="183" type="curve" smooth="yes"/>
      <point x="338" y="325" type="line"/>
      <point x="498" y="325" type="line" smooth="yes"/>
      <point x="504" y="325"/>
      <point x="508" y="329"/>
      <point x="508" y="335" type="curve" smooth="yes"/>
      <point x="508" y="386" type="line" smooth="yes"/>
      <point x="508" y="392"/>
      <point x="504" y="396"/>
      <point x="498" y="396" type="curve" smooth="yes"/>
      <point x="338" y="396" type="line"/>
      <point x="338" y="538" type="line" smooth="yes"/>
      <point x="338" y="544"/>
      <point x="334" y="548"/>
      <point x="328" y="548" type="curve" smooth="yes"/>
      <point x="272" y="548" type="line" smooth="yes"/>
      <point x="266" y="548"/>
      <point x="262" y="544"/>
      <point x="262" y="538" type="curve" smooth="yes"/>
      <point x="262" y="396" type="line"/>
      <point x="102" y="396" type="line" smooth="yes"/>
      <point x="96" y="396"/>
      <point x="92" y="392"/>
      <point x="92" y="386" type="curve" smooth="yes"/>
      <point x="92" y="335" type="line" smooth="yes"/>
      <point x="92" y="329"/>
      <point x="96" y="325"/>
      <point x="102" y="325" type="curve" smooth="yes"/>
      <point x="262" y="325" type="line"/>
      <point x="262" y="183" type="line" smooth="yes"/>
      <point x="262" y="177"/>
      <point x="266" y="173"/>
    </contour>
    <contour>
      <point x="101" y="60" type="curve" smooth="yes"/>
      <point x="497" y="60" type="line" smooth="yes"/>
      <point x="503" y="60"/>
      <point x="507" y="64"/>
      <point x="507" y="70" type="curve" smooth="yes"/>
      <point x="507" y="120" type="line" smooth="yes"/>
      <point x="507" y="126"/>
      <point x="503" y="130"/>
      <point x="497" y="130" type="curve" smooth="yes"/>
      <point x="101" y="130" type="line" smooth="yes"/>
      <point x="95" y="130"/>
      <point x="91" y="126"/>
      <point x="91" y="120" type="curve" smooth="yes"/>
      <point x="91" y="70" type="line" smooth="yes"/>
      <point x="91" y="64"/>
      <point x="95" y="60"/>
    </contour>
  </outline>
</glyph>
<glyph name="paragraph" format="2">
  <advance width="616"/>
  <unicode hex="00B6"/>
  <outline>
    <contour>
      <point x="235" y="-185" type="curve" smooth="yes"/>
      <point x="301" y="-185" type="line" smooth="yes"/>
      <point x="307" y="-185"/>
      <point x="311" y="-181"/>
      <point x="311" y="-175" type="curve" smooth="yes"/>
      <point x="311" y="606" type="line"/>
      <point x="450" y="606" type="line"/>
      <point x="450" y="-175" type="line" smooth="yes"/>
      <point x="450" y="-181"/>
      <point x="454" y="-185"/>
      <point x="460" y="-185" type="curve" smooth="yes"/>
      <point x="526" y="-185" type="line" smooth="yes"/>
      <point x="532" y="-185"/>
      <point x="536" y="-181"/>
      <point x="536" y="-175" type="curve" smooth="yes"/>
      <point x="536" y="673" type="line" smooth="yes"/>
      <point x="536" y="679"/>
      <point x="532" y="683"/>
      <point x="526" y="683" type="curve" smooth="yes"/>
      <point x="162" y="683" type="line" smooth="yes"/>
      <point x="62" y="683"/>
      <point x="25" y="617"/>
      <point x="25" y="540" type="curve" smooth="yes"/>
      <point x="25" y="456" type="line" smooth="yes"/>
      <point x="25" y="379"/>
      <point x="62" y="313"/>
      <point x="162" y="313" type="curve" smooth="yes"/>
      <point x="225" y="313" type="line"/>
      <point x="225" y="-175" type="line" smooth="yes"/>
      <point x="225" y="-181"/>
      <point x="229" y="-185"/>
    </contour>
  </outline>
</glyph>
<glyph name="ordmasculine" format="2">
  <advance width="402"/>
  <unicode hex="00BA"/>
  <outline>
    <contour>
      <point x="200" y="322" type="curve" smooth="yes"/>
      <point x="292" y="322"/>
      <point x="347" y="378"/>
      <point x="347" y="470" type="curve" smooth="yes"/>
      <point x="347" y="519" type="line" smooth="yes"/>
      <point x="347" y="611"/>
      <point x="292" y="667"/>
      <point x="200" y="667" type="curve" smooth="yes"/>
      <point x="109" y="667"/>
      <point x="55" y="611"/>
      <point x="55" y="519" type="curve" smooth="yes"/>
      <point x="55" y="470" type="line" smooth="yes"/>
      <point x="55" y="378"/>
      <point x="109" y="322"/>
    </contour>
    <contour>
      <point x="71" y="204" type="curve" smooth="yes"/>
      <point x="330" y="204" type="line" smooth="yes"/>
      <point x="335" y="204"/>
      <point x="340" y="208"/>
      <point x="340" y="214" type="curve" smooth="yes"/>
      <point x="340" y="257" type="line" smooth="yes"/>
      <point x="340" y="263"/>
      <point x="335" y="267"/>
      <point x="330" y="267" type="curve" smooth="yes"/>
      <point x="71" y="267" type="line" smooth="yes"/>
      <point x="65" y="267"/>
      <point x="61" y="263"/>
      <point x="61" y="257" type="curve" smooth="yes"/>
      <point x="61" y="214" type="line" smooth="yes"/>
      <point x="61" y="208"/>
      <point x="65" y="204"/>
    </contour>
    <contour>
      <point x="200" y="385" type="curve" smooth="yes"/>
      <point x="152" y="385"/>
      <point x="125" y="414"/>
      <point x="125" y="465" type="curve" smooth="yes"/>
      <point x="125" y="525" type="line" smooth="yes"/>
      <point x="125" y="575"/>
      <point x="152" y="604"/>
      <point x="200" y="604" type="curve" smooth="yes"/>
      <point x="249" y="604"/>
      <point x="277" y="575"/>
      <point x="277" y="525" type="curve" smooth="yes"/>
      <point x="277" y="465" type="line" smooth="yes"/>
      <point x="277" y="415"/>
      <point x="249" y="385"/>
    </contour>
  </outline>
</glyph>
<glyph name="guillemetright" format="2">
  <advance width="498"/>
  <unicode hex="00BB"/>
  <outline>
    <contour>
      <point x="254" y="93" type="curve" smooth="yes"/>
      <point x="320" y="93" type="line" smooth="yes"/>
      <point x="325" y="93"/>
      <point x="329" y="96"/>
      <point x="332" y="100" type="curve" smooth="yes"/>
      <point x="424" y="256" type="line" smooth="yes"/>
      <point x="427" y="260"/>
      <point x="427" y="266"/>
      <point x="424" y="270" type="curve" smooth="yes"/>
      <point x="332" y="426" type="line" smooth="yes"/>
      <point x="329" y="430"/>
      <point x="325" y="433"/>
      <point x="320" y="433" type="curve" smooth="yes"/>
      <point x="254" y="433" type="line" smooth="yes"/>
      <point x="247" y="433"/>
      <point x="243" y="428"/>
      <point x="247" y="421" type="curve" smooth="yes"/>
      <point x="333" y="263" type="line"/>
      <point x="247" y="105" type="line" smooth="yes"/>
      <point x="243" y="98"/>
      <point x="247" y="93"/>
    </contour>
    <contour>
      <point x="84" y="93" type="curve" smooth="yes"/>
      <point x="150" y="93" type="line" smooth="yes"/>
      <point x="155" y="93"/>
      <point x="159" y="96"/>
      <point x="162" y="100" type="curve" smooth="yes"/>
      <point x="254" y="256" type="line" smooth="yes"/>
      <point x="257" y="260"/>
      <point x="257" y="266"/>
      <point x="254" y="270" type="curve" smooth="yes"/>
      <point x="162" y="426" type="line" smooth="yes"/>
      <point x="159" y="430"/>
      <point x="155" y="433"/>
      <point x="150" y="433" type="curve" smooth="yes"/>
      <point x="84" y="433" type="line" smooth="yes"/>
      <point x="77" y="433"/>
      <point x="73" y="428"/>
      <point x="77" y="421" type="curve" smooth="yes"/>
      <point x="163" y="263" type="line"/>
      <point x="77" y="105" type="line" smooth="yes"/>
      <point x="73" y="98"/>
      <point x="77" y="93"/>
    </contour>
  </outline>
</glyph>
<glyph name="onequarter" format="2">
  <advance width="882"/>
  <unicode hex="00BC"/>
  <outline>
    <contour>
      <point x="74" y="238" type="curve" smooth="yes"/>
      <point x="326" y="238" type="line" smooth="yes"/>
      <point x="332" y="238"/>
      <point x="336" y="242"/>
      <point x="336" y="248" type="curve" smooth="yes"/>
      <point x="336" y="295" type="line" smooth="yes"/>
      <point x="336" y="301"/>
      <point x="332" y="305"/>
      <point x="326" y="305" type="curve" smooth="yes"/>
      <point x="241" y="305" type="line"/>
      <point x="241" y="648" type="line" smooth="yes"/>
      <point x="241" y="654"/>
      <point x="237" y="658"/>
      <point x="231" y="658" type="curve" smooth="yes"/>
      <point x="224" y="658" type="line" smooth="yes"/>
      <point x="220" y="658"/>
      <point x="215" y="657"/>
      <point x="211" y="656" type="curve" smooth="yes"/>
      <point x="78" y="614" type="line" smooth="yes"/>
      <point x="71" y="612"/>
      <point x="68" y="607"/>
      <point x="68" y="598" type="curve" smooth="yes"/>
      <point x="68" y="553" type="line" smooth="yes"/>
      <point x="68" y="546"/>
      <point x="72" y="544"/>
      <point x="80" y="546" type="curve" smooth="yes"/>
      <point x="170" y="573" type="line"/>
      <point x="170" y="305" type="line"/>
      <point x="74" y="305" type="line" smooth="yes"/>
      <point x="68" y="305"/>
      <point x="64" y="301"/>
      <point x="64" y="295" type="curve" smooth="yes"/>
      <point x="64" y="248" type="line" smooth="yes"/>
      <point x="64" y="242"/>
      <point x="68" y="238"/>
    </contour>
    <contour>
      <point x="268" y="-30" type="curve" smooth="yes"/>
      <point x="325" y="-30" type="line" smooth="yes"/>
      <point x="330" y="-30"/>
      <point x="335" y="-28"/>
      <point x="337" y="-23" type="curve" smooth="yes"/>
      <point x="506" y="325" type="line"/>
      <point x="680" y="673" type="line" smooth="yes"/>
      <point x="684" y="680"/>
      <point x="680" y="685"/>
      <point x="673" y="685" type="curve" smooth="yes"/>
      <point x="616" y="685" type="line" smooth="yes"/>
      <point x="611" y="685"/>
      <point x="607" y="683"/>
      <point x="604" y="678" type="curve" smooth="yes"/>
      <point x="446" y="353" type="line"/>
      <point x="261" y="-18" type="line" smooth="yes"/>
      <point x="258" y="-25"/>
      <point x="261" y="-30"/>
    </contour>
    <contour>
      <point x="736" y="0" type="curve" smooth="yes"/>
      <point x="786" y="0" type="line" smooth="yes"/>
      <point x="792" y="0"/>
      <point x="796" y="4"/>
      <point x="796" y="10" type="curve" smooth="yes"/>
      <point x="796" y="78" type="line"/>
      <point x="838" y="78" type="line" smooth="yes"/>
      <point x="844" y="78"/>
      <point x="848" y="82"/>
      <point x="848" y="88" type="curve" smooth="yes"/>
      <point x="848" y="135" type="line" smooth="yes"/>
      <point x="848" y="141"/>
      <point x="844" y="145"/>
      <point x="838" y="145" type="curve" smooth="yes"/>
      <point x="796" y="145" type="line"/>
      <point x="796" y="274" type="line" smooth="yes"/>
      <point x="796" y="280"/>
      <point x="792" y="284"/>
      <point x="786" y="284" type="curve" smooth="yes"/>
      <point x="737" y="284" type="line" smooth="yes"/>
      <point x="731" y="284"/>
      <point x="727" y="280"/>
      <point x="727" y="274" type="curve" smooth="yes"/>
      <point x="727" y="145" type="line"/>
      <point x="613" y="145" type="line"/>
      <point x="756" y="404" type="line" smooth="yes"/>
      <point x="761" y="412"/>
      <point x="757" y="417"/>
      <point x="748" y="417" type="curve" smooth="yes"/>
      <point x="693" y="417" type="line" smooth="yes"/>
      <point x="686" y="417"/>
      <point x="683" y="414"/>
      <point x="679" y="407" type="curve" smooth="yes"/>
      <point x="516" y="110" type="line" smooth="yes"/>
      <point x="514" y="106"/>
      <point x="512" y="100"/>
      <point x="512" y="94" type="curve" smooth="yes"/>
      <point x="512" y="88" type="line" smooth="yes"/>
      <point x="512" y="82"/>
      <point x="516" y="78"/>
      <point x="522" y="78" type="curve" smooth="yes"/>
      <point x="726" y="78" type="line"/>
      <point x="726" y="10" type="line" smooth="yes"/>
      <point x="726" y="4"/>
      <point x="730" y="0"/>
    </contour>
  </outline>
</glyph>
<glyph name="onehalf" format="2">
  <advance width="932"/>
  <unicode hex="00BD"/>
  <outline>
    <contour>
      <point x="74" y="238" type="curve" smooth="yes"/>
      <point x="326" y="238" type="line" smooth="yes"/>
      <point x="332" y="238"/>
      <point x="336" y="242"/>
      <point x="336" y="248" type="curve" smooth="yes"/>
      <point x="336" y="295" type="line" smooth="yes"/>
      <point x="336" y="301"/>
      <point x="332" y="305"/>
      <point x="326" y="305" type="curve" smooth="yes"/>
      <point x="241" y="305" type="line"/>
      <point x="241" y="648" type="line" smooth="yes"/>
      <point x="241" y="654"/>
      <point x="237" y="658"/>
      <point x="231" y="658" type="curve" smooth="yes"/>
      <point x="224" y="658" type="line" smooth="yes"/>
      <point x="220" y="658"/>
      <point x="215" y="657"/>
      <point x="211" y="656" type="curve" smooth="yes"/>
      <point x="78" y="614" type="line" smooth="yes"/>
      <point x="71" y="612"/>
      <point x="68" y="607"/>
      <point x="68" y="598" type="curve" smooth="yes"/>
      <point x="68" y="553" type="line" smooth="yes"/>
      <point x="68" y="546"/>
      <point x="72" y="544"/>
      <point x="80" y="546" type="curve" smooth="yes"/>
      <point x="170" y="573" type="line"/>
      <point x="170" y="305" type="line"/>
      <point x="74" y="305" type="line" smooth="yes"/>
      <point x="68" y="305"/>
      <point x="64" y="301"/>
      <point x="64" y="295" type="curve" smooth="yes"/>
      <point x="64" y="248" type="line" smooth="yes"/>
      <point x="64" y="242"/>
      <point x="68" y="238"/>
    </contour>
    <contour>
      <point x="268" y="-30" type="curve" smooth="yes"/>
      <point x="325" y="-30" type="line" smooth="yes"/>
      <point x="330" y="-30"/>
      <point x="335" y="-28"/>
      <point x="337" y="-23" type="curve" smooth="yes"/>
      <point x="506" y="325" type="line"/>
      <point x="680" y="673" type="line" smooth="yes"/>
      <point x="684" y="680"/>
      <point x="680" y="685"/>
      <point x="673" y="685" type="curve" smooth="yes"/>
      <point x="616" y="685" type="line" smooth="yes"/>
      <point x="611" y="685"/>
      <point x="607" y="683"/>
      <point x="604" y="678" type="curve" smooth="yes"/>
      <point x="446" y="353" type="line"/>
      <point x="261" y="-18" type="line" smooth="yes"/>
      <point x="258" y="-25"/>
      <point x="261" y="-30"/>
    </contour>
    <contour>
      <point x="598" y="0" type="curve" smooth="yes"/>
      <point x="865" y="0" type="line" smooth="yes"/>
      <point x="871" y="0"/>
      <point x="875" y="4"/>
      <point x="875" y="10" type="curve" smooth="yes"/>
      <point x="875" y="57" type="line" smooth="yes"/>
      <point x="875" y="63"/>
      <point x="871" y="67"/>
      <point x="865" y="67" type="curve" smooth="yes"/>
      <point x="662" y="67" type="line"/>
      <point x="673" y="168"/>
      <point x="868" y="161"/>
      <point x="868" y="314" type="curve" smooth="yes"/>
      <point x="868" y="386"/>
      <point x="824" y="424"/>
      <point x="733" y="424" type="curve" smooth="yes"/>
      <point x="642" y="424"/>
      <point x="590" y="386"/>
      <point x="590" y="303" type="curve" smooth="yes"/>
      <point x="590" y="297"/>
      <point x="594" y="293"/>
      <point x="600" y="293" type="curve" smooth="yes"/>
      <point x="651" y="293" type="line" smooth="yes"/>
      <point x="657" y="293"/>
      <point x="661" y="296"/>
      <point x="661" y="302" type="curve" smooth="yes"/>
      <point x="661" y="345"/>
      <point x="683" y="359"/>
      <point x="728" y="359" type="curve" smooth="yes"/>
      <point x="776" y="359"/>
      <point x="796" y="345"/>
      <point x="796" y="317" type="curve" smooth="yes"/>
      <point x="796" y="303" type="line" smooth="yes"/>
      <point x="796" y="218"/>
      <point x="588" y="201"/>
      <point x="588" y="58" type="curve" smooth="yes"/>
      <point x="588" y="10" type="line" smooth="yes"/>
      <point x="588" y="4"/>
      <point x="592" y="0"/>
    </contour>
  </outline>
</glyph>
